<svg width="61" height="60" viewBox="0 0 61 60" fill="none" xmlns="http://www.w3.org/2000/svg">
<path opacity="0.4" d="M34.81 48.0128C33.0167 50.3805 31.5555 52.31 30.3127 53.5723C29.1497 54.7538 27.5325 56.0378 25.5377 55.506C23.421 54.942 22.8381 52.8993 22.6112 51.322C22.3699 49.6455 22.37 47.312 22.3701 44.485V39.7178L37.0522 44.7963L34.81 48.0128Z" fill="white"/>
<path d="M47.1273 4.9353C49.4888 4.21403 51.8128 4.00053 53.7673 5.45345C55.7313 6.91348 56.1723 9.19933 56.1255 11.6528C56.0798 14.0723 55.5413 17.2649 54.872 21.2329L52.433 35.6953C52.0003 38.261 51.642 40.386 51.124 42.0043C50.5795 43.705 49.7615 45.1735 48.193 46.0908C46.6293 47.0058 44.9438 47.0073 43.1833 46.6628C41.523 46.338 39.4983 45.6405 37.0515 44.7943L37.0345 44.819L22.3694 39.7158L42.9945 17.5L16.7445 37.7585C13.8688 36.737 11.5008 35.8285 9.70523 34.9115C7.17873 33.621 5.02968 31.9408 4.87748 29.1948C4.72521 26.4468 6.67801 24.5426 9.04748 22.9867C11.4594 21.403 15.0409 19.7103 19.5622 17.5734L38.1643 8.78113C41.8403 7.04365 44.7918 5.64855 47.1273 4.9353Z" fill="white"/>
</svg>
