<svg width="292" height="278" viewBox="0 0 292 278" fill="none" xmlns="http://www.w3.org/2000/svg">
<g id="Group 4">
<circle id="Ellipse 6" opacity="0.3" cx="141.693" cy="111.951" r="79.3391" transform="rotate(1.57828 141.693 111.951)" stroke="url(#paint0_linear_1_259)"/>
<circle id="Ellipse 7" opacity="0.3" cx="140.276" cy="98.0078" r="79.3391" transform="rotate(1.57828 140.276 98.0078)" stroke="url(#paint1_linear_1_259)"/>
<g id="Ellipse 6_2" filter="url(#filter0_f_1_259)">
<circle cx="148.405" cy="140.607" r="96.436" stroke="#DF6E89" stroke-width="5"/>
</g>
<g id="Group 1" opacity="0.3">
<g id="Subtract" filter="url(#filter1_f_1_259)">
<path fill-rule="evenodd" clip-rule="evenodd" d="M156.033 253.824C210.559 253.824 254.761 209.622 254.761 155.096C254.761 100.57 210.559 56.3681 156.033 56.3681C101.507 56.3681 57.3053 100.57 57.3053 155.096C57.3053 209.622 101.507 253.824 156.033 253.824ZM147.097 243.151C196.357 243.151 236.291 203.217 236.291 153.957C236.291 104.697 196.357 64.7631 147.097 64.7631C97.8366 64.7631 57.9032 104.697 57.9032 153.957C57.9032 203.217 97.8366 243.151 147.097 243.151Z" fill="url(#paint2_linear_1_259)"/>
</g>
</g>
<g id="Group 3" opacity="0.9">
<g id="Subtract_2" filter="url(#filter2_f_1_259)">
<path fill-rule="evenodd" clip-rule="evenodd" d="M133.304 210.728C186.611 210.728 229.824 167.515 229.824 114.208C229.824 111.156 229.683 108.137 229.406 105.158C236.666 118.431 240.793 133.663 240.793 149.858C240.793 201.377 199.029 243.142 147.51 243.142C104.237 243.142 67.8458 213.676 57.3053 173.715C74.9743 196.249 102.448 210.728 133.304 210.728Z" fill="url(#paint3_linear_1_259)"/>
</g>
</g>
<g id="Group 2">
<g id="Subtract_3" filter="url(#filter3_f_1_259)">
<path fill-rule="evenodd" clip-rule="evenodd" d="M268.765 93.9212C250.986 85.9555 231.278 81.5254 210.536 81.5254C131.803 81.5254 67.9781 145.351 67.9781 224.083C67.9781 234.683 69.135 245.013 71.3294 254.953C41.8486 231.093 23 194.615 23 153.734C23 81.8561 81.2687 23.5875 153.147 23.5875C203.46 23.5875 247.105 52.1377 268.765 93.9212Z" fill="url(#paint4_linear_1_259)"/>
</g>
</g>
</g>
<defs>
<filter id="filter0_f_1_259" x="32.5689" y="24.7707" width="231.672" height="231.672" filterUnits="userSpaceOnUse" color-interpolation-filters="sRGB">
<feFlood flood-opacity="0" result="BackgroundImageFix"/>
<feBlend mode="normal" in="SourceGraphic" in2="BackgroundImageFix" result="shape"/>
<feGaussianBlur stdDeviation="8.45" result="effect1_foregroundBlur_1_259"/>
</filter>
<filter id="filter1_f_1_259" x="34.7053" y="33.7681" width="242.656" height="242.656" filterUnits="userSpaceOnUse" color-interpolation-filters="sRGB">
<feFlood flood-opacity="0" result="BackgroundImageFix"/>
<feBlend mode="normal" in="SourceGraphic" in2="BackgroundImageFix" result="shape"/>
<feGaussianBlur stdDeviation="11.3" result="effect1_foregroundBlur_1_259"/>
</filter>
<filter id="filter2_f_1_259" x="34.7053" y="82.5579" width="228.688" height="183.184" filterUnits="userSpaceOnUse" color-interpolation-filters="sRGB">
<feFlood flood-opacity="0" result="BackgroundImageFix"/>
<feBlend mode="normal" in="SourceGraphic" in2="BackgroundImageFix" result="shape"/>
<feGaussianBlur stdDeviation="11.3" result="effect1_foregroundBlur_1_259"/>
</filter>
<filter id="filter3_f_1_259" x="0.4" y="0.987482" width="290.965" height="276.565" filterUnits="userSpaceOnUse" color-interpolation-filters="sRGB">
<feFlood flood-opacity="0" result="BackgroundImageFix"/>
<feBlend mode="normal" in="SourceGraphic" in2="BackgroundImageFix" result="shape"/>
<feGaussianBlur stdDeviation="11.3" result="effect1_foregroundBlur_1_259"/>
</filter>
<linearGradient id="paint0_linear_1_259" x1="86.8475" y1="27.1984" x2="141.693" y2="191.79" gradientUnits="userSpaceOnUse">
<stop offset="0.697915" stop-color="#6F6A72" stop-opacity="0"/>
<stop offset="1" stop-color="#736C78"/>
</linearGradient>
<linearGradient id="paint1_linear_1_259" x1="85.4307" y1="13.2548" x2="140.276" y2="177.847" gradientUnits="userSpaceOnUse">
<stop offset="0.697915" stop-color="#6F6A72" stop-opacity="0"/>
<stop offset="1" stop-color="#736C78"/>
</linearGradient>
<linearGradient id="paint2_linear_1_259" x1="241.867" y1="66.5189" x2="28.6981" y2="244.621" gradientUnits="userSpaceOnUse">
<stop stop-color="#E0836E"/>
<stop offset="0.612538" stop-color="#DF826E"/>
<stop offset="1" stop-color="#DF826F"/>
</linearGradient>
<linearGradient id="paint3_linear_1_259" x1="228.61" y1="66.1662" x2="27.1974" y2="234.446" gradientUnits="userSpaceOnUse">
<stop stop-color="#D18B7D"/>
<stop offset="0.612538" stop-color="#E5B7A8"/>
<stop offset="1" stop-color="#E5B7A8" stop-opacity="0"/>
</linearGradient>
<linearGradient id="paint4_linear_1_259" x1="266.296" y1="36.9691" x2="-14.7109" y2="271.751" gradientUnits="userSpaceOnUse">
<stop stop-color="#B6B7C5" stop-opacity="0.3"/>
<stop offset="0.359375" stop-color="#B6B7C5" stop-opacity="0.77"/>
<stop offset="0.661458" stop-color="#B5B7C3" stop-opacity="0.2"/>
</linearGradient>
</defs>
</svg>
