<svg width="92" height="92" viewBox="0 0 92 92" fill="none" xmlns="http://www.w3.org/2000/svg">
<g filter="url(#filter0_f_3306_838)">
<path d="M46.6691 36.7696L20.7718 62.6668C19.3587 64.08 20.2349 66.5001 22.2252 66.681L22.3831 66.6954C23.8941 66.8328 25.0912 68.0299 25.2285 69.5408L25.2429 69.6988C25.4238 71.689 27.844 72.5652 29.2571 71.1521L55.1544 45.2548L58.9523 49.0528C60.3145 50.415 62.6469 49.6566 62.9474 47.7537L65.9626 28.6573C66.2122 27.0764 64.8475 25.7117 63.2667 25.9613L44.1703 28.9766C42.2674 29.277 41.5089 31.6094 42.8711 32.9716L46.6691 36.7696Z" fill="white" fill-opacity="0.8"/>
<path d="M63.2978 26.1595C64.7445 25.9311 65.9928 27.1794 65.7644 28.6261L62.7495 47.7221C62.4746 49.4636 60.3405 50.1579 59.0939 48.9112L55.1544 44.9717L29.1157 71.0104C27.8225 72.3036 25.6076 71.5018 25.4421 69.6804L25.4276 69.5223C25.2813 67.9155 24.0084 66.6426 22.4016 66.4964L22.2435 66.4819C20.4221 66.3163 19.6203 64.1015 20.9135 62.8082L46.9522 36.7696L43.0127 32.8301C41.7661 31.5834 42.4604 29.4493 44.2018 29.1744L63.2978 26.1595Z" stroke="url(#paint0_linear_3306_838)" stroke-opacity="0.3" stroke-width="0.4" style="mix-blend-mode:plus-lighter"/>
</g>
<g filter="url(#filter1_f_3306_838)">
<path d="M24.7488 32.5269L15.3969 41.8788C14.337 42.9386 14.9942 44.7537 16.4869 44.8894L16.6054 44.9002C17.7386 45.0032 18.6364 45.9011 18.7394 47.0343L18.7502 47.1527C18.8859 48.6454 20.701 49.3026 21.7609 48.2427L31.1127 38.8909L33.9612 41.7393C34.9829 42.761 36.7321 42.1921 36.9575 40.765L39.2189 26.4427C39.4061 25.257 38.3826 24.2335 37.197 24.4207L22.8747 26.6821C21.4475 26.9075 20.8786 28.6568 21.9003 29.6784L24.7488 32.5269Z" fill="white" fill-opacity="0.6"/>
<path d="M37.2281 24.6189C38.2796 24.4529 39.1868 25.36 39.0207 26.4115L36.7599 40.7332C36.5601 41.9989 35.0088 42.5038 34.1027 41.5978L31.1127 38.6077L21.6193 48.1012C20.6793 49.0411 19.07 48.4583 18.9497 47.1345L18.9386 47.0157C18.8267 45.7867 17.8529 44.813 16.6239 44.701L16.5052 44.69C15.1814 44.5696 14.5985 42.9603 15.5384 42.0204L25.0319 32.5269L22.0419 29.5369C21.1358 28.6308 21.6407 27.0796 22.9064 26.8797L37.2281 24.6189Z" stroke="url(#paint1_linear_3306_838)" stroke-opacity="0.3" stroke-width="0.4" style="mix-blend-mode:plus-lighter"/>
</g>
<g filter="url(#filter2_f_3306_838)">
<path d="M53.033 60.8112L43.6811 70.1631C42.6213 71.2229 43.2784 73.038 44.7711 73.1737L44.8896 73.1845C46.0228 73.2875 46.9206 74.1854 47.0237 75.3186L47.0344 75.437C47.1701 76.9297 48.9852 77.5869 50.0451 76.527L59.397 67.1752L62.2454 70.0236C63.2671 71.0453 65.0164 70.4764 65.2417 69.0493L67.5031 54.727C67.6903 53.5413 66.6668 52.5178 65.4812 52.705L51.1589 54.9664C49.7317 55.1918 49.1629 56.9411 50.1845 57.9627L53.033 60.8112Z" fill="white" fill-opacity="0.4"/>
<path d="M65.5123 52.9032C66.5638 52.7372 67.471 53.6443 67.305 54.6958L65.0442 69.0175C64.8443 70.2832 63.2931 70.7881 62.387 69.8821L59.397 66.892L49.9035 76.3855C48.9636 77.3254 47.3543 76.7426 47.2339 75.4188L47.2229 75.3C47.1109 74.071 46.1372 73.0973 44.9082 72.9853L44.7894 72.9743C43.4656 72.8539 42.8828 71.2446 43.8227 70.3047L53.3161 60.8112L50.3261 57.8212C49.42 56.9151 49.925 55.3639 51.1907 55.164L65.5123 52.9032Z" stroke="url(#paint2_linear_3306_838)" stroke-opacity="0.3" stroke-width="0.4" style="mix-blend-mode:plus-lighter"/>
</g>
<defs>
<filter id="filter0_f_3306_838" x="14.0781" y="19.9317" width="57.9141" height="57.9141" filterUnits="userSpaceOnUse" color-interpolation-filters="sRGB">
<feFlood flood-opacity="0" result="BackgroundImageFix"/>
<feBlend mode="normal" in="SourceGraphic" in2="BackgroundImageFix" result="shape"/>
<feGaussianBlur stdDeviation="3" result="effect1_foregroundBlur_3306_838"/>
</filter>
<filter id="filter1_f_3306_838" x="11.8766" y="21.3985" width="30.3644" height="30.3645" filterUnits="userSpaceOnUse" color-interpolation-filters="sRGB">
<feFlood flood-opacity="0" result="BackgroundImageFix"/>
<feBlend mode="normal" in="SourceGraphic" in2="BackgroundImageFix" result="shape"/>
<feGaussianBlur stdDeviation="1.5" result="effect1_foregroundBlur_3306_838"/>
</filter>
<filter id="filter2_f_3306_838" x="40.1609" y="49.6828" width="30.3644" height="30.3645" filterUnits="userSpaceOnUse" color-interpolation-filters="sRGB">
<feFlood flood-opacity="0" result="BackgroundImageFix"/>
<feBlend mode="normal" in="SourceGraphic" in2="BackgroundImageFix" result="shape"/>
<feGaussianBlur stdDeviation="1.5" result="effect1_foregroundBlur_3306_838"/>
</filter>
<linearGradient id="paint0_linear_3306_838" x1="66.4681" y1="25.4559" x2="25.4559" y2="66.4681" gradientUnits="userSpaceOnUse">
<stop stop-color="white" stop-opacity="0.6"/>
<stop offset="1" stop-color="white" stop-opacity="0"/>
</linearGradient>
<linearGradient id="paint1_linear_3306_838" x1="39.598" y1="24.0416" x2="15.9099" y2="47.7297" gradientUnits="userSpaceOnUse">
<stop stop-color="white" stop-opacity="0.6"/>
<stop offset="1" stop-color="white" stop-opacity="0"/>
</linearGradient>
<linearGradient id="paint2_linear_3306_838" x1="67.8823" y1="52.3259" x2="44.1942" y2="76.014" gradientUnits="userSpaceOnUse">
<stop stop-color="white" stop-opacity="0.6"/>
<stop offset="1" stop-color="white" stop-opacity="0"/>
</linearGradient>
</defs>
</svg>
