<svg width="66" height="44" viewBox="0 0 66 44" fill="none" xmlns="http://www.w3.org/2000/svg">
<path d="M27.5 19.25V41.6429C27.5 42.9447 28.5553 44 29.8571 44H36.1429C37.4447 44 38.5 42.9447 38.5 41.6429V19.25H44.3751C46.3889 19.25 47.4753 16.8879 46.1647 15.3589L34.7897 2.08796C33.849 0.990443 32.151 0.990442 31.2103 2.08795L19.8353 15.3588C18.5247 16.8879 19.6111 19.25 21.6249 19.25H27.5Z" fill="#5CFF93"/>
<path opacity="0.5" d="M7.33333 28.5312V36.1429C7.33333 37.4447 8.38866 38.5 9.69048 38.5H12.3095C13.6113 38.5 14.6667 37.4447 14.6667 36.1429V28.5312H16.6511C18.7006 28.5312 19.7737 26.0962 18.3907 24.5836L12.7396 18.4027C11.8051 17.3806 10.1949 17.3806 9.26036 18.4027L3.6093 24.5836C2.22635 26.0962 3.29943 28.5312 5.34894 28.5312H7.33333Z" fill="#5CFF93"/>
<path opacity="0.5" d="M51.3333 28.5312V36.1429C51.3333 37.4447 52.3887 38.5 53.6905 38.5H56.3095C57.6113 38.5 58.6667 37.4447 58.6667 36.1429V28.5312H60.6511C62.7006 28.5312 63.7737 26.0962 62.3907 24.5836L56.7396 18.4027C55.8051 17.3806 54.1949 17.3806 53.2604 18.4027L47.6093 24.5836C46.2264 26.0962 47.2994 28.5312 49.3489 28.5312H51.3333Z" fill="#5CFF93"/>
</svg>
