<svg width="22" height="22" viewBox="0 0 22 22" fill="none" xmlns="http://www.w3.org/2000/svg">
<g id="vuesax/linear/blend-2">
<g id="blend-2">
<path id="Vector" d="M15 8C15 11.87 11.87 15 8 15C7.68 15 7.37 14.98 7.07 14.93C3.64 14.48 1 11.55 1 8C1 4.13 4.13 1 8 1C11.55 1 14.48 3.64 14.93 7.07C14.98 7.37 15 7.68 15 8Z" stroke="#8A77FF" stroke-width="1.5" stroke-linecap="round" stroke-linejoin="round"/>
<path id="Vector_2" d="M21 14C21 17.87 17.87 21 14 21C10.45 21 7.52001 18.36 7.07001 14.93C7.37001 14.98 7.68001 15 8.00001 15C11.87 15 15 11.87 15 8.00001C15 7.68001 14.98 7.37001 14.93 7.07001C18.36 7.52001 21 10.45 21 14Z" stroke="#8A77FF" stroke-width="1.5" stroke-linecap="round" stroke-linejoin="round"/>
<path id="Vector_3" d="M13.15 13.12L14.46 14.41" stroke="#8A77FF" stroke-width="1.5" stroke-linecap="round" stroke-linejoin="round"/>
<path id="Vector_4" d="M16 11L15 10" stroke="#8A77FF" stroke-width="1.5" stroke-linecap="round" stroke-linejoin="round"/>
<path id="Vector_5" d="M11 16L10 15" stroke="#8A77FF" stroke-width="1.5" stroke-linecap="round" stroke-linejoin="round"/>
</g>
</g>
</svg>
