<svg width="16" height="16" viewBox="0 0 16 16" fill="none" xmlns="http://www.w3.org/2000/svg">
<g id="vuesax/linear/copy">
<g id="copy">
<path id="Vector" d="M10.6667 8.59999V11.4C10.6667 13.7333 9.73333 14.6667 7.4 14.6667H4.6C2.26666 14.6667 1.33333 13.7333 1.33333 11.4V8.59999C1.33333 6.26666 2.26666 5.33333 4.6 5.33333H7.4C9.73333 5.33333 10.6667 6.26666 10.6667 8.59999Z" stroke="white" stroke-width="1.5" stroke-linecap="round" stroke-linejoin="round"/>
<path id="Vector_2" d="M14.6667 4.6V7.4C14.6667 9.73333 13.7333 10.6667 11.4 10.6667H10.6667V8.59999C10.6667 6.26666 9.73333 5.33333 7.4 5.33333H5.33333V4.6C5.33333 2.26666 6.26666 1.33333 8.59999 1.33333H11.4C13.7333 1.33333 14.6667 2.26666 14.6667 4.6Z" stroke="white" stroke-width="1.5" stroke-linecap="round" stroke-linejoin="round"/>
</g>
</g>
</svg>
