<svg width="16" height="16" viewBox="0 0 16 16" fill="none" xmlns="http://www.w3.org/2000/svg">
<g clip-path="url(#clip0_3552_35997)">
<path d="M9.32369 1.4804C8.89342 1.39303 8.44816 1.34717 7.99216 1.34717C4.31532 1.34717 1.33466 4.32898 1.33466 8.00725C1.33466 11.6855 4.31532 14.6673 7.99216 14.6673C11.669 14.6673 14.6497 11.6855 14.6497 8.00725C14.6497 7.55112 14.6038 7.10559 14.5165 6.67525" stroke="white" stroke-linecap="round"/>
<path d="M7.99235 6.00927C7.25695 6.00927 6.66083 6.45654 6.66083 7.00826C6.66083 7.55999 7.25695 8.00732 7.99235 8.00732C8.72769 8.00732 9.32382 8.45459 9.32382 9.00632C9.32382 9.55806 8.72769 10.0053 7.99235 10.0053M7.99235 6.00927C8.57209 6.00927 9.06522 6.28726 9.24809 6.67525M7.99235 6.00927V5.34326M7.99235 10.0053C7.41262 10.0053 6.91942 9.72732 6.73662 9.33932M7.99235 10.0053V10.6713" stroke="white" stroke-linecap="round"/>
<path opacity="0.4" d="M14.6653 1.33252L11.8853 4.11523M11.3366 1.68001L11.4153 3.73897C11.4153 4.22425 11.7049 4.52661 12.2325 4.56475L14.3124 4.66255" stroke="white" stroke-linecap="round" stroke-linejoin="round"/>
</g>
<defs>
<clipPath id="clip0_3552_35997">
<rect width="16" height="16" fill="white"/>
</clipPath>
</defs>
</svg>
