<svg width="28" height="28" viewBox="0 0 28 28" fill="none" xmlns="http://www.w3.org/2000/svg">
<path d="M15.5166 9.4617L17.0566 12.5417C17.2666 12.9617 17.8266 13.3817 18.2933 13.4517L21.0816 13.9184C22.8666 14.2217 23.2866 15.505 22.0033 16.7884L19.8333 18.9584C19.4716 19.32 19.2616 20.0317 19.3783 20.545L19.9967 23.24C20.4867 25.3634 19.355 26.1917 17.4767 25.0834L14.8633 23.5317C14.385 23.2517 13.615 23.2517 13.1366 23.5317L10.5233 25.0834C8.64496 26.1917 7.51329 25.3634 8.00329 23.24L8.62165 20.545C8.73832 20.0434 8.5283 19.3317 8.16664 18.9584L5.99665 16.7884C4.71332 15.505 5.1333 14.21 6.9183 13.9184L9.70665 13.4517C10.1733 13.37 10.7333 12.9617 10.9433 12.5417L12.4833 9.4617C13.3117 7.79337 14.6883 7.79337 15.5166 9.4617Z" stroke="white" stroke-width="2.5" stroke-linecap="round" stroke-linejoin="round"/>
<path d="M6.99997 10.5002V2.3335" stroke="white" stroke-width="2.5" stroke-linecap="round" stroke-linejoin="round"/>
<path d="M21 10.5002V2.3335" stroke="white" stroke-width="2.5" stroke-linecap="round" stroke-linejoin="round"/>
<path d="M14 4.66683V2.3335" stroke="white" stroke-width="2.5" stroke-linecap="round" stroke-linejoin="round"/>
</svg>
