<svg width="32" height="12" viewBox="0 0 32 12" fill="none" xmlns="http://www.w3.org/2000/svg">
<g clip-path="url(#clip0_2014_8661)">
<path d="M31.0517 2.17053H32.0098V0H31.0517C30.1705 0 29.3248 0.378512 28.7274 1.03499L27.2371 2.68507C27.0537 2.88615 26.7935 3.00444 26.5273 3.00444C26.2612 3.00444 26.001 2.88615 25.8176 2.68507L24.3272 1.03499C23.7299 0.378512 22.8842 0 22.0029 0H21.0567V2.17053H22.0029C22.275 2.17053 22.5293 2.28881 22.7127 2.4899L24.1616 4.09266L22.7127 5.69542C22.5293 5.8965 22.2691 6.01479 21.997 6.01479H21.0508V8.18531H21.997C22.8783 8.18531 23.724 7.8068 24.3213 7.15032L25.8117 5.50025C25.9951 5.29916 26.2553 5.18088 26.5214 5.18088C26.7876 5.18088 27.0478 5.29916 27.2311 5.50025L28.7274 7.15032C29.3248 7.8068 30.1705 8.18531 31.0517 8.18531H32.0098V6.01479H31.0517C30.7797 6.01479 30.5254 5.8965 30.342 5.69542L28.893 4.09266L30.342 2.4899C30.5254 2.28881 30.7856 2.17053 31.0517 2.17053Z" fill="white"/>
<path d="M2.04827 11.9941H0.102483C0.0374263 11.9941 -0.0098877 11.9409 -0.0098877 11.8817V8.68802C-0.0098877 6.38147 1.86493 4.50665 4.17148 4.50665C4.84571 4.50665 5.51402 4.67225 6.11135 4.97979L12.8536 8.62888C13.6343 9.05471 14.5569 9.04879 15.3257 8.61705C16.1597 8.14983 16.6505 7.23903 16.6505 6.28093V4.73731C16.6505 3.31789 15.4973 2.16461 14.0778 2.16461H0.108397C0.0433405 2.16461 -0.00397345 2.11138 -0.00397345 2.05224V0.112371C-0.00397345 0.0473139 0.0492547 0 0.108397 0H14.0719C16.6919 0 18.8151 2.12321 18.8151 4.74322V6.25727C18.8151 7.98423 17.9398 9.61656 16.4495 10.48C14.9591 11.3435 13.2794 11.3376 11.8127 10.5451L5.08819 6.90192C4.81613 6.75998 4.49677 6.6831 4.17148 6.6831C3.06552 6.6831 2.16064 7.58206 2.16064 8.69394V11.8876C2.16064 11.9527 2.10741 12 2.04827 12V11.9941Z" fill="white"/>
</g>
<defs>
<clipPath id="clip0_2014_8661">
<rect width="32.0197" height="12" fill="white" transform="translate(-0.0098877)"/>
</clipPath>
</defs>
</svg>
