<svg width="28" height="28" viewBox="0 0 28 28" fill="none" xmlns="http://www.w3.org/2000/svg">
<path d="M19.4833 22.1434H8.51664C8.02664 22.1434 7.47831 21.7584 7.31497 21.2918L2.48497 7.78175C1.79664 5.84509 2.60164 5.25008 4.25831 6.44009L8.80831 9.69509C9.56664 10.2201 10.43 9.95175 10.7566 9.10009L12.81 3.62842C13.4633 1.87842 14.5483 1.87842 15.2016 3.62842L17.255 9.10009C17.5816 9.95175 18.445 10.2201 19.1916 9.69509L23.4616 6.65008C25.2816 5.34342 26.1566 6.00842 25.41 8.12009L20.6966 21.3151C20.5216 21.7584 19.9733 22.1434 19.4833 22.1434Z" stroke="white" stroke-width="2.5" stroke-linecap="round" stroke-linejoin="round"/>
<path d="M7.5833 25.6665H20.4166" stroke="white" stroke-width="2.5" stroke-linecap="round" stroke-linejoin="round"/>
<path d="M11.0833 16.3335H16.9166" stroke="white" stroke-width="2.5" stroke-linecap="round" stroke-linejoin="round"/>
</svg>
