<svg width="20" height="20" viewBox="0 0 20 20" fill="none" xmlns="http://www.w3.org/2000/svg">
<g id="vuesax/linear/routing-2">
<g id="routing-2">
<path id="Vector" d="M4.55833 7.50001C6.16916 7.50001 7.475 6.19417 7.475 4.58334C7.475 2.97251 6.16916 1.66667 4.55833 1.66667C2.9475 1.66667 1.64166 2.97251 1.64166 4.58334C1.64166 6.19417 2.9475 7.50001 4.55833 7.50001Z" stroke="#8A77FF" stroke-width="1.5"/>
<path id="Vector_2" d="M14.1416 12.5H16.6416C17.5583 12.5 18.3083 13.25 18.3083 14.1667V16.6667C18.3083 17.5833 17.5583 18.3333 16.6416 18.3333H14.1416C13.225 18.3333 12.475 17.5833 12.475 16.6667V14.1667C12.475 13.25 13.225 12.5 14.1416 12.5Z" stroke="#8A77FF" stroke-width="1.5"/>
<path id="Vector_3" d="M9.99997 4.16667H12.2333C13.775 4.16667 14.4916 6.07501 13.3333 7.09167L6.67497 12.9167C5.51664 13.925 6.23331 15.8333 7.76664 15.8333H9.99997" stroke="#8A77FF" stroke-width="1.5" stroke-linecap="round" stroke-linejoin="round"/>
<path id="Vector_4" d="M4.57185 4.58334H4.58148" stroke="#8A77FF" stroke-width="2" stroke-linecap="round" stroke-linejoin="round"/>
<path id="Vector_5" d="M15.4052 15.4167H15.4148" stroke="#8A77FF" stroke-width="2" stroke-linecap="round" stroke-linejoin="round"/>
</g>
</g>
</svg>
