<svg width="24" height="24" viewBox="0 0 24 24" fill="none" xmlns="http://www.w3.org/2000/svg">
<g clip-path="url(#clip0_1795_11289)">
<mask id="mask0_1795_11289" style="mask-type:luminance" maskUnits="userSpaceOnUse" x="0" y="0" width="24" height="24">
<path d="M0 0H24V24H0V0Z" fill="white"/>
</mask>
<g mask="url(#mask0_1795_11289)">
<path d="M12 23.97C18.6108 23.97 23.97 18.6109 23.97 12C23.97 5.38918 18.6108 0.0300293 12 0.0300293C5.38915 0.0300293 0.0299988 5.38918 0.0299988 12C0.0299988 18.6109 5.38915 23.97 12 23.97Z" fill="#3396FF" stroke="#66B1FF" stroke-width="0.06"/>
<path d="M7.35114 8.93799C9.9186 6.43425 14.0814 6.43425 16.6489 8.93799L16.9579 9.23931C17.0863 9.36447 17.0863 9.56745 16.9579 9.69261L15.9008 10.7234C15.8366 10.786 15.7326 10.786 15.6684 10.7234L15.2432 10.3087C13.452 8.56209 10.548 8.56209 8.75682 10.3087L8.30142 10.7528C8.23722 10.8154 8.13318 10.8154 8.06898 10.7528L7.01196 9.72201C6.88356 9.59685 6.88356 9.39387 7.01196 9.26871L7.35114 8.93799ZM18.835 11.0697L19.7757 11.9871C19.9041 12.1123 19.9041 12.3153 19.7757 12.4404L15.5337 16.5771C15.4054 16.7023 15.1972 16.7023 15.0688 16.5771L12.0581 13.6412C12.026 13.6099 11.974 13.6099 11.9419 13.6412L8.93124 16.5771C8.8029 16.7023 8.59476 16.7023 8.46636 16.5771L4.22427 12.4404C4.09589 12.3152 4.09589 12.1122 4.22427 11.9871L5.16504 11.0697C5.29341 10.9445 5.50155 10.9445 5.62992 11.0697L8.64066 14.0056C8.67276 14.0369 8.72478 14.0369 8.75688 14.0056L11.7675 11.0697C11.8958 10.9444 12.104 10.9444 12.2324 11.0697L15.2431 14.0056C15.2752 14.0369 15.3272 14.0369 15.3593 14.0056L18.3701 11.0697C18.4984 10.9445 18.7066 10.9445 18.835 11.0697Z" fill="white"/>
</g>
</g>
<defs>
<clipPath id="clip0_1795_11289">
<rect width="24" height="24" fill="white"/>
</clipPath>
</defs>
</svg>
