<svg width="24" height="24" viewBox="0 0 24 24" fill="none" xmlns="http://www.w3.org/2000/svg">
<g id="Frame 1">
<g id="Vector">
<path d="M18.7 2.1196L3.32991 7.58832C1.40362 8.2737 1.62546 11.0664 3.6358 11.4391L9.27211 12.4839C10.0749 12.6328 10.7067 13.2546 10.8681 14.055L12.0762 20.0449C12.4799 22.0466 15.2708 22.2276 15.9297 20.2948L21.2635 4.64923C21.8033 3.06575 20.2762 1.5588 18.7 2.1196Z" fill="url(#paint0_linear_1_215)"/>
<path fill-rule="evenodd" clip-rule="evenodd" d="M21.1979 2.18756C21.3931 2.38282 21.3931 2.6994 21.1979 2.89467L10.8058 13.2867C10.6105 13.482 10.294 13.482 10.0987 13.2867C9.90344 13.0915 9.90344 12.7749 10.0987 12.5796L20.4908 2.18756C20.686 1.9923 21.0026 1.9923 21.1979 2.18756Z" fill="url(#paint1_linear_1_215)"/>
</g>
</g>
<defs>
<linearGradient id="paint0_linear_1_215" x1="11.7195" y1="-0.706663" x2="11.7195" y2="25.5613" gradientUnits="userSpaceOnUse">
<stop stop-color="#A0A0A1"/>
<stop offset="1" stop-color="#696972"/>
</linearGradient>
<linearGradient id="paint1_linear_1_215" x1="21.1979" y1="2.89464" x2="10.8058" y2="13.2867" gradientUnits="userSpaceOnUse">
<stop offset="0.161458" stop-color="white" stop-opacity="0"/>
<stop offset="0.5" stop-color="white"/>
<stop offset="0.890625" stop-color="white" stop-opacity="0"/>
</linearGradient>
</defs>
</svg>
