<svg width="16" height="17" viewBox="0 0 16 17" fill="none" xmlns="http://www.w3.org/2000/svg">
<path d="M8.00016 15.1667C11.6821 15.1667 14.6668 12.1819 14.6668 8.5C14.6668 4.8181 11.6821 1.83333 8.00016 1.83333C4.31826 1.83333 1.3335 4.8181 1.3335 8.5C1.3335 12.1819 4.31826 15.1667 8.00016 15.1667Z" stroke="#A3A3A3" stroke-linecap="round" stroke-linejoin="round"/>
<path d="M5.33324 2.5H5.9999C4.6999 6.39333 4.6999 10.6067 5.9999 14.5H5.33324" stroke="#A3A3A3" stroke-linecap="round" stroke-linejoin="round"/>
<path d="M10 2.5C11.3 6.39333 11.3 10.6067 10 14.5" stroke="#A3A3A3" stroke-linecap="round" stroke-linejoin="round"/>
<path d="M2 11.1667V10.5C5.89333 11.8 10.1067 11.8 14 10.5V11.1667" stroke="#A3A3A3" stroke-linecap="round" stroke-linejoin="round"/>
<path d="M2 6.49999C5.89333 5.19999 10.1067 5.19999 14 6.49999" stroke="#A3A3A3" stroke-linecap="round" stroke-linejoin="round"/>
</svg>
