<svg width="18" height="15" viewBox="0 0 18 15" fill="none" xmlns="http://www.w3.org/2000/svg">
  <path d="M3.27614 14.461V13.5323C3.27614 13.1763 3.05982 12.9442 2.689 12.9442C2.50358 12.9442 2.30272 13.0061 2.16366 13.2073C2.0555 13.037 1.90098 12.9442 1.66922 12.9442C1.5147 12.9442 1.36019 12.9906 1.23659 13.1609V12.9751H0.912109V14.461H1.23659V13.6407C1.23659 13.3775 1.37564 13.2537 1.59196 13.2537C1.80828 13.2537 1.91644 13.393 1.91644 13.6407V14.461H2.24091V13.6407C2.24091 13.3775 2.39542 13.2537 2.59629 13.2537C2.81261 13.2537 2.92076 13.393 2.92076 13.6407V14.461H3.27614ZM8.08146 12.9751H7.55612V12.5263H7.23165V12.9751H6.93807V13.2692H7.23165V13.9502C7.23165 14.2907 7.3707 14.492 7.74153 14.492C7.88059 14.492 8.03511 14.4455 8.14327 14.3836L8.05056 14.105C7.95785 14.1669 7.84969 14.1824 7.77244 14.1824C7.61793 14.1824 7.55612 14.0895 7.55612 13.9348V13.2692H8.08146V12.9751ZM10.8318 12.9442C10.6464 12.9442 10.5227 13.037 10.4455 13.1609V12.9751H10.121V14.461H10.4455V13.6252C10.4455 13.3776 10.5536 13.2383 10.7545 13.2383C10.8163 13.2383 10.8936 13.2537 10.9554 13.2692L11.0481 12.9596C10.9863 12.9442 10.8936 12.9442 10.8318 12.9442ZM6.6754 13.0989C6.52089 12.9906 6.30457 12.9442 6.07281 12.9442C5.70198 12.9442 5.45476 13.1299 5.45476 13.424C5.45476 13.6716 5.64017 13.8109 5.96465 13.8574L6.11916 13.8728C6.28912 13.9038 6.38183 13.9502 6.38183 14.0276C6.38183 14.136 6.25822 14.2134 6.0419 14.2134C5.82559 14.2134 5.65563 14.136 5.54747 14.0586L5.39295 14.3062C5.56292 14.4301 5.79469 14.492 6.02645 14.492C6.45909 14.492 6.70631 14.2908 6.70631 14.0122C6.70631 13.749 6.50544 13.6097 6.19641 13.5633L6.0419 13.5478C5.90284 13.5323 5.79469 13.5014 5.79469 13.4085C5.79469 13.3002 5.90284 13.2383 6.07281 13.2383C6.25822 13.2383 6.44363 13.3156 6.53634 13.3621L6.6754 13.0989ZM15.2972 12.9442C15.1118 12.9442 14.9881 13.037 14.9109 13.1609V12.9751H14.5864V14.461H14.9109V13.6252C14.9109 13.3776 15.019 13.2383 15.2199 13.2383C15.2817 13.2383 15.359 13.2537 15.4208 13.2692L15.5135 12.9596C15.4517 12.9442 15.359 12.9442 15.2972 12.9442ZM11.1562 13.7181C11.1562 14.1669 11.4653 14.492 11.9443 14.492C12.1606 14.492 12.3151 14.4455 12.4696 14.3217L12.3151 14.0586C12.1915 14.1514 12.0679 14.1979 11.9288 14.1979C11.6661 14.1979 11.4807 14.0121 11.4807 13.7181C11.4807 13.4395 11.6661 13.2537 11.9288 13.2383C12.0679 13.2383 12.1915 13.2847 12.3151 13.3776L12.4696 13.1144C12.3151 12.9906 12.1606 12.9442 11.9443 12.9442C11.4653 12.9442 11.1562 13.2692 11.1562 13.7181ZM14.1538 13.7181V12.9751H13.8293V13.1609C13.7211 13.0216 13.5666 12.9442 13.3658 12.9442C12.9486 12.9442 12.6241 13.2692 12.6241 13.7181C12.6241 14.1669 12.9486 14.492 13.3658 14.492C13.5821 14.492 13.7366 14.4146 13.8293 14.2753V14.461H14.1538V13.7181ZM12.964 13.7181C12.964 13.4549 13.134 13.2383 13.4121 13.2383C13.6748 13.2383 13.8602 13.4395 13.8602 13.7181C13.8602 13.9812 13.6748 14.1979 13.4121 14.1979C13.134 14.1824 12.964 13.9812 12.964 13.7181ZM9.08579 12.9442C8.65316 12.9442 8.34413 13.2537 8.34413 13.7181C8.34413 14.1824 8.65316 14.492 9.10124 14.492C9.31756 14.492 9.53387 14.4301 9.70384 14.2908L9.54932 14.0586C9.42571 14.1514 9.2712 14.2134 9.11669 14.2134C8.91583 14.2134 8.71496 14.1205 8.6686 13.8574H9.76564C9.76564 13.8109 9.76564 13.78 9.76564 13.7335C9.78109 13.2537 9.50297 12.9442 9.08579 12.9442ZM9.08579 13.2228C9.28665 13.2228 9.42571 13.3466 9.45662 13.5788H8.68406C8.71496 13.3776 8.85402 13.2228 9.08579 13.2228ZM17.1359 13.7181V12.387H16.8114V13.1609C16.7032 13.0216 16.5487 12.9442 16.3478 12.9442C15.9307 12.9442 15.6062 13.2692 15.6062 13.7181C15.6062 14.1669 15.9307 14.492 16.3478 14.492C16.5642 14.492 16.7187 14.4146 16.8114 14.2753V14.461H17.1359V13.7181ZM15.9461 13.7181C15.9461 13.4549 16.1161 13.2383 16.3942 13.2383C16.6569 13.2383 16.8423 13.4395 16.8423 13.7181C16.8423 13.9812 16.6569 14.1979 16.3942 14.1979C16.1161 14.1824 15.9461 13.9812 15.9461 13.7181ZM5.09938 13.7181V12.9751H4.77491V13.1609C4.66675 13.0216 4.51224 12.9442 4.31137 12.9442C3.89419 12.9442 3.56971 13.2692 3.56971 13.7181C3.56971 14.1669 3.89419 14.492 4.31137 14.492C4.52769 14.492 4.6822 14.4146 4.77491 14.2753V14.461H5.09938V13.7181ZM3.89419 13.7181C3.89419 13.4549 4.06415 13.2383 4.34227 13.2383C4.60494 13.2383 4.79036 13.4395 4.79036 13.7181C4.79036 13.9812 4.60494 14.1979 4.34227 14.1979C4.06415 14.1824 3.89419 13.9812 3.89419 13.7181Z" fill="black" />
  <path d="M11.435 1.69189H6.56787V10.4524H11.435V1.69189Z" fill="#FF5F00" />
  <path d="M6.87578 6.07207C6.87578 4.2921 7.71014 2.71335 8.99259 1.69181C8.05007 0.948863 6.86033 0.5 5.56243 0.5C2.48764 0.5 0 2.99195 0 6.07207C0 9.15219 2.48764 11.6441 5.56243 11.6441C6.86033 11.6441 8.05007 11.1953 8.99259 10.4523C7.71014 9.44627 6.87578 7.85204 6.87578 6.07207Z" fill="#EB001B" />
  <path d="M17.9999 6.07207C17.9999 9.15219 15.5123 11.6441 12.4375 11.6441C11.1396 11.6441 9.94985 11.1953 9.00732 10.4523C10.3052 9.4308 11.1241 7.85204 11.1241 6.07207C11.1241 4.2921 10.2898 2.71335 9.00732 1.69181C9.94985 0.948863 11.1396 0.5 12.4375 0.5C15.5123 0.5 17.9999 3.00743 17.9999 6.07207Z" fill="#F79E1B" />
</svg>
  