<svg width="120" height="18" viewBox="0 0 120 18" fill="none" xmlns="http://www.w3.org/2000/svg">
  <path d="M113.931 0C110.593 0 107.862 2.70345 107.862 6.06896C107.862 9.40689 110.566 12.1379 113.931 12.1379C117.269 12.1379 120 9.43447 120 6.06896C120 2.70345 117.297 0 113.931 0ZM113.931 10.4552C111.503 10.4552 109.517 8.49655 109.517 6.04138C109.517 3.6138 111.503 1.62759 113.931 1.62759C116.359 1.62759 118.345 3.58621 118.345 6.04138C118.345 8.49655 116.359 10.4552 113.931 10.4552Z" fill="#232323" />
  <path d="M45.8203 0C44.1099 0 42.8134 1.35173 42.4548 2.45518V0.468969H37.4341V2.12414H40.8272V10.0414H37.4341V11.6965H46.6479V10.0414H42.4548V5.02069C42.4548 4.27586 43.1168 1.54484 45.3513 1.54484C46.041 1.54484 46.6754 1.73793 47.0892 2.20689C46.9237 2.42758 46.8409 2.67586 46.8409 2.9793C46.8409 3.69655 47.4203 4.27586 48.1375 4.27586C48.9099 4.27586 49.4065 3.64138 49.4065 2.86897C49.4065 1.62759 47.972 0 45.8203 0Z" fill="#232323" />
  <path d="M88.7439 0C87.0336 0 85.737 1.35173 85.3784 2.45518V0.468969H80.3577V2.12414H83.7508V10.0414H80.3577V11.6965H89.5715V10.0414H85.3784V5.02069C85.3784 4.27586 86.0405 1.54484 88.2749 1.54484C88.9646 1.54484 89.5991 1.73793 90.0129 2.20689C89.8474 2.42758 89.7646 2.67586 89.7646 2.9793C89.7646 3.69655 90.3439 4.27586 91.0612 4.27586C91.8336 4.27586 92.3301 3.64138 92.3301 2.86897C92.3301 1.62759 90.9232 0 88.7439 0Z" fill="#232323" />
  <path d="M61.3247 5.2962C62.0419 5.2962 62.6213 4.71689 62.6213 3.99964C62.6213 3.94447 62.6213 3.88931 62.6213 3.83413C62.4557 2.34448 60.1109 0.0272353 57.104 0.0272353C53.7109 0.0272353 50.9523 2.75828 50.9523 6.09621C50.9523 9.46172 53.7109 12.1652 57.104 12.1652C59.4488 12.1652 61.4902 10.8686 62.5109 8.93758L61.1868 8.02724C60.3868 9.48931 58.8695 10.4824 57.104 10.4824C54.6488 10.4824 52.7178 8.49619 52.7178 6.06861C52.7178 3.64102 54.6488 1.65482 57.104 1.65482C58.4833 1.65482 59.6144 2.17897 60.3868 3.06172C60.1661 3.28241 60.0282 3.61344 60.0282 3.97207C60.0282 4.71689 60.6075 5.2962 61.3247 5.2962Z" fill="#232323" />
  <path d="M102.097 2.12436H103.476L100.524 9.76573L97.2966 2.15193H98.7035V0.469184H93.876V2.12436H95.5311L99.6691 12.0002L97.3794 17.9037H99.1449L105.241 2.15193H106.952V0.469184H102.097V2.12436Z" fill="#232323" />
  <path d="M19.8069 4.77241C19.8069 1.82068 17.8483 0 15.4207 0C13.5172 0 11.9448 1.37931 11.2552 2.75862C10.5931 1.02069 9.02069 0 7.22758 0C5.43448 0 3.88966 1.35173 3.42069 2.45518V0.468968H0V2.12414H1.76552V11.669H3.42069V4.96551C3.42069 4.1931 4.33104 1.46206 7.0069 1.46206C8.27586 1.46206 9.9862 2.59311 9.9862 4.93793V11.669H11.6414C11.6414 11.669 11.6414 5.07586 11.6414 4.93793C11.6414 4.16552 12.469 1.46206 15.2 1.46206C16.469 1.46206 18.1793 2.48276 18.1793 4.8V11.6414H21.6V10.0138H19.8345L19.8069 4.77241Z" fill="#232323" />
  <path d="M29.4613 0C26.0958 0 23.3924 2.67587 23.3924 6.04138C23.3924 6.15173 23.42 6.5931 23.42 6.67586C23.7234 9.73793 26.3441 12.1379 29.5165 12.1379C31.8613 12.1379 33.9027 10.8414 34.9234 8.91033L33.5993 7.99999C32.7993 9.46206 31.282 10.4552 29.5165 10.4552C27.2545 10.4552 25.3786 8.79999 25.0751 6.62068H35.2544C35.282 6.42758 35.282 6.20689 35.282 6.01378C35.3096 2.67586 32.8269 0 29.4613 0ZM25.1579 4.99311C25.6269 3.03449 27.3648 1.6 29.4613 1.6C31.5579 1.6 33.0752 3.06208 33.5441 4.99311H25.1579Z" fill="#232323" />
  <path d="M76.0557 0.469184H74.4005V7.11745C74.4005 8.63469 72.8281 10.6761 70.8143 10.6761C69.5453 10.6761 67.8626 9.48987 67.8626 7.31056V0.469184H64.4419V2.12436H66.2074V7.42091C66.2074 10.3726 68.166 12.1106 70.5936 12.1106C72.3039 12.1106 73.6281 11.0623 74.4005 9.95884V11.6968H77.8212V10.0416H76.0557V0.469184Z" fill="#232323" />
</svg>