<svg width="46" height="15" viewBox="0 0 46 15" fill="none" xmlns="http://www.w3.org/2000/svg">
  <path d="M10.2202 5.53512H7.07249C7.07249 5.01544 7.01192 4.66673 6.89077 4.48898C6.70355 4.22636 6.18681 4.09497 5.34055 4.09483C4.51887 4.09483 3.97484 4.17049 3.70846 4.32181C3.4427 4.47385 3.30975 4.80424 3.30962 5.31297C3.30962 5.7734 3.42756 6.07644 3.66345 6.22211C3.8327 6.32522 4.05641 6.38583 4.33456 6.40394L4.96922 6.44898C6.32982 6.53958 7.17943 6.60334 7.51805 6.64026C8.594 6.74939 9.37393 7.03722 9.85786 7.50374C10.2385 7.86777 10.4653 8.34345 10.5381 8.93077C10.5829 9.32619 10.6041 9.72397 10.6015 10.1219C10.6015 11.1406 10.5049 11.8862 10.3118 12.3587C9.96154 13.2261 9.17401 13.7745 7.94922 14.0041C7.4359 14.101 6.6511 14.1496 5.5948 14.1498C3.83198 14.1498 2.60378 14.0439 1.91019 13.8321C1.05909 13.5721 0.497745 13.0457 0.226169 12.2528C0.0747385 11.8111 -0.000649686 11.0756 4.2173e-06 10.0463H3.14736V10.3096C3.14736 10.8589 3.30409 11.2122 3.61755 11.3694C3.86399 11.4844 4.13261 11.5432 4.40425 11.5417H5.56156C6.15196 11.5417 6.52856 11.5111 6.69135 11.4501C6.98079 11.3358 7.1708 11.1513 7.26138 10.8965C7.31473 10.6981 7.33907 10.4929 7.33365 10.2874C7.33365 9.73064 7.13191 9.39157 6.72841 9.27022C6.57698 9.22228 5.87517 9.1557 4.62298 9.07047C3.61697 8.99819 2.91832 8.9284 2.52705 8.8611C1.4966 8.66716 0.810001 8.26762 0.467253 7.6625C0.165734 7.14794 0.0151472 6.36967 0.0154914 5.32768C0.0154914 4.53477 0.0968852 3.89903 0.259673 3.42046C0.42246 2.94189 0.684813 2.57848 1.04673 2.33022C1.57774 1.94859 2.2564 1.72453 3.08273 1.65803C3.77081 1.5977 4.53405 1.56728 5.37246 1.56676C6.69331 1.56676 7.63459 1.64281 8.19629 1.79492C9.56604 2.16523 10.2509 3.20251 10.2509 4.90677C10.2509 5.04652 10.2407 5.25605 10.2203 5.53538M24.0607 14.15V1.5H30.364C31.2285 1.5 31.8877 1.571 32.3415 1.713C33.3782 2.0397 34.0743 2.70884 34.4299 3.72043C34.6138 4.25143 34.7058 5.05068 34.706 6.11816C34.706 7.40134 34.6046 8.32354 34.4019 8.88474C33.9976 9.99479 33.1665 10.6333 31.9088 10.8002C31.7611 10.8252 31.1322 10.8469 30.0222 10.8652L29.4608 10.884H27.4439V14.15H24.0607ZM27.4441 7.94968H29.5533C30.222 7.92544 30.6293 7.87316 30.7751 7.79284C30.975 7.68224 31.1093 7.46036 31.1761 7.12834C31.2189 6.90741 31.2403 6.57855 31.2402 6.14174C31.2402 5.60665 31.1976 5.20977 31.1124 4.95109C30.9907 4.58802 30.6992 4.36661 30.2378 4.28684C30.1464 4.27479 29.9276 4.26861 29.5816 4.2683H27.4443L27.4441 7.94968ZM41.9277 11.9638H37.4042L36.7964 14.15H33.2963L37.0734 1.5H42.1768L46 14.15H42.5732L41.9277 11.9638ZM41.2559 9.49958L39.6705 4.01603L38.1321 9.49958H41.2559Z" fill="#10298E" />
  <path d="M19.3911 3.27981C20.0542 3.27949 20.709 3.42839 21.3076 3.71562C21.9061 4.00284 22.4333 4.42112 22.8504 4.93984L23.5797 3.36631C22.3888 2.23537 20.8121 1.60746 19.1747 1.61209C16.5088 1.61209 14.2284 3.23258 13.2928 5.52626H11.8706L11.0308 7.33778H12.8601C12.8456 7.50662 12.838 7.67584 12.8373 7.84544C12.8374 8.05103 12.8477 8.25647 12.8683 8.46101H11.9492L11.1095 10.273H13.3361C14.2985 12.5086 16.5504 14.0781 19.1744 14.0781C20.4431 14.0811 21.6842 13.7052 22.7404 12.998V10.7773C22.2877 11.2981 21.7213 11.7062 21.0855 11.9697C20.4498 12.2332 19.7621 12.3449 19.0762 12.296C18.3904 12.2472 17.7251 12.0391 17.1326 11.6881C16.5401 11.3371 16.0365 10.8528 15.6612 10.273H20.3233L21.1628 8.46101H14.9753C14.9206 8.08905 14.9118 7.71171 14.949 7.33757H21.6835L22.5229 5.52626H15.5308C15.9217 4.84371 16.4842 4.27674 17.1618 3.88236C17.8395 3.48798 18.6084 3.28009 19.3912 3.2796" fill="#FFBE00" />
  <path d="M19.3911 3.33399C20.0463 3.33338 20.6933 3.48037 21.2847 3.7642C21.876 4.04803 22.3968 4.46148 22.8086 4.97423L22.863 5.04177L22.8998 4.96296L23.629 3.38937L23.6452 3.35347L23.6172 3.32651C22.5453 2.31585 21.1649 1.70026 19.7009 1.58003C18.2369 1.45981 16.7755 1.84204 15.555 2.66445C14.5216 3.36006 13.7168 4.34901 13.243 5.50574L13.2928 5.47202H11.8359L11.8216 5.50319L10.9819 7.31508L10.9458 7.39243H12.8602L12.8064 7.33342C12.7919 7.50378 12.7843 7.67453 12.7836 7.84565C12.7836 8.04899 12.7939 8.25835 12.8146 8.46677L12.8684 8.40703H11.9151L11.9008 8.4382L11.0607 10.2501L11.025 10.3274H13.3363L13.2867 10.2947C14.2904 12.6259 16.6017 14.1324 19.1747 14.1324C20.4539 14.1358 21.7053 13.7569 22.7702 13.0436L22.7939 13.0277V10.6332L22.6995 10.7416C22.2523 11.256 21.6927 11.6591 21.0647 11.9193C20.4366 12.1796 19.7572 12.2899 19.0797 12.2416C18.4022 12.1934 17.745 11.9878 17.1597 11.6411C16.5744 11.2944 16.0768 10.816 15.706 10.2433L15.661 10.3276H20.3578L20.3722 10.2965L21.2118 8.48418L21.2479 8.40708H14.9751L15.0287 8.45384C14.9746 8.0862 14.9658 7.71324 15.0026 7.34344L14.9488 7.39233H21.718L21.7324 7.36116L22.5718 5.54938L22.6079 5.47202H15.5308L15.5772 5.55369C15.9649 4.88073 16.521 4.3217 17.1902 3.93225C17.8593 3.54281 18.6181 3.33655 19.3911 3.33399ZM15.5308 5.58065H22.5227L22.4736 5.5033L21.6344 7.31508L21.6833 7.28391H14.8999L14.8947 7.33305C14.8578 7.71157 14.8668 8.0932 14.9215 8.46953L14.9287 8.51628H21.1628L21.114 8.43872L20.2746 10.2505L20.3231 10.2193H15.5607L15.6158 10.3032C15.9958 10.8898 16.5056 11.3799 17.1053 11.735C17.705 12.0902 18.3783 12.3008 19.0724 12.3502C19.7665 12.3997 20.4626 12.2868 21.106 12.0202C21.7495 11.7537 22.3229 11.3408 22.7812 10.814L22.6864 10.7781V12.9987L22.7103 12.9539C21.6631 13.6549 20.4327 14.0275 19.1749 14.0243C16.6448 14.0243 14.3728 12.5433 13.3863 10.2518L13.372 10.2193H11.1098L11.1591 10.2972L11.9981 8.48407L11.949 8.51587H12.9284L12.9222 8.45566C12.9018 8.25087 12.8912 8.04525 12.8912 7.8456C12.8912 7.69214 12.8988 7.52735 12.914 7.34256L12.9188 7.28375H11.031L11.0796 7.36111L11.9192 5.54933L11.8706 5.5805H13.3287L13.3423 5.54678C13.8084 4.41 14.5995 3.43812 15.6153 2.75438C16.8155 1.94602 18.2523 1.57037 19.6918 1.68862C21.1312 1.80686 22.4885 2.41203 23.5426 3.40558L23.5306 3.34293L22.8018 4.91688L22.8928 4.90529C22.432 4.33327 21.8399 3.8827 21.1674 3.59252C20.4949 3.30233 19.7624 3.18124 19.033 3.23971C18.3036 3.29817 17.5993 3.53444 16.981 3.9281C16.3626 4.32176 15.8488 4.86098 15.4839 5.49919L15.4369 5.58086L15.5308 5.58065Z" fill="#10298E" />
</svg>
  