<svg width="98" height="27" viewBox="0 0 98 27" fill="none" xmlns="http://www.w3.org/2000/svg">
<path d="M16.94 6.1C18.3925 6.1 19.57 4.92251 19.57 3.47C19.57 2.01749 18.3925 0.839996 16.94 0.839996C15.4875 0.839996 14.31 2.01749 14.31 3.47C14.31 4.92251 15.4875 6.1 16.94 6.1Z" fill="#E40046"/>
<path d="M65.93 1.78H61.81C61.6388 1.78 61.5 1.91879 61.5 2.09V21.27C61.5 21.4412 61.6388 21.58 61.81 21.58H65.93C66.1012 21.58 66.24 21.4412 66.24 21.27V2.09C66.24 1.91879 66.1012 1.78 65.93 1.78Z" fill="#101F2B"/>
<path d="M7.95999 16.57C6.81999 16.2967 5.63999 16.0267 4.41999 15.76C0.289995 14.86 -0.150005 9.66 3.45999 7.8C6.53999 6.21334 9.72666 6.51334 13.02 8.7C13.08 8.74 13.1033 8.79667 13.09 8.87C12.79 9.99667 12.29 10.9967 11.59 11.87C11.5167 11.9567 11.4333 11.97 11.34 11.91C9.89333 10.8833 8.8 10.4067 8.06 10.48C4.41999 10.3992 4.46666 11.4733 7.95999 12.34C10.76 13.04 13.03 13.28 13.97 16.49C14.67 18.9 11.85 21.16 9.84999 21.65C6.80333 22.4033 3.72666 21.8233 0.619995 19.91C0.576168 19.8823 0.538834 19.8455 0.510544 19.8021C0.482255 19.7587 0.463677 19.7096 0.456081 19.6584C0.448485 19.6071 0.45205 19.5548 0.466533 19.505C0.481015 19.4552 0.506074 19.4092 0.539995 19.37C1.15999 18.65 1.65333 17.8433 2.01999 16.95C2.17333 16.5633 2.42666 16.4767 2.77999 16.69C5.07999 18.11 6.82999 18.64 8.02999 18.28C10.1433 17.6533 10.12 17.0833 7.95999 16.57Z" fill="#101F2B"/>
<path d="M26.14 8.51C28.83 6.38 31.71 6.01 34.12 8.67C34.36 8.93667 34.6267 8.97 34.92 8.77C36.04 8.03 37.13 7.1 38.49 6.89C41.68 6.38 43.8 8.23 43.76 11.46C43.7067 15.08 43.7 18.2767 43.74 21.05C43.7467 21.39 43.5767 21.56 43.23 21.56H39.78C39.42 21.56 39.24 21.3833 39.24 21.03L39.25 13C39.2567 11.8067 38.6633 11.15 37.47 11.03C37.17 10.9967 36.87 11.0167 36.57 11.09C35.2633 11.3967 34.61 12.2233 34.61 13.57L34.59 20.98C34.59 21.1321 34.5303 21.2781 34.4237 21.3866C34.3171 21.4951 34.1721 21.5574 34.02 21.56L30.48 21.61C30.2 21.61 30.06 21.4733 30.06 21.2V12.9C30.06 11.44 29.34 10.81 27.9 11.01L27.57 11.06C26.19 11.2533 25.5 12.0433 25.5 13.43V21.28C25.5 21.4667 25.4067 21.5633 25.22 21.57L21.35 21.61C21.0967 21.61 20.97 21.4833 20.97 21.23V7.77C20.97 7.35 21.1833 7.14334 21.61 7.15L24.84 7.19C25.3067 7.19667 25.5633 7.43 25.61 7.89C25.6167 7.99 25.61 8.08667 25.59 8.18C25.47 8.78667 25.6533 8.89667 26.14 8.51Z" fill="#101F2B"/>
<path d="M50.1 27H45.54L45.49 7.75C45.49 7.38333 45.67 7.2 46.03 7.2L49.35 7.15C49.71 7.14333 49.9967 7.29 50.21 7.59C50.2767 7.69 50.3167 7.80333 50.33 7.93C50.3967 8.50333 50.64 8.59667 51.06 8.21C54.24 5.3 58.72 7.25 60.2 10.91C61.65 14.53 60.81 19.72 56.92 21.43C54.7133 22.4033 52.6767 22.1 50.81 20.52C50.4633 20.22 50.2833 20.3 50.27 20.76L50.1 27ZM50.8 17.19C52.65 18.34 55.22 18.01 55.81 15.71C56.76 11.99 53.97 9.89 50.74 11.66C50.4067 11.84 50.24 12.12 50.24 12.5L50.25 16.2C50.25 16.6267 50.4333 16.9567 50.8 17.19Z" fill="#101F2B"/>
<path d="M71.92 16.49C73.6133 18.65 75.8267 18.8733 78.56 17.16C78.6312 17.1167 78.7161 17.1019 78.7977 17.1186C78.8793 17.1353 78.9516 17.1822 79 17.25L80.71 19.58C80.7394 19.6179 80.761 19.6612 80.7734 19.7076C80.7858 19.7539 80.7888 19.8022 80.7823 19.8497C80.7758 19.8972 80.7598 19.943 80.7354 19.9842C80.711 20.0255 80.6785 20.0614 80.64 20.09C76.37 23.34 69.42 22.46 67.34 17.07C64.45 9.58 74.02 3.44 79.76 8.98C81.3533 10.5267 82.12 12.6433 82.06 15.33C82.0467 15.7167 81.85 15.9067 81.47 15.9L72.23 15.85C71.6833 15.8433 71.58 16.0567 71.92 16.49ZM71.89 12.88L77.37 12.86C77.4071 12.86 77.4427 12.8453 77.469 12.819C77.4953 12.7927 77.51 12.7571 77.51 12.72V12.64C77.508 12.0999 77.2153 11.5829 76.696 11.2024C76.1768 10.8219 75.4733 10.6088 74.74 10.61H74.52C74.1556 10.6106 73.7948 10.6641 73.4582 10.7675C73.1217 10.8709 72.816 11.0222 72.5586 11.2126C72.3013 11.403 72.0974 11.6289 71.9587 11.8773C71.8199 12.1256 71.749 12.3916 71.75 12.66V12.74C71.75 12.7771 71.7648 12.8127 71.791 12.839C71.8173 12.8653 71.8529 12.88 71.89 12.88Z" fill="#101F2B"/>
<path d="M18.8474 7.15662L14.9674 7.16339C14.741 7.16379 14.5577 7.34767 14.5581 7.57411L14.5819 21.1741C14.5823 21.4005 14.7661 21.5838 14.9926 21.5834L18.8726 21.5766C19.099 21.5762 19.2823 21.3923 19.2819 21.1659L19.2581 7.5659C19.2577 7.33947 19.0738 7.15623 18.8474 7.15662Z" fill="#101F2B"/>
<path d="M88.89 10.71L91.15 7.28001C91.1778 7.23952 91.2152 7.2065 91.2588 7.18383C91.3024 7.16116 91.3509 7.14955 91.4 7.15001H95.76C95.8149 7.14949 95.8689 7.16405 95.9161 7.19211C95.9633 7.22016 96.0019 7.26063 96.0277 7.30911C96.0535 7.35759 96.0655 7.41221 96.0623 7.46703C96.0592 7.52185 96.0411 7.57477 96.01 7.62001L91.67 14.03C91.6356 14.08 91.6172 14.1393 91.6172 14.2C91.6172 14.2607 91.6356 14.32 91.67 14.37L96.28 21.15C96.3084 21.1951 96.3244 21.247 96.3261 21.3003C96.3278 21.3536 96.3153 21.4064 96.2898 21.4533C96.2644 21.5001 96.2269 21.5394 96.1812 21.5669C96.1355 21.5945 96.0833 21.6093 96.03 21.61L91.6 21.57C91.55 21.5694 91.5009 21.5562 91.4572 21.5318C91.4135 21.5073 91.3767 21.4723 91.35 21.43L88.91 17.64C88.8826 17.5988 88.8455 17.5649 88.8019 17.5415C88.7582 17.5181 88.7095 17.5058 88.66 17.5058C88.6105 17.5058 88.5618 17.5181 88.5181 17.5415C88.4745 17.5649 88.4374 17.5988 88.41 17.64L85.91 21.46C85.8833 21.5023 85.8465 21.5373 85.8028 21.5618C85.7591 21.5862 85.71 21.5994 85.66 21.6L81.26 21.56C81.2059 21.5587 81.1532 21.5429 81.1075 21.5141C81.0617 21.4853 81.0245 21.4447 80.9999 21.3965C80.9754 21.3484 80.9642 21.2945 80.9678 21.2405C80.9713 21.1865 80.9893 21.1345 81.02 21.09L85.58 14.4C85.6159 14.351 85.6361 14.2923 85.6378 14.2316C85.6396 14.1709 85.6229 14.111 85.59 14.06L81.22 7.62001C81.1889 7.57477 81.1708 7.52185 81.1677 7.46703C81.1645 7.41221 81.1765 7.35759 81.2023 7.30911C81.2281 7.26063 81.2667 7.22016 81.3139 7.19211C81.3611 7.16405 81.4151 7.14949 81.47 7.15001L85.9 7.17001C85.9491 7.16955 85.9976 7.18116 86.0412 7.20383C86.0848 7.2265 86.1222 7.25952 86.15 7.30001L88.39 10.71C88.4174 10.7513 88.4545 10.7851 88.4981 10.8085C88.5418 10.8319 88.5905 10.8442 88.64 10.8442C88.6895 10.8442 88.7382 10.8319 88.7819 10.8085C88.8255 10.7851 88.8626 10.7513 88.89 10.71Z" fill="#101F2B"/>
</svg>
