<svg width="34" height="15" viewBox="0 0 34 15" fill="none" xmlns="http://www.w3.org/2000/svg">
  <path d="M14.7332 13.3233H11.979L13.7017 2.69263H16.4558L14.7332 13.3233Z" fill="#00579F" />
  <path d="M24.7175 2.95259C24.1742 2.73749 23.3126 2.5 22.2471 2.5C19.5273 2.5 17.612 3.94751 17.6002 6.01701C17.5776 7.54388 18.9715 8.39194 20.014 8.90105C21.0796 9.42128 21.4418 9.76084 21.4418 10.2246C21.431 10.9367 20.5808 11.265 19.7878 11.265C18.6882 11.265 18.099 11.0958 17.2036 10.6995L16.841 10.5297L16.4556 12.916C17.1015 13.2098 18.2917 13.4704 19.5273 13.4818C22.4172 13.4818 24.2986 12.0567 24.3209 9.85133C24.3319 8.64116 23.5959 7.71389 22.009 6.95616C21.0457 6.46975 20.4558 6.14177 20.4558 5.64408C20.4671 5.19164 20.9548 4.72823 22.0422 4.72823C22.9375 4.70553 23.5954 4.92033 24.0938 5.13528L24.3429 5.24816L24.7175 2.95259Z" fill="#00579F" />
  <path d="M28.3784 9.55724C28.6052 8.94652 29.478 6.58286 29.478 6.58286C29.4666 6.60556 29.7044 5.96087 29.8404 5.5651L30.0329 6.4811C30.0329 6.4811 30.5544 9.02574 30.6677 9.55724C30.2372 9.55724 28.9224 9.55724 28.3784 9.55724ZM31.7781 2.69263H29.6478C28.9908 2.69263 28.4917 2.88473 28.2082 3.57466L24.1172 13.3232H27.0071C27.0071 13.3232 27.4829 12.0111 27.5851 11.7285C27.9022 11.7285 30.7135 11.7285 31.1213 11.7285C31.2004 12.1017 31.45 13.3232 31.45 13.3232H34.0001L31.7781 2.69263Z" fill="#00579F" />
  <path d="M9.67833 2.69263L6.98105 9.94174L6.6863 8.47154C6.18763 6.77511 4.62369 4.93198 2.87842 4.01553L5.34903 13.312H8.26154L12.5907 2.69263H9.67833Z" fill="#00579F" />
  <path d="M4.4766 2.69263H0.0453336L0 2.90742C3.45666 3.78961 5.74594 5.91607 6.6865 8.47199L5.7232 3.58623C5.56461 2.90727 5.07723 2.71502 4.4766 2.69263Z" fill="#FAA61A" />
</svg>
  