<svg width="150" height="45" viewBox="0 0 150 45" fill="none" xmlns="http://www.w3.org/2000/svg">
<path d="M144.663 44.4444H5.25444C2.35778 44.4444 0 42.08 0 39.1856V5.25111C0 2.35556 2.35778 0 5.25444 0H144.663C147.559 0 150 2.35556 150 5.25111V39.1856C150 42.08 147.559 44.4444 144.663 44.4444Z" fill="#A6A6A6"/>
<path d="M148.926 39.1861C148.926 41.5372 147.021 43.4416 144.666 43.4416H5.25579C2.90135 43.4416 0.990234 41.5372 0.990234 39.1861V5.24939C0.990234 2.89939 2.90135 0.988281 5.25579 0.988281H144.665C147.021 0.988281 148.925 2.89939 148.925 5.24939L148.926 39.1861Z" fill="black"/>
<path d="M33.4733 21.9829C33.441 18.4018 36.4055 16.6595 36.541 16.5784C34.8622 14.1307 32.2599 13.7962 31.3455 13.7695C29.1599 13.5395 27.0399 15.0773 25.9266 15.0773C24.791 15.0773 23.0766 13.7918 21.2288 13.8295C18.851 13.8662 16.6266 15.2429 15.4066 17.3807C12.8888 21.7395 14.7666 28.1451 17.1788 31.6684C18.3855 33.394 19.7955 35.3207 21.641 35.2529C23.4466 35.1784 24.121 34.1018 26.2999 34.1018C28.4588 34.1018 29.0922 35.2529 30.9744 35.2095C32.9122 35.1784 34.1322 33.4762 35.2966 31.7351C36.691 29.7573 37.251 27.8095 37.2733 27.7095C37.2277 27.694 33.5099 26.2751 33.4733 21.9829Z" fill="white"/>
<path d="M29.92 11.4515C30.8912 10.2371 31.5556 8.58487 31.3712 6.9082C29.9656 6.97043 28.2078 7.88043 27.1956 9.0682C26.3 10.1149 25.5 11.8304 25.7067 13.4438C27.2856 13.5615 28.9067 12.6471 29.92 11.4515Z" fill="white"/>
<path d="M59.6044 35.0044H57.0811L55.6989 30.6611H50.8944L49.5778 35.0044H47.1211L51.8811 20.2178H54.8211L59.6044 35.0044ZM55.2822 28.8389L54.0322 24.9778C53.9 24.5833 53.6522 23.6544 53.2866 22.1922H53.2422C53.0966 22.8211 52.8622 23.75 52.54 24.9778L51.3122 28.8389H55.2822Z" fill="white"/>
<path d="M71.8479 29.5419C71.8479 31.3553 71.3579 32.7886 70.3779 33.8408C69.5001 34.7775 68.4101 35.2453 67.109 35.2453C65.7045 35.2453 64.6956 34.7408 64.0812 33.7319H64.0367V39.3486H61.6679V27.8519C61.6679 26.7119 61.6379 25.5419 61.5801 24.3419H63.6634L63.7956 26.0319H63.8401C64.6301 24.7586 65.829 24.123 67.4379 24.123C68.6956 24.123 69.7456 24.6197 70.5856 25.6142C71.4279 26.6097 71.8479 27.9186 71.8479 29.5419ZM69.4345 29.6286C69.4345 28.5908 69.2012 27.7353 68.7323 27.0619C68.2201 26.3597 67.5323 26.0086 66.6701 26.0086C66.0856 26.0086 65.5545 26.2042 65.0801 26.5897C64.6045 26.9786 64.2934 27.4864 64.1479 28.1153C64.0745 28.4086 64.0379 28.6486 64.0379 28.8375V30.6153C64.0379 31.3908 64.2756 32.0453 64.7512 32.5797C65.2267 33.1142 65.8445 33.3808 66.6045 33.3808C67.4967 33.3808 68.1912 33.0364 68.6879 32.3497C69.1856 31.6619 69.4345 30.7553 69.4345 29.6286Z" fill="white"/>
<path d="M84.1104 29.5419C84.1104 31.3553 83.6204 32.7886 82.6393 33.8408C81.7626 34.7775 80.6726 35.2453 79.3715 35.2453C77.9671 35.2453 76.9582 34.7408 76.3449 33.7319H76.3004V39.3486H73.9315V27.8519C73.9315 26.7119 73.9015 25.5419 73.8438 24.3419H75.9271L76.0593 26.0319H76.1037C76.8926 24.7586 78.0915 24.123 79.7015 24.123C80.9582 24.123 82.0082 24.6197 82.8504 25.6142C83.6893 26.6097 84.1104 27.9186 84.1104 29.5419ZM81.6971 29.6286C81.6971 28.5908 81.4626 27.7353 80.9937 27.0619C80.4815 26.3597 79.796 26.0086 78.9326 26.0086C78.3471 26.0086 77.8171 26.2042 77.3415 26.5897C76.866 26.9786 76.556 27.4864 76.4104 28.1153C76.3382 28.4086 76.3004 28.6486 76.3004 28.8375V30.6153C76.3004 31.3908 76.5382 32.0453 77.0115 32.5797C77.4871 33.113 78.1049 33.3808 78.8671 33.3808C79.7593 33.3808 80.4538 33.0364 80.9504 32.3497C81.4482 31.6619 81.6971 30.7553 81.6971 29.6286Z" fill="white"/>
<path d="M97.8218 30.8576C97.8218 32.1154 97.3851 33.1388 96.5084 33.9288C95.5451 34.7921 94.204 35.2232 92.4807 35.2232C90.8896 35.2232 89.614 34.9165 88.6484 34.3021L89.1973 32.3276C90.2373 32.9565 91.3784 33.2721 92.6218 33.2721C93.514 33.2721 94.2084 33.0699 94.7073 32.6676C95.204 32.2654 95.4518 31.7254 95.4518 31.0521C95.4518 30.4521 95.2473 29.9465 94.8373 29.5365C94.4295 29.1265 93.7484 28.7454 92.7973 28.3932C90.2084 27.4276 88.9151 26.0132 88.9151 24.1532C88.9151 22.9376 89.3684 21.941 90.2762 21.1654C91.1807 20.3888 92.3873 20.001 93.8962 20.001C95.2418 20.001 96.3596 20.2354 97.2518 20.7032L96.6595 22.6343C95.8262 22.181 94.884 21.9543 93.8296 21.9543C92.9962 21.9543 92.3451 22.1599 91.8784 22.5688C91.484 22.9343 91.2862 23.3799 91.2862 23.9076C91.2862 24.4921 91.5118 24.9754 91.9651 25.3554C92.3595 25.7065 93.0762 26.0865 94.1162 26.4965C95.3884 27.0088 96.3229 27.6076 96.924 28.2943C97.5229 28.9788 97.8218 29.8354 97.8218 30.8576Z" fill="white"/>
<path d="M105.653 26.119H103.042V31.2957C103.042 32.6123 103.502 33.2701 104.425 33.2701C104.848 33.2701 105.199 33.2335 105.477 33.1601L105.542 34.959C105.076 35.1335 104.461 35.2212 103.7 35.2212C102.765 35.2212 102.033 34.9357 101.506 34.3657C100.98 33.7946 100.716 32.8368 100.716 31.4912V26.1168H99.1602V24.339H100.716V22.3868L103.042 21.6846V24.339H105.653V26.119Z" fill="white"/>
<path d="M117.436 29.5851C117.436 31.224 116.967 32.5696 116.031 33.6218C115.05 34.7051 113.748 35.2451 112.124 35.2451C110.56 35.2451 109.314 34.7262 108.386 33.6885C107.457 32.6507 106.992 31.3407 106.992 29.7618C106.992 28.1096 107.47 26.7562 108.429 25.704C109.386 24.6507 110.677 24.124 112.3 24.124C113.864 24.124 115.123 24.6429 116.073 25.6818C116.982 26.6896 117.436 27.9907 117.436 29.5851ZM114.978 29.6618C114.978 28.6785 114.768 27.8351 114.342 27.1318C113.846 26.2807 113.136 25.8562 112.216 25.8562C111.263 25.8562 110.54 26.2818 110.043 27.1318C109.618 27.8362 109.408 28.6929 109.408 29.7062C109.408 30.6896 109.618 31.5329 110.043 32.2351C110.556 33.0862 111.271 33.5107 112.194 33.5107C113.099 33.5107 113.809 33.0774 114.321 32.2129C114.758 31.4962 114.978 30.644 114.978 29.6618Z" fill="white"/>
<path d="M125.134 26.4253C124.9 26.3819 124.65 26.3597 124.387 26.3597C123.554 26.3597 122.91 26.6742 122.456 27.3042C122.062 27.8597 121.864 28.5619 121.864 29.4097V35.0042H119.496L119.519 27.6997C119.519 26.4708 119.489 25.3519 119.43 24.343H121.493L121.58 26.383H121.645C121.895 25.6819 122.29 25.1175 122.83 24.6942C123.357 24.313 123.927 24.123 124.542 24.123C124.761 24.123 124.959 24.1386 125.134 24.1664V26.4253Z" fill="white"/>
<path d="M135.729 29.1691C135.729 29.5935 135.702 29.9513 135.643 30.2435H128.536C128.564 31.2968 128.907 32.1024 129.567 32.658C130.166 33.1546 130.941 33.4035 131.892 33.4035C132.944 33.4035 133.904 33.2357 134.767 32.8991L135.138 34.5435C134.129 34.9835 132.938 35.2024 131.564 35.2024C129.911 35.2024 128.613 34.7157 127.668 33.7435C126.726 32.7713 126.254 31.4657 126.254 29.828C126.254 28.2202 126.693 26.8813 127.572 25.8135C128.492 24.6735 129.735 24.1035 131.299 24.1035C132.836 24.1035 133.999 24.6735 134.789 25.8135C135.415 26.7191 135.729 27.8391 135.729 29.1691ZM133.471 28.5546C133.486 27.8524 133.332 27.2457 133.011 26.7335C132.601 26.0746 131.971 25.7457 131.123 25.7457C130.348 25.7457 129.718 26.0668 129.237 26.7113C128.843 27.2235 128.608 27.838 128.536 28.5535L133.471 28.5546Z" fill="white"/>
<path d="M54.5004 11.1209C54.5004 12.4287 54.1082 13.4131 53.3249 14.0742C52.5993 14.6842 51.5682 14.9898 50.2326 14.9898C49.5704 14.9898 49.0037 14.9609 48.5293 14.9031V7.75756C49.1482 7.65756 49.8149 7.60645 50.5349 7.60645C51.8071 7.60645 52.766 7.88311 53.4126 8.43644C54.1371 9.062 54.5004 9.95644 54.5004 11.1209ZM53.2726 11.1531C53.2726 10.3053 53.0482 9.65533 52.5993 9.202C52.1504 8.74978 51.4949 8.52311 50.6315 8.52311C50.2649 8.52311 49.9526 8.54756 49.6937 8.59867V14.0309C49.8371 14.0531 50.0993 14.0631 50.4804 14.0631C51.3715 14.0631 52.0593 13.8153 52.5437 13.3198C53.0282 12.8242 53.2726 12.102 53.2726 11.1531Z" fill="white"/>
<path d="M61.0089 12.2633C61.0089 13.0688 60.7789 13.7288 60.3189 14.2466C59.8367 14.7788 59.1978 15.0444 58.4 15.0444C57.6311 15.0444 57.0189 14.7899 56.5622 14.2788C56.1067 13.7688 55.8789 13.1255 55.8789 12.3499C55.8789 11.5388 56.1133 10.8733 56.5845 10.3566C57.0556 9.83994 57.6889 9.58105 58.4867 9.58105C59.2556 9.58105 59.8733 9.8355 60.3411 10.3455C60.7856 10.8411 61.0089 11.4811 61.0089 12.2633ZM59.8011 12.3011C59.8011 11.8177 59.6967 11.4033 59.4889 11.0577C59.2445 10.6399 58.8967 10.4311 58.4445 10.4311C57.9767 10.4311 57.6211 10.6399 57.3767 11.0577C57.1678 11.4033 57.0645 11.8244 57.0645 12.3222C57.0645 12.8055 57.1689 13.2199 57.3767 13.5655C57.6289 13.9833 57.98 14.1922 58.4334 14.1922C58.8778 14.1922 59.2267 13.9799 59.4778 13.5544C59.6933 13.2022 59.8011 12.7844 59.8011 12.3011Z" fill="white"/>
<path d="M69.7393 9.6875L68.1004 14.9253H67.0337L66.3548 12.6508C66.1826 12.0831 66.0426 11.5186 65.9337 10.9586H65.9126C65.8115 11.5342 65.6715 12.0975 65.4915 12.6508L64.7704 14.9253H63.6915L62.1504 9.6875H63.3471L63.9393 12.1775C64.0826 12.7664 64.2004 13.3275 64.2948 13.8586H64.3159C64.4026 13.4208 64.5459 12.8631 64.7482 12.1886L65.4915 9.68861H66.4404L67.1526 12.1353C67.3248 12.7319 67.4648 13.3064 67.5726 13.8597H67.6048C67.6837 13.3208 67.8026 12.7464 67.9604 12.1353L68.5959 9.68861H69.7393V9.6875Z" fill="white"/>
<path d="M75.7767 14.9259H74.6122V11.9259C74.6122 11.0015 74.2611 10.5392 73.5567 10.5392C73.2111 10.5392 72.9322 10.6659 72.7155 10.9203C72.5011 11.1748 72.3922 11.4748 72.3922 11.8181V14.9248H71.2278V11.1848C71.2278 10.7248 71.2133 10.2259 71.1855 9.6859H72.2089L72.2633 10.5048H72.2955C72.4311 10.2503 72.6333 10.0403 72.8989 9.87257C73.2144 9.67701 73.5678 9.57812 73.9544 9.57812C74.4433 9.57812 74.85 9.7359 75.1733 10.0526C75.5755 10.4403 75.7767 11.0192 75.7767 11.7881V14.9259Z" fill="white"/>
<path d="M78.9856 14.9253H77.8223V7.28418H78.9856V14.9253Z" fill="white"/>
<path d="M85.8409 12.2633C85.8409 13.0688 85.6109 13.7288 85.1509 14.2466C84.6687 14.7788 84.0287 15.0444 83.2321 15.0444C82.4621 15.0444 81.8498 14.7899 81.3943 14.2788C80.9387 13.7688 80.7109 13.1255 80.7109 12.3499C80.7109 11.5388 80.9454 10.8733 81.4165 10.3566C81.8876 9.83994 82.5209 9.58105 83.3176 9.58105C84.0876 9.58105 84.7043 9.8355 85.1732 10.3455C85.6176 10.8411 85.8409 11.4811 85.8409 12.2633ZM84.632 12.3011C84.632 11.8177 84.5276 11.4033 84.3198 11.0577C84.0765 10.6399 83.7276 10.4311 83.2765 10.4311C82.8076 10.4311 82.452 10.6399 82.2087 11.0577C81.9998 11.4033 81.8965 11.8244 81.8965 12.3222C81.8965 12.8055 82.0009 13.2199 82.2087 13.5655C82.4609 13.9833 82.8121 14.1922 83.2654 14.1922C83.7098 14.1922 84.0576 13.9799 84.3087 13.5544C84.5254 13.2022 84.632 12.7844 84.632 12.3011Z" fill="white"/>
<path d="M91.4758 14.9255H90.4302L90.3436 14.3222H90.3113C89.9536 14.8033 89.4436 15.0444 88.7813 15.0444C88.2869 15.0444 87.8869 14.8855 87.5858 14.5699C87.3125 14.2833 87.1758 13.9266 87.1758 13.5033C87.1758 12.8633 87.4424 12.3755 87.9791 12.0377C88.5147 11.6999 89.268 11.5344 90.238 11.5422V11.4444C90.238 10.7544 89.8758 10.4099 89.1502 10.4099C88.6336 10.4099 88.178 10.5399 87.7847 10.7977L87.548 10.0333C88.0347 9.73217 88.6358 9.58105 89.3447 9.58105C90.7136 9.58105 91.4002 10.3033 91.4002 11.7477V13.6766C91.4002 14.1999 91.4258 14.6166 91.4758 14.9255ZM90.2669 13.1255V12.3177C88.9824 12.2955 88.3402 12.6477 88.3402 13.3733C88.3402 13.6466 88.4136 13.8511 88.5636 13.9877C88.7136 14.1244 88.9047 14.1922 89.1324 14.1922C89.388 14.1922 89.6269 14.1111 89.8447 13.9499C90.0636 13.7877 90.198 13.5822 90.248 13.3299C90.2602 13.2733 90.2669 13.2044 90.2669 13.1255Z" fill="white"/>
<path d="M98.0938 14.9253H97.0604L97.006 14.0842H96.9737C96.6437 14.7242 96.0815 15.0442 95.2915 15.0442C94.6604 15.0442 94.1349 14.7964 93.7182 14.3008C93.3015 13.8053 93.0938 13.162 93.0938 12.372C93.0938 11.5242 93.3193 10.8375 93.7726 10.3131C94.2115 9.82418 94.7493 9.57973 95.3893 9.57973C96.0926 9.57973 96.5849 9.8164 96.8649 10.2908H96.8871V7.28418H98.0526V13.5142C98.0526 14.0242 98.066 14.4942 98.0938 14.9253ZM96.8871 12.7164V11.8431C96.8871 11.692 96.876 11.5697 96.8549 11.4764C96.7893 11.1964 96.6482 10.9608 96.4337 10.7708C96.2171 10.5808 95.956 10.4853 95.6549 10.4853C95.2204 10.4853 94.8804 10.6575 94.6304 11.0031C94.3826 11.3486 94.2571 11.7897 94.2571 12.3286C94.2571 12.8464 94.376 13.2664 94.6149 13.5897C94.8671 13.9342 95.2071 14.1064 95.6326 14.1064C96.0149 14.1064 96.3204 13.9631 96.5526 13.6753C96.7771 13.4097 96.8871 13.0897 96.8871 12.7164Z" fill="white"/>
<path d="M108.054 12.2633C108.054 13.0688 107.824 13.7288 107.364 14.2466C106.882 14.7788 106.244 15.0444 105.445 15.0444C104.677 15.0444 104.065 14.7899 103.607 14.2788C103.152 13.7688 102.924 13.1255 102.924 12.3499C102.924 11.5388 103.158 10.8733 103.629 10.3566C104.1 9.83994 104.734 9.58105 105.533 9.58105C106.3 9.58105 106.919 9.8355 107.386 10.3455C107.831 10.8411 108.054 11.4811 108.054 12.2633ZM106.847 12.3011C106.847 11.8177 106.743 11.4033 106.535 11.0577C106.289 10.6399 105.943 10.4311 105.489 10.4311C105.023 10.4311 104.667 10.6399 104.422 11.0577C104.213 11.4033 104.109 11.8244 104.109 12.3222C104.109 12.8055 104.214 13.2199 104.422 13.5655C104.674 13.9833 105.025 14.1922 105.478 14.1922C105.923 14.1922 106.273 13.9799 106.524 13.5544C106.738 13.2022 106.847 12.7844 106.847 12.3011Z" fill="white"/>
<path d="M114.315 14.9259H113.151V11.9259C113.151 11.0015 112.8 10.5392 112.095 10.5392C111.749 10.5392 111.47 10.6659 111.255 10.9203C111.039 11.1748 110.931 11.4748 110.931 11.8181V14.9248H109.766V11.1848C109.766 10.7248 109.752 10.2259 109.725 9.6859H110.747L110.801 10.5048H110.833C110.97 10.2503 111.172 10.0403 111.437 9.87257C111.753 9.67701 112.106 9.57812 112.494 9.57812C112.981 9.57812 113.388 9.7359 113.711 10.0526C114.115 10.4403 114.315 11.0192 114.315 11.7881V14.9259Z" fill="white"/>
<path d="M122.151 10.5595H120.869V13.1039C120.869 13.7506 121.096 14.0739 121.548 14.0739C121.756 14.0739 121.93 14.0561 122.066 14.0195L122.096 14.9028C121.866 14.9895 121.564 15.0328 121.192 15.0328C120.732 15.0328 120.374 14.8928 120.115 14.6128C119.855 14.3328 119.726 13.8617 119.726 13.2006V10.5595H118.961V9.68726H119.726V8.72726L120.868 8.38281V9.68615H122.15L122.151 10.5595Z" fill="white"/>
<path d="M128.316 14.9253H127.151V11.9475C127.151 11.0086 126.8 10.5386 126.096 10.5386C125.556 10.5386 125.188 10.8108 124.985 11.3553C124.951 11.4697 124.931 11.6097 124.931 11.7742V14.9242H123.768V7.28418H124.931V10.4408H124.953C125.32 9.8664 125.845 9.57973 126.526 9.57973C127.009 9.57973 127.408 9.73751 127.724 10.0542C128.119 10.4486 128.316 11.0353 128.316 11.8108V14.9253Z" fill="white"/>
<path d="M134.674 12.0581C134.674 12.267 134.659 12.4425 134.631 12.5859H131.139C131.154 13.1036 131.321 13.4981 131.644 13.7714C131.94 14.0159 132.321 14.1381 132.788 14.1381C133.304 14.1381 133.775 14.0559 134.2 13.8903L134.382 14.6992C133.885 14.9148 133.301 15.0225 132.624 15.0225C131.813 15.0225 131.174 14.7836 130.712 14.3059C130.248 13.8281 130.018 13.187 130.018 12.3825C130.018 11.5925 130.232 10.9348 130.664 10.4103C131.115 9.85031 131.725 9.57031 132.495 9.57031C133.249 9.57031 133.821 9.85031 134.208 10.4103C134.52 10.8548 134.674 11.4048 134.674 12.0581ZM133.563 11.757C133.572 11.4114 133.495 11.1136 133.338 10.8625C133.135 10.5392 132.828 10.377 132.411 10.377C132.031 10.377 131.721 10.5348 131.484 10.8514C131.291 11.1036 131.176 11.4048 131.139 11.757H133.563Z" fill="white"/>
</svg>
