<svg width="25" height="27" viewBox="0 0 25 27" fill="none" xmlns="http://www.w3.org/2000/svg">
<path d="M2.62891 20.9336C1.5625 20.3242 0.988281 19.7031 0.988281 18.0273V8.74609C0.988281 7.52734 1.43359 6.76562 2.42969 6.20312L10.7148 1.49219C12.1328 0.683594 13.5039 0.683594 14.9219 1.49219L23.2188 6.20312C24.2031 6.76562 24.6484 7.52734 24.6484 8.74609V18.0273C24.6484 19.7031 24.0859 20.3242 23.0078 20.9336L13.7969 26.1602C13.1289 26.5352 12.5078 26.5352 11.8516 26.1602L2.62891 20.9336ZM18.332 9.57812L21.8711 7.57422L14.1484 3.16797C13.2344 2.64062 12.4023 2.65234 11.5 3.16797L9.25 4.44531L18.332 9.57812ZM12.8242 12.6953L16.4453 10.6445L7.39844 5.5L3.77734 7.57422L12.8242 12.6953ZM3.68359 19.3867L11.8984 24.0625V14.3359L2.76953 9.12109V17.9688C2.76953 18.6133 3.00391 19.0117 3.68359 19.3867ZM21.9648 19.3867C22.6328 19.0117 22.8672 18.6133 22.8672 17.9688V9.12109L13.7383 14.3359V24.0625L21.9648 19.3867Z" fill="white"/>
</svg>
