<svg width="36" height="33" viewBox="0 0 36 33" fill="none" xmlns="http://www.w3.org/2000/svg">
<path d="M12.8906 16.7188C12.8906 6.875 15.625 0.921875 22.1719 0.921875H28.3906C32.9531 0.921875 36 7.23438 36 16.7188C36 26.1875 32.9531 32.5156 28.3906 32.5156H22.1719C15.625 32.5156 12.8906 26.5469 12.8906 16.7188ZM19.25 22.7344C18.6875 22.7344 18.2188 22.2812 18.2188 21.7188C18.2188 21.1562 18.6875 20.6875 19.25 20.6875H20.9844C20.8906 19.6875 20.8281 18.6406 20.7969 17.5469H18.8438C18.2812 17.5469 17.8281 17.0938 17.8281 16.5312C17.8281 15.9688 18.2812 15.5 18.8438 15.5H20.8125C20.8438 14.4062 20.9219 13.3594 21.0312 12.375H19.25C18.6875 12.375 18.2188 11.9062 18.2188 11.3438C18.2188 10.7812 18.6875 10.3281 19.25 10.3281H21.3281C21.5 9.34375 21.7344 8.42188 21.9844 7.57812H20.3125C19.75 7.57812 19.2812 7.125 19.2812 6.5625C19.2812 6 19.75 5.53125 20.3125 5.53125H22.7656C23.125 4.73438 23.5312 4.03125 23.9688 3.4375H22.1719C17.2031 3.4375 15.4062 8.45312 15.4062 16.7188C15.4062 24.9844 17.2031 30 22.1719 30H23.9688C23.4531 29.2969 23 28.4688 22.5938 27.5312H20.3125C19.75 27.5312 19.2812 27.0625 19.2812 26.5C19.2812 25.9375 19.75 25.4844 20.3125 25.4844H21.875C21.625 24.625 21.4219 23.7188 21.2656 22.7344H19.25ZM23.3125 16.7188C23.3125 24.6719 25.3594 30 28.3906 30C31.4219 30 33.4844 24.6719 33.4844 16.7188C33.4844 8.75 31.4219 3.4375 28.3906 3.4375C25.3594 3.4375 23.3125 8.75 23.3125 16.7188ZM1.70312 23.875L3.89062 23.0781C3.25 20.5312 2.89062 17.7656 2.89062 14.9531C2.89062 11.3281 3.48438 7.82812 4.51562 4.71875C4.70312 4.15625 5.20312 3.9375 5.67188 3.9375C6.39062 3.9375 7.09375 4.54688 6.75 5.5C5.78125 8.35938 5.25 11.5938 5.25 14.9531C5.25 17.5 5.5625 19.9688 6.125 22.2656L8.42188 21.4375C9.4375 21.0625 10.1875 22.0625 9.90625 22.9062L8.07812 28.3594C7.84375 29.0938 7.09375 29.375 6.42188 28.9688L1.5 25.9219C0.734375 25.4531 0.75 24.2344 1.70312 23.875Z" fill="white"/>
</svg>
