<svg width="28" height="25" viewBox="0 0 28 25" fill="none" xmlns="http://www.w3.org/2000/svg">
<path d="M1.92969 10.2773H3.58203C4.66016 4.79297 9.55859 0.585938 15.3242 0.585938C21.8516 0.585938 27.2773 6 27.2773 12.5391C27.2773 19.0664 21.8516 24.4922 15.3242 24.4922C11.375 24.4922 7.88281 22.4766 5.65625 19.4883C5.25781 18.9727 5.38672 18.3281 5.85547 18.0352C6.34766 17.7422 6.89844 17.8945 7.26172 18.375C9.05469 20.8711 11.9844 22.4883 15.3242 22.5C20.8555 22.5234 25.2852 18.0703 25.2852 12.5391C25.2852 7.00781 20.8555 2.58984 15.3242 2.58984C10.5664 2.58984 6.62891 5.84766 5.60938 10.2773H7.30859C8.14062 10.2773 8.35156 10.8516 7.90625 11.4961L5.28125 15.2344C4.90625 15.7617 4.34375 15.7734 3.95703 15.2344L1.33203 11.5078C0.875 10.8516 1.08594 10.2773 1.92969 10.2773ZM15.3242 19.2305C15.0078 19.2305 14.7617 19.0078 14.7617 18.6797V17.8359C13.2031 17.6836 11.8906 16.8164 11.5508 15.4688C11.5273 15.3516 11.5039 15.2344 11.5039 15.1055C11.5039 14.6953 11.7852 14.4141 12.1836 14.4141C12.5234 14.4141 12.7695 14.6016 12.8984 15C13.0977 15.7852 13.707 16.3711 14.7617 16.5234V13.0547L14.6797 13.0312C12.7344 12.5742 11.7266 11.6836 11.7266 10.1953C11.7266 8.60156 12.9922 7.48828 14.7617 7.28906V6.48047C14.7617 6.15234 14.9961 5.92969 15.3242 5.92969C15.6406 5.92969 15.875 6.15234 15.875 6.48047V7.28906C17.375 7.46484 18.5703 8.33203 18.8867 9.59766C18.9102 9.72656 18.9336 9.84375 18.9336 9.96094C18.9336 10.3711 18.6523 10.6523 18.2539 10.6523C17.8672 10.6523 17.6562 10.4297 17.5273 10.0781C17.293 9.29297 16.707 8.78906 15.875 8.63672V11.9062L16.0391 11.9414C18.0664 12.3047 19.1094 13.2656 19.1094 14.8594C19.1094 16.6289 17.6914 17.6836 15.875 17.8594V18.6797C15.875 19.0078 15.6406 19.2305 15.3242 19.2305ZM14.7617 11.6133V8.63672C13.7773 8.8125 13.168 9.41016 13.168 10.125C13.168 10.8164 13.6367 11.2852 14.6797 11.5898L14.7617 11.6133ZM15.875 13.3359V16.5234C17.0703 16.3828 17.6562 15.7617 17.6562 14.9414C17.6562 14.1914 17.2578 13.7109 16.1328 13.3945L15.875 13.3359Z" fill="white"/>
</svg>
