<svg width="28" height="25" viewBox="0 0 28 25" fill="none" xmlns="http://www.w3.org/2000/svg">
<path d="M9.94141 12.5391C9.94141 5.15625 11.9922 0.691406 16.9023 0.691406H21.5664C24.9883 0.691406 27.2734 5.42578 27.2734 12.5391C27.2734 19.6406 24.9883 24.3867 21.5664 24.3867H16.9023C11.9922 24.3867 9.94141 19.9102 9.94141 12.5391ZM14.7109 17.0508C14.2891 17.0508 13.9375 16.7109 13.9375 16.2891C13.9375 15.8672 14.2891 15.5156 14.7109 15.5156H16.0117C15.9414 14.7656 15.8945 13.9805 15.8711 13.1602H14.4062C13.9844 13.1602 13.6445 12.8203 13.6445 12.3984C13.6445 11.9766 13.9844 11.625 14.4062 11.625H15.8828C15.9062 10.8047 15.9648 10.0195 16.0469 9.28125H14.7109C14.2891 9.28125 13.9375 8.92969 13.9375 8.50781C13.9375 8.08594 14.2891 7.74609 14.7109 7.74609H16.2695C16.3984 7.00781 16.5742 6.31641 16.7617 5.68359H15.5078C15.0859 5.68359 14.7344 5.34375 14.7344 4.92188C14.7344 4.5 15.0859 4.14844 15.5078 4.14844H17.3477C17.6172 3.55078 17.9219 3.02344 18.25 2.57812H16.9023C13.1758 2.57812 11.8281 6.33984 11.8281 12.5391C11.8281 18.7383 13.1758 22.5 16.9023 22.5H18.25C17.8633 21.9727 17.5234 21.3516 17.2188 20.6484H15.5078C15.0859 20.6484 14.7344 20.2969 14.7344 19.875C14.7344 19.4531 15.0859 19.1133 15.5078 19.1133H16.6797C16.4922 18.4688 16.3398 17.7891 16.2227 17.0508H14.7109ZM17.7578 12.5391C17.7578 18.5039 19.293 22.5 21.5664 22.5C23.8398 22.5 25.3867 18.5039 25.3867 12.5391C25.3867 6.5625 23.8398 2.57812 21.5664 2.57812C19.293 2.57812 17.7578 6.5625 17.7578 12.5391ZM1.55078 17.9062L3.19141 17.3086C2.71094 15.3984 2.44141 13.3242 2.44141 11.2148C2.44141 8.49609 2.88672 5.87109 3.66016 3.53906C3.80078 3.11719 4.17578 2.95312 4.52734 2.95312C5.06641 2.95312 5.59375 3.41016 5.33594 4.125C4.60938 6.26953 4.21094 8.69531 4.21094 11.2148C4.21094 13.125 4.44531 14.9766 4.86719 16.6992L6.58984 16.0781C7.35156 15.7969 7.91406 16.5469 7.70312 17.1797L6.33203 21.2695C6.15625 21.8203 5.59375 22.0312 5.08984 21.7266L1.39844 19.4414C0.824219 19.0898 0.835938 18.1758 1.55078 17.9062Z" fill="white"/>
</svg>
