<svg width="31" height="25" viewBox="0 0 31 25" fill="none" xmlns="http://www.w3.org/2000/svg">
<path d="M4.66797 18.9844C2.20703 18.9844 0.988281 17.7773 0.988281 15.3516V4.30078C0.988281 1.88672 2.20703 0.667969 4.66797 0.667969H20.6758C23.1133 0.667969 24.3555 1.88672 24.3555 4.30078V6.09375H26.4648C28.9023 6.09375 30.1445 7.3125 30.1445 9.72656V20.7773C30.1445 23.1914 28.9023 24.4102 26.4648 24.4102H10.457C7.99609 24.4102 6.77734 23.2031 6.77734 20.7773V18.9844H4.66797ZM4.69141 17.0977H6.77734V9.72656C6.77734 7.3125 7.99609 6.09375 10.457 6.09375H22.4688V4.40625C22.4688 3.1875 21.8008 2.55469 20.6406 2.55469H4.69141C3.51953 2.55469 2.875 3.1875 2.875 4.40625V15.2578C2.875 16.4766 3.51953 17.0977 4.69141 17.0977ZM10.4922 10.1016C11.0664 10.1016 11.5352 9.59766 11.5352 9.05859C11.5352 8.49609 11.0664 8.00391 10.4922 8.00391C9.91797 8.00391 9.44922 8.49609 9.44922 9.05859C9.44922 9.59766 9.91797 10.1016 10.4922 10.1016ZM13.8555 10.1016C14.4297 10.1016 14.8984 9.60938 14.8984 9.05859C14.8984 8.49609 14.4297 8.00391 13.8555 8.00391C13.2812 8.00391 12.8125 8.49609 12.8125 9.05859C12.8125 9.60938 13.2812 10.1016 13.8555 10.1016ZM17.2188 10.1016C17.793 10.1016 18.2617 9.60938 18.2617 9.05859C18.2617 8.49609 17.793 8.00391 17.2188 8.00391C16.6445 8.00391 16.1758 8.49609 16.1758 9.05859C16.1758 9.60938 16.6445 10.1016 17.2188 10.1016ZM8.66406 12.0117V20.6836C8.66406 21.9023 9.30859 22.5234 10.4805 22.5234H26.4297C27.5898 22.5234 28.2578 21.9023 28.2578 20.6836V12.0117H8.66406Z" fill="white"/>
</svg>
