<svg width="34" height="25" viewBox="0 0 34 25" fill="none" xmlns="http://www.w3.org/2000/svg">
<path d="M15.3789 23.8594C14.8281 23.8594 14.3711 23.4023 14.3711 22.8516C14.3711 22.6875 14.4062 22.5234 14.4766 22.3945C11.3359 20.2266 9.23828 16.5938 9.23828 12.5391C9.23828 8.47266 11.3242 4.85156 14.4766 2.68359C14.4062 2.54297 14.3711 2.39062 14.3711 2.22656C14.3711 1.67578 14.8281 1.21875 15.3789 1.21875C15.7305 1.21875 16.0352 1.40625 16.2227 1.6875C17.7344 0.984375 19.4219 0.585938 21.1797 0.585938C27.7188 0.585938 33.1445 6 33.1445 12.5391C33.1445 19.0664 27.7305 24.4922 21.1914 24.4922C19.4336 24.4922 17.7461 24.0938 16.2227 23.3906C16.0469 23.6719 15.7305 23.8594 15.3789 23.8594ZM12.0273 2.68359C11.4766 2.68359 11.0195 2.22656 11.0195 1.67578C11.0195 1.125 11.4766 0.667969 12.0273 0.667969C12.5781 0.667969 13.0352 1.125 13.0352 1.67578C13.0352 2.22656 12.5781 2.68359 12.0273 2.68359ZM8.67578 3.23438C8.11328 3.23438 7.66797 2.77734 7.66797 2.22656C7.66797 1.67578 8.11328 1.21875 8.67578 1.21875C9.22656 1.21875 9.68359 1.67578 9.68359 2.22656C9.68359 2.77734 9.22656 3.23438 8.67578 3.23438ZM21.1914 22.5C26.7227 22.5 31.1523 18.0703 31.1523 12.5391C31.1523 7.00781 26.7109 2.57812 21.1797 2.57812C20.3711 2.57812 19.5859 2.67188 18.8477 2.84766C19.1875 3.01172 19.4336 3.36328 19.4336 3.76172C19.4336 4.3125 18.9766 4.76953 18.4258 4.76953C17.875 4.76953 17.418 4.3125 17.418 3.76172C17.418 3.57422 17.4648 3.39844 17.5586 3.24609C13.8438 4.6875 11.2422 8.29688 11.2422 12.5391C11.2422 16.7812 13.8438 20.3672 17.5469 21.8203C17.4648 21.668 17.418 21.5039 17.418 21.3164C17.418 20.7656 17.875 20.3086 18.4258 20.3086C18.9766 20.3086 19.4336 20.7656 19.4336 21.3164C19.4336 21.7148 19.1992 22.0664 18.8594 22.2305C19.6094 22.4062 20.3828 22.5 21.1914 22.5ZM5.62891 4.76953C5.06641 4.76953 4.62109 4.3125 4.62109 3.76172C4.62109 3.21094 5.06641 2.75391 5.62891 2.75391C6.17969 2.75391 6.63672 3.21094 6.63672 3.76172C6.63672 4.3125 6.17969 4.76953 5.62891 4.76953ZM20.8281 7.18359C20.2773 7.18359 19.8203 6.72656 19.8203 6.17578C19.8203 5.625 20.2773 5.16797 20.8281 5.16797C21.3789 5.16797 21.8359 5.625 21.8359 6.17578C21.8359 6.72656 21.3789 7.18359 20.8281 7.18359ZM3.21484 7.18359C2.66406 7.18359 2.20703 6.72656 2.20703 6.17578C2.20703 5.625 2.66406 5.16797 3.21484 5.16797C3.76562 5.16797 4.22266 5.625 4.22266 6.17578C4.22266 6.72656 3.76562 7.18359 3.21484 7.18359ZM22.3633 10.1836C21.8125 10.1836 21.3555 9.72656 21.3555 9.17578C21.3555 8.625 21.8125 8.16797 22.3633 8.16797C22.9141 8.16797 23.3711 8.625 23.3711 9.17578C23.3711 9.72656 22.9141 10.1836 22.3633 10.1836ZM1.67969 10.1836C1.12891 10.1836 0.671875 9.72656 0.671875 9.17578C0.671875 8.625 1.12891 8.16797 1.67969 8.16797C2.23047 8.16797 2.6875 8.625 2.6875 9.17578C2.6875 9.72656 2.23047 10.1836 1.67969 10.1836ZM22.9375 13.5469C22.3867 13.5469 21.9297 13.0898 21.9297 12.5391C21.9297 11.9883 22.3867 11.5312 22.9375 11.5312C23.4883 11.5312 23.9453 11.9883 23.9453 12.5391C23.9453 13.0898 23.4883 13.5469 22.9375 13.5469ZM1.10547 13.5469C0.554688 13.5469 0.0976562 13.0898 0.0976562 12.5391C0.0976562 11.9883 0.554688 11.5312 1.10547 11.5312C1.65625 11.5312 2.11328 11.9883 2.11328 12.5391C2.11328 13.0898 1.65625 13.5469 1.10547 13.5469ZM22.3633 16.9102C21.8125 16.9102 21.3555 16.4531 21.3555 15.9023C21.3555 15.3516 21.8125 14.8945 22.3633 14.8945C22.9141 14.8945 23.3711 15.3516 23.3711 15.9023C23.3711 16.4531 22.9141 16.9102 22.3633 16.9102ZM1.67969 16.9102C1.12891 16.9102 0.671875 16.4531 0.671875 15.9023C0.671875 15.3516 1.12891 14.8945 1.67969 14.8945C2.23047 14.8945 2.6875 15.3516 2.6875 15.9023C2.6875 16.4531 2.23047 16.9102 1.67969 16.9102ZM20.8281 19.9219C20.2773 19.9219 19.8203 19.4648 19.8203 18.9141C19.8203 18.3633 20.2773 17.9062 20.8281 17.9062C21.3789 17.9062 21.8359 18.3633 21.8359 18.9141C21.8359 19.4648 21.3789 19.9219 20.8281 19.9219ZM3.21484 19.9219C2.66406 19.9219 2.20703 19.4648 2.20703 18.9141C2.20703 18.3633 2.66406 17.9062 3.21484 17.9062C3.76562 17.9062 4.22266 18.3633 4.22266 18.9141C4.22266 19.4648 3.76562 19.9219 3.21484 19.9219ZM5.62891 22.3242C5.06641 22.3242 4.62109 21.8672 4.62109 21.3164C4.62109 20.7656 5.06641 20.3086 5.62891 20.3086C6.17969 20.3086 6.63672 20.7656 6.63672 21.3164C6.63672 21.8672 6.17969 22.3242 5.62891 22.3242ZM8.67578 23.8594C8.11328 23.8594 7.66797 23.4023 7.66797 22.8516C7.66797 22.3008 8.11328 21.8438 8.67578 21.8438C9.22656 21.8438 9.68359 22.3008 9.68359 22.8516C9.68359 23.4023 9.22656 23.8594 8.67578 23.8594ZM12.0273 24.4102C11.4766 24.4102 11.0195 23.9531 11.0195 23.4023C11.0195 22.8516 11.4766 22.3945 12.0273 22.3945C12.5781 22.3945 13.0352 22.8516 13.0352 23.4023C13.0352 23.9531 12.5781 24.4102 12.0273 24.4102Z" fill="white"/>
</svg>
