<svg width="21" height="40" viewBox="0 0 21 40" fill="none" xmlns="http://www.w3.org/2000/svg">
<path d="M9.46875 38.6562L6.92188 36.4219C6.46875 36.0156 6.3125 35.4219 6.3125 34.9062V20.1562C2.51562 18.4844 0.109375 14.7656 0.109375 10.5781C0.109375 4.78125 4.75 0.15625 10.5625 0.15625C16.3281 0.15625 21 4.8125 21 10.5781C21 14.7344 18.5781 18.2344 14.2812 20.2969L17.5469 23.5781C18.1406 24.2031 18.1719 25.1562 17.5625 25.75L14.0312 29.2656L16.4531 31.6719C17.0469 32.2812 17.0781 33.2188 16.4688 33.8438L11.6406 38.6719C11.0156 39.2812 10.125 39.2031 9.46875 38.6562ZM10.5625 36.1875L13.9688 32.7344L11.75 30.5469V27.9531L15.0625 24.6875L12 21.6094V18.4531C15.9219 17.5156 18.4844 14.3125 18.4844 10.5781C18.4844 6.20312 14.9531 2.67188 10.5625 2.67188C6.15625 2.67188 2.60938 6.20312 2.60938 10.5781C2.60938 14.3438 5.15625 17.5156 8.82812 18.3438V34.4688L10.5625 36.1875ZM10.5625 10.1094C9.15625 10.1094 8.03125 8.96875 8.03125 7.5625C8.03125 6.17188 9.14062 5.04688 10.5625 5.04688C11.9531 5.04688 13.0938 6.17188 13.0938 7.5625C13.0938 8.96875 11.9531 10.1094 10.5625 10.1094Z" fill="white"/>
</svg>
