<svg width="34" height="23" viewBox="0 0 34 23" fill="none" xmlns="http://www.w3.org/2000/svg">
<path d="M3.68359 11.0586C1.89062 11.0586 0.988281 10.1914 0.988281 8.38672V3.52344C0.988281 1.73047 1.89062 0.863281 3.68359 0.863281H14.4648C16.2578 0.863281 17.1602 1.73047 17.1602 3.52344V8.38672C17.1602 10.1914 16.2578 11.0586 14.4648 11.0586H3.68359ZM23.6406 20.7969C21.8477 20.7969 20.9453 19.9297 20.9453 18.125V5.10547C20.9453 3.3125 21.8477 2.44531 23.6406 2.44531H31.293C33.0859 2.44531 33.9883 3.3125 33.9883 5.10547V18.125C33.9883 19.9297 33.0859 20.7969 31.293 20.7969H23.6406ZM3.82422 9.28906H14.3242C15.0156 9.28906 15.3906 8.92578 15.3906 8.19922V3.72266C15.3906 2.98438 15.0156 2.63281 14.3242 2.63281H3.82422C3.13281 2.63281 2.75781 2.98438 2.75781 3.72266V8.19922C2.75781 8.92578 3.13281 9.28906 3.82422 9.28906ZM23.7695 19.0273H31.1406C31.8438 19.0273 32.2188 18.6641 32.2188 17.9375V5.30469C32.2188 4.56641 31.8438 4.21484 31.1406 4.21484H23.7695C23.0898 4.21484 22.7148 4.56641 22.7148 5.30469V17.9375C22.7148 18.6641 23.0898 19.0273 23.7695 19.0273ZM6.67188 22.168C4.87891 22.168 3.97656 21.2891 3.97656 19.4961V16.1914C3.97656 14.3984 4.87891 13.5312 6.67188 13.5312H15.918C17.7109 13.5312 18.6133 14.3984 18.6133 16.1914V19.4961C18.6133 21.2891 17.7109 22.168 15.918 22.168H6.67188ZM6.8125 20.3984H15.7656C16.4688 20.3984 16.8438 20.0352 16.8438 19.3086V16.3789C16.8438 15.6523 16.4688 15.3008 15.7656 15.3008H6.8125C6.12109 15.3008 5.74609 15.6523 5.74609 16.3789V19.3086C5.74609 20.0352 6.12109 20.3984 6.8125 20.3984Z" fill="white"/>
</svg>
