<svg width="30" height="37" viewBox="0 0 30 37" fill="none" xmlns="http://www.w3.org/2000/svg">
<path d="M14.4844 8.07812C14.2812 8.07812 14.1719 7.95312 14.1406 7.76562C13.6719 5.23438 13.7188 5.10938 11 4.625C10.7969 4.57812 10.6875 4.46875 10.6875 4.26562C10.6875 4.07812 10.7969 3.95312 11 3.92188C13.7188 3.4375 13.6719 3.3125 14.1406 0.78125C14.1719 0.59375 14.2812 0.46875 14.4844 0.46875C14.6875 0.46875 14.7969 0.59375 14.8281 0.78125C15.2969 3.3125 15.25 3.4375 17.9688 3.92188C18.1562 3.95312 18.2812 4.07812 18.2812 4.26562C18.2812 4.46875 18.1562 4.57812 17.9688 4.625C15.25 5.10938 15.2969 5.23438 14.8281 7.76562C14.7969 7.95312 14.6875 8.07812 14.4844 8.07812ZM6.92188 18.8281C6.64062 18.8281 6.4375 18.625 6.39062 18.3125C5.89062 14.1406 5.6875 14.0312 1.4375 13.3438C1.10938 13.2969 0.90625 13.125 0.90625 12.8125C0.90625 12.5312 1.10938 12.3438 1.375 12.2969C5.65625 11.4844 5.89062 11.5 6.39062 7.32812C6.4375 7.01562 6.64062 6.8125 6.92188 6.8125C7.21875 6.8125 7.42188 7.01562 7.45312 7.3125C8 11.5469 8.15625 11.6875 12.4688 12.2969C12.7344 12.3281 12.9375 12.5312 12.9375 12.8125C12.9375 13.1094 12.7344 13.2969 12.4688 13.3438C8.15625 14.1719 8.01562 14.1719 7.45312 18.3438C7.42188 18.625 7.21875 18.8281 6.92188 18.8281ZM17.5156 36.1094C17.1094 36.1094 16.8125 35.8125 16.75 35.3906C15.5781 26.8438 14.4062 25.7031 5.96875 24.5938C5.51562 24.5469 5.21875 24.2344 5.21875 23.8125C5.21875 23.4062 5.51562 23.0938 5.96875 23.0469C14.4219 22.1094 15.6406 20.7969 16.75 12.2344C16.8125 11.8125 17.1094 11.5312 17.5156 11.5312C17.9219 11.5312 18.2188 11.8125 18.2969 12.2344C19.4062 20.7969 20.6094 22.1094 29.0781 23.0469C29.5156 23.0938 29.8125 23.4062 29.8125 23.8125C29.8125 24.2344 29.5156 24.5469 29.0781 24.5938C20.6094 25.5312 19.4062 26.8438 18.2969 35.3906C18.2188 35.8125 17.9219 36.1094 17.5156 36.1094Z" fill="white"/>
</svg>
