<svg width="149" height="44" viewBox="0 0 149 44" fill="none" xmlns="http://www.w3.org/2000/svg">
<path d="M143 44H5.5C2.42 44 0 41.58 0 38.5V5.5C0 2.42 2.42 0 5.5 0H143C146.08 0 148.5 2.42 148.5 5.5V38.5C148.5 41.58 146.08 44 143 44Z" fill="black"/>
<path d="M143 0.88C145.53 0.88 147.62 2.97 147.62 5.5V38.5C147.62 41.03 145.53 43.12 143 43.12H5.5C2.97 43.12 0.88 41.03 0.88 38.5V5.5C0.88 2.97 2.97 0.88 5.5 0.88H143ZM143 0H5.5C2.42 0 0 2.53 0 5.5V38.5C0 41.58 2.42 44 5.5 44H143C146.08 44 148.5 41.58 148.5 38.5V5.5C148.5 2.53 146.08 0 143 0Z" fill="#A6A6A6"/>
<path d="M52.1391 11.2198C52.1391 12.0998 51.9191 12.8698 51.3691 13.4198C50.7091 14.0798 49.9391 14.4098 48.9491 14.4098C47.9591 14.4098 47.1891 14.0798 46.5291 13.4198C45.8691 12.7598 45.5391 11.9898 45.5391 10.9998C45.5391 10.0098 45.8691 9.23984 46.5291 8.57984C47.1891 7.91984 47.9591 7.58984 48.9491 7.58984C49.3891 7.58984 49.8291 7.69984 50.2691 7.91984C50.7091 8.13984 51.0391 8.35984 51.2591 8.68984L50.7091 9.23984C50.2691 8.68984 49.7191 8.46984 48.9491 8.46984C48.2891 8.46984 47.6291 8.68984 47.1891 9.23984C46.6391 9.67984 46.4191 10.3398 46.4191 11.1098C46.4191 11.8798 46.6391 12.5398 47.1891 12.9798C47.7391 13.4198 48.2891 13.7498 48.9491 13.7498C49.7191 13.7498 50.2691 13.5298 50.8191 12.9798C51.1491 12.6498 51.3691 12.2098 51.3691 11.6598H48.9491V10.7798H52.1391V11.2198ZM57.1991 8.46984H54.2291V10.5598H56.9791V11.3298H54.2291V13.4198H57.1991V14.2998H53.3491V7.69984H57.1991V8.46984ZM60.8291 14.2998H59.9491V8.46984H58.0791V7.69984H62.6991V8.46984H60.8291V14.2998ZM65.8891 14.2998V7.69984H66.7691V14.2998H65.8891ZM70.5091 14.2998H69.6291V8.46984H67.7591V7.69984H72.2691V8.46984H70.3991V14.2998H70.5091ZM80.9591 13.4198C80.2991 14.0798 79.5291 14.4098 78.5391 14.4098C77.5491 14.4098 76.7791 14.0798 76.1191 13.4198C75.4591 12.7598 75.1291 11.9898 75.1291 10.9998C75.1291 10.0098 75.4591 9.23984 76.1191 8.57984C76.7791 7.91984 77.5491 7.58984 78.5391 7.58984C79.5291 7.58984 80.2991 7.91984 80.9591 8.57984C81.6191 9.23984 81.9491 10.0098 81.9491 10.9998C81.9491 11.9898 81.6191 12.7598 80.9591 13.4198ZM76.7791 12.8698C77.2191 13.3098 77.8791 13.6398 78.5391 13.6398C79.1991 13.6398 79.8591 13.4198 80.2991 12.8698C80.7391 12.4298 81.0691 11.7698 81.0691 10.9998C81.0691 10.2298 80.8491 9.56984 80.2991 9.12984C79.8591 8.68984 79.1991 8.35984 78.5391 8.35984C77.8791 8.35984 77.2191 8.57984 76.7791 9.12984C76.3391 9.56984 76.0091 10.2298 76.0091 10.9998C76.0091 11.7698 76.2291 12.4298 76.7791 12.8698ZM83.1591 14.2998V7.69984H84.1491L87.3391 12.8698V7.69984H88.2191V14.2998H87.3391L83.9291 8.90984V14.2998H83.1591Z" fill="white"/>
<path d="M45.3633 11.0001C45.3633 9.96326 45.712 9.14831 46.4053 8.45507C47.0985 7.76183 47.9135 7.41312 48.9503 7.41309C49.4208 7.41309 49.888 7.53095 50.3497 7.76177C50.7972 7.98553 51.1615 8.22257 51.4077 8.59192L51.4882 8.71272L50.6957 9.50522L50.572 9.35086C50.1724 8.85131 49.6783 8.64736 48.9503 8.64736C48.3275 8.64739 47.726 8.85437 47.3288 9.35086L47.3162 9.36603L47.3011 9.37858C46.8072 9.77365 46.5976 10.3728 46.5976 11.1101C46.5976 11.8474 46.8072 12.4467 47.3011 12.8418C47.8437 13.2759 48.3532 13.573 48.9503 13.5731C49.318 13.5731 49.6244 13.5207 49.9009 13.4076C50.1773 13.2945 50.4331 13.117 50.6952 12.855C50.9591 12.591 51.1435 12.2531 51.1845 11.8372H48.7734V10.6032H52.3175V11.2201C52.3175 12.1274 52.0905 12.9504 51.4955 13.5453C50.8023 14.2386 49.9871 14.5873 48.9503 14.5873C47.9135 14.5873 47.0985 14.2386 46.4053 13.5453C45.712 12.8521 45.3633 12.0369 45.3633 11.0001ZM81.7734 11.0001C81.7734 10.057 81.4619 9.33211 80.8353 8.70542C80.2086 8.07869 79.4835 7.76732 78.5404 7.76732C77.5973 7.76733 76.8724 8.07874 76.2457 8.70542C75.619 9.33212 75.3074 10.057 75.3073 11.0001C75.3073 11.9432 75.619 12.6683 76.2457 13.295C76.8724 13.9217 77.5973 14.2331 78.5404 14.2331C79.4835 14.2331 80.2086 13.9217 80.8353 13.295C81.462 12.6683 81.7734 11.9432 81.7734 11.0001ZM57.3774 7.52309V8.64736H54.4076V10.3832H57.1574V11.5072H54.4076V13.243H57.3774V14.4773H53.1733V7.52309H57.3774ZM62.8774 7.52309V8.64736H61.0076V14.4773H59.7733V8.64736H57.9032V7.52309H62.8774ZM66.9476 7.52309V14.4773H65.7133V7.52309H66.9476ZM72.4475 7.52309V8.64736H70.5774V14.3002H70.5103V14.4773H69.4534V8.64736H67.5834V7.52309H72.4475ZM84.2492 7.52309L87.1633 12.246V7.52309H88.3973V14.4773H87.243L84.1074 9.52068V14.4773H82.9834V7.52309H84.2492ZM83.3374 14.1231H83.7532V8.29925L87.4379 14.1231H88.0434V7.87732H87.5176V13.4943L84.0517 7.87732H83.3374V14.1231ZM67.9376 8.29312H69.8074V14.1231H70.2232V8.29312H72.0933V7.87732H67.9376V8.29312ZM66.0675 14.1231H66.5933V7.87732H66.0675V14.1231ZM58.2575 8.29312H60.1276V14.1231H60.6534V8.29312H62.5234V7.87732H58.2575V8.29312ZM53.5276 14.1231H57.0232V13.5973H54.0534V11.1532H56.8032V10.7372H54.0534V8.29312H57.0232V7.87732H53.5276V14.1231ZM80.8934 11.0001C80.8933 10.2628 80.6836 9.66364 80.1899 9.26858L80.1823 9.26245L80.1753 9.25545C79.7621 8.84227 79.1451 8.53735 78.5404 8.53735C77.9176 8.53736 77.3158 8.74431 76.9186 9.24086L76.9125 9.24844L76.9055 9.25545C76.4955 9.66543 76.1874 10.2815 76.1874 11.0001C76.1874 11.7374 76.3971 12.3367 76.8909 12.7318L76.8988 12.738L76.9055 12.745C77.3186 13.1581 77.9356 13.463 78.5404 13.4631C79.1632 13.4631 79.7649 13.2561 80.1621 12.7596L80.1683 12.752L80.1753 12.745C80.5852 12.335 80.8934 11.7187 80.8934 11.0001ZM45.7175 11.0001C45.7175 11.9432 46.0289 12.6683 46.6556 13.295C47.2823 13.9217 48.0072 14.2331 48.9503 14.2331C49.8934 14.2331 50.6185 13.9217 51.2452 13.295C51.7503 12.7899 51.9633 12.0728 51.9633 11.2201V10.9572H49.1274V11.4833H51.5475V11.6601C51.5475 12.262 51.3051 12.7458 50.9455 13.1053C50.6576 13.3933 50.3635 13.6009 50.0348 13.7353C49.7064 13.8697 49.3525 13.9273 48.9503 13.9273C48.2275 13.9272 47.6372 13.5643 47.0799 13.1185C46.4737 12.6335 46.2433 11.9127 46.2433 11.1101C46.2433 10.3144 46.4698 9.59924 47.0644 9.11451C47.547 8.52234 48.259 8.29316 48.9503 8.29312C49.6912 8.29312 50.2601 8.49024 50.7191 8.98087L51.0269 8.67303C50.8351 8.44168 50.564 8.26506 50.1912 8.07866C49.7729 7.86948 49.3597 7.76732 48.9503 7.76732C48.0072 7.76735 47.2823 8.07873 46.6556 8.70542C46.0289 9.33212 45.7175 10.057 45.7175 11.0001ZM81.2476 11.0001C81.2476 11.8168 80.8992 12.5172 80.4332 12.9871C79.9505 13.5858 79.235 13.8173 78.5404 13.8173C77.8292 13.8173 77.1301 13.4661 76.6633 13.0032C76.062 12.5183 75.8334 11.7998 75.8334 11.0001C75.8335 10.1822 76.1823 9.48087 76.6493 9.01093C77.132 8.41398 77.8466 8.18313 78.5404 8.18312C79.2516 8.18312 79.9506 8.53431 80.4174 8.99721C81.0187 9.48204 81.2476 10.2004 81.2476 11.0001ZM82.1273 11.0001C82.1273 12.0369 81.7789 12.8521 81.0856 13.5453C80.3924 14.2386 79.5772 14.5873 78.5404 14.5873C77.5035 14.5873 76.6883 14.2386 75.9951 13.5453C75.3019 12.8521 74.9534 12.0369 74.9534 11.0001C74.9534 9.9633 75.3019 9.14829 75.9951 8.45507C76.6883 7.7618 77.5035 7.41309 78.5404 7.41309C79.5772 7.41309 80.3924 7.7618 81.0856 8.45507C81.7788 9.14829 82.1273 9.96329 82.1273 11.0001Z" fill="white"/>
<path d="M74.909 23.9805C72.269 23.9805 70.179 25.9605 70.179 28.7105C70.179 31.3505 72.269 33.4405 74.909 33.4405C77.549 33.4405 79.639 31.4605 79.639 28.7105C79.639 25.8505 77.549 23.9805 74.909 23.9805ZM74.909 31.4605C73.479 31.4605 72.269 30.2505 72.269 28.6005C72.269 26.9505 73.479 25.7405 74.909 25.7405C76.339 25.7405 77.549 26.8405 77.549 28.6005C77.549 30.2505 76.339 31.4605 74.909 31.4605ZM64.679 23.9805C62.039 23.9805 59.949 25.9605 59.949 28.7105C59.949 31.3505 62.039 33.4405 64.679 33.4405C67.319 33.4405 69.409 31.4605 69.409 28.7105C69.409 25.8505 67.319 23.9805 64.679 23.9805ZM64.679 31.4605C63.249 31.4605 62.039 30.2505 62.039 28.6005C62.039 26.9505 63.249 25.7405 64.679 25.7405C66.109 25.7405 67.319 26.8405 67.319 28.6005C67.319 30.2505 66.109 31.4605 64.679 31.4605ZM52.469 25.4105V27.3905H57.199C57.089 28.4905 56.649 29.3705 56.099 29.9205C55.439 30.5805 54.339 31.3505 52.469 31.3505C49.499 31.3505 47.299 29.0405 47.299 26.0705C47.299 23.1005 49.609 20.7905 52.469 20.7905C54.009 20.7905 55.219 21.4505 56.099 22.2205L57.529 20.7905C56.319 19.6905 54.779 18.8105 52.579 18.8105C48.619 18.8105 45.209 22.1105 45.209 26.0705C45.209 30.0305 48.619 33.3305 52.579 33.3305C54.779 33.3305 56.319 32.6705 57.639 31.2405C58.959 29.9205 59.399 28.0505 59.399 26.6205C59.399 26.1805 59.399 25.7405 59.289 25.4105H52.469ZM102.409 26.9505C101.969 25.8505 100.869 23.9805 98.449 23.9805C96.029 23.9805 94.049 25.8505 94.049 28.7105C94.049 31.3505 96.029 33.4405 98.669 33.4405C100.759 33.4405 102.079 32.1205 102.519 31.3505L100.979 30.2505C100.429 31.0205 99.769 31.5705 98.669 31.5705C97.569 31.5705 96.909 31.1305 96.359 30.1405L102.629 27.5005L102.409 26.9505ZM96.029 28.4905C96.029 26.7305 97.459 25.7405 98.449 25.7405C99.219 25.7405 99.989 26.1805 100.209 26.7305L96.029 28.4905ZM90.859 33.0005H92.949V19.2505H90.859V33.0005ZM87.559 24.9705C87.009 24.4205 86.129 23.8705 85.029 23.8705C82.719 23.8705 80.519 25.9605 80.519 28.6005C80.519 31.2405 82.609 33.2205 85.029 33.2205C86.129 33.2205 87.009 32.6705 87.449 32.1205H87.559V32.7805C87.559 34.5405 86.569 35.5305 85.029 35.5305C83.819 35.5305 82.939 34.6505 82.719 33.8805L80.959 34.6505C81.509 35.8605 82.829 37.4005 85.139 37.4005C87.559 37.4005 89.539 35.9705 89.539 32.5605V24.2005H87.559V24.9705ZM85.139 31.4605C83.709 31.4605 82.499 30.2505 82.499 28.6005C82.499 26.9505 83.709 25.7405 85.139 25.7405C86.569 25.7405 87.669 26.9505 87.669 28.6005C87.669 30.2505 86.569 31.4605 85.139 31.4605ZM111.979 19.2505H107.029V33.0005H109.119V27.8305H111.979C114.289 27.8305 116.489 26.1805 116.489 23.5405C116.489 20.9005 114.289 19.2505 111.979 19.2505ZM112.089 25.8505H109.119V21.1205H112.089C113.629 21.1205 114.509 22.4405 114.509 23.4305C114.399 24.6405 113.519 25.8505 112.089 25.8505ZM124.739 23.8705C123.199 23.8705 121.659 24.5305 121.109 25.9605L122.979 26.7305C123.419 25.9605 124.079 25.7405 124.849 25.7405C125.949 25.7405 126.939 26.4005 127.049 27.5005V27.6105C126.719 27.3905 125.839 27.0605 124.959 27.0605C122.979 27.0605 120.999 28.1605 120.999 30.1405C120.999 32.0105 122.649 33.2205 124.409 33.2205C125.839 33.2205 126.499 32.5605 127.049 31.9005H127.159V33.0005H129.139V27.7205C128.919 25.3005 127.049 23.8705 124.739 23.8705ZM124.519 31.4605C123.859 31.4605 122.869 31.1305 122.869 30.2505C122.869 29.1505 124.079 28.8205 125.069 28.8205C125.949 28.8205 126.389 29.0405 126.939 29.2605C126.719 30.5805 125.619 31.4605 124.519 31.4605ZM136.069 24.2005L133.759 30.1405H133.649L131.229 24.2005H129.029L132.659 32.5605L130.569 37.1805H132.659L138.269 24.2005H136.069ZM117.589 33.0005H119.679V19.2505H117.589V33.0005Z" fill="white"/>
<path d="M11.44 8.25C11.11 8.58 11 9.13 11 9.79V34.1C11 34.76 11.22 35.31 11.55 35.64L11.66 35.75L25.3 22.11V21.89L11.44 8.25Z" fill="url(#paint0_linear_3356_275)"/>
<path d="M29.6995 26.7299L25.1895 22.2199V21.8899L29.6995 17.3799L29.8095 17.4899L35.1995 20.5699C36.7395 21.4499 36.7395 22.8799 35.1995 23.7599L29.6995 26.7299Z" fill="url(#paint1_linear_3356_275)"/>
<path d="M29.8114 26.62L25.1914 22L11.4414 35.75C11.9914 36.3 12.7614 36.3 13.7514 35.86L29.8114 26.62Z" fill="url(#paint2_linear_3356_275)"/>
<path d="M29.8114 17.3793L13.7514 8.24929C12.7614 7.69929 11.9914 7.80929 11.4414 8.35929L25.1914 21.9993L29.8114 17.3793Z" fill="url(#paint3_linear_3356_275)"/>
<path opacity="0.2" d="M29.7014 26.5098L13.7514 35.5298C12.8714 36.0798 12.1014 35.9698 11.5514 35.5298L11.4414 35.6398L11.5514 35.7498C12.1014 36.1898 12.8714 36.2998 13.7514 35.7498L29.7014 26.5098Z" fill="black"/>
<path opacity="0.12" d="M11.44 35.53C11.11 35.2 11 34.65 11 33.99V34.1C11 34.76 11.22 35.31 11.55 35.64V35.53H11.44ZM35.2 23.43L29.7 26.51L29.81 26.62L35.2 23.54C35.97 23.1 36.3 22.55 36.3 22C36.3 22.55 35.86 22.99 35.2 23.43Z" fill="black"/>
<path opacity="0.25" d="M13.75 8.36039L35.2 20.5704C35.86 21.0104 36.3 21.4504 36.3 22.0004C36.3 21.4504 35.97 20.9004 35.2 20.4604L13.75 8.2504C12.21 7.3704 11 8.03039 11 9.79039V9.90039C11 8.2504 12.21 7.4804 13.75 8.36039Z" fill="white"/>
<defs>
<linearGradient id="paint0_linear_3356_275" x1="23.98" y1="9.581" x2="5.5187" y2="28.0412" gradientUnits="userSpaceOnUse">
<stop stop-color="#00A0FF"/>
<stop offset="0.007" stop-color="#00A1FF"/>
<stop offset="0.26" stop-color="#00BEFF"/>
<stop offset="0.512" stop-color="#00D2FF"/>
<stop offset="0.76" stop-color="#00DFFF"/>
<stop offset="1" stop-color="#00E3FF"/>
</linearGradient>
<linearGradient id="paint1_linear_3356_275" x1="37.2169" y1="22.001" x2="10.6002" y2="22.001" gradientUnits="userSpaceOnUse">
<stop stop-color="#FFE000"/>
<stop offset="0.409" stop-color="#FFBD00"/>
<stop offset="0.775" stop-color="#FFA500"/>
<stop offset="1" stop-color="#FF9C00"/>
</linearGradient>
<linearGradient id="paint2_linear_3356_275" x1="27.3111" y1="24.5256" x2="2.27731" y2="49.5594" gradientUnits="userSpaceOnUse">
<stop stop-color="#FF3A44"/>
<stop offset="1" stop-color="#C31162"/>
</linearGradient>
<linearGradient id="paint3_linear_3356_275" x1="8.02811" y1="0.192894" x2="19.2074" y2="11.3722" gradientUnits="userSpaceOnUse">
<stop stop-color="#32A071"/>
<stop offset="0.069" stop-color="#2DA771"/>
<stop offset="0.476" stop-color="#15CF74"/>
<stop offset="0.801" stop-color="#06E775"/>
<stop offset="1" stop-color="#00F076"/>
</linearGradient>
</defs>
</svg>
