<svg width="378" height="167" viewBox="0 0 378 167" fill="none" xmlns="http://www.w3.org/2000/svg">
<g filter="url(#filter0_d_4002_83)">
<path d="M347.886 38.9121H358V16H347.886C338.584 16 329.657 19.9956 323.351 26.9254L307.618 44.3436C305.683 46.4662 302.936 47.7148 300.127 47.7148C297.317 47.7148 294.57 46.4662 292.635 44.3436L276.903 26.9254C270.597 19.9956 261.669 16 252.367 16H242.378V38.9121H252.367C255.239 38.9121 257.924 40.1607 259.859 42.2833L275.154 59.2021L259.859 76.1208C257.924 78.2435 255.177 79.4921 252.305 79.4921H242.316V102.404H252.305C261.607 102.404 270.535 98.4086 276.84 91.4788L292.573 74.0606C294.508 71.9379 297.255 70.6893 300.064 70.6893C302.874 70.6893 305.621 71.9379 307.556 74.0606L323.351 91.4788C329.657 98.4086 338.584 102.404 347.886 102.404H358V79.4921H347.886C345.014 79.4921 342.33 78.2435 340.395 76.1208L325.099 59.2021L340.395 42.2833C342.33 40.1607 345.077 38.9121 347.886 38.9121Z" fill="url(#paint0_linear_4002_83)"/>
<path d="M41.7259 142.61H21.1862C20.4994 142.61 20 142.048 20 141.423V107.711C20 83.3628 39.7905 63.5722 64.1385 63.5722C71.2556 63.5722 78.3103 65.3203 84.6158 68.5667L155.787 107.086C164.028 111.581 173.767 111.519 181.883 106.962C190.686 102.03 195.867 92.4152 195.867 82.3015V66.007C195.867 51.0237 183.693 38.8497 168.71 38.8497H21.2486C20.5619 38.8497 20.0624 38.2878 20.0624 37.6635V17.1862C20.0624 16.4994 20.6243 16 21.2486 16H168.648C196.304 16 218.717 38.4126 218.717 66.0695V82.0517C218.717 100.282 209.477 117.512 193.745 126.627C178.512 135.43 160.282 135.68 144.799 127.314L73.8153 88.8567C70.9435 87.3584 67.5722 86.5468 64.1385 86.5468C52.464 86.5468 42.9121 96.0362 42.9121 107.773V141.486C42.9121 142.173 42.3502 142.672 41.7259 142.672V142.61Z" fill="url(#paint1_linear_4002_83)"/>
</g>
<defs>
<filter id="filter0_d_4002_83" x="0" y="0" width="378" height="166.672" filterUnits="userSpaceOnUse" color-interpolation-filters="sRGB">
<feFlood flood-opacity="0" result="BackgroundImageFix"/>
<feColorMatrix in="SourceAlpha" type="matrix" values="0 0 0 0 0 0 0 0 0 0 0 0 0 0 0 0 0 0 127 0" result="hardAlpha"/>
<feOffset dy="4"/>
<feGaussianBlur stdDeviation="10"/>
<feComposite in2="hardAlpha" operator="out"/>
<feColorMatrix type="matrix" values="0 0 0 0 0 0 0 0 0 0 0 0 0 0 0 0 0 0 0.3 0"/>
<feBlend mode="normal" in2="BackgroundImageFix" result="effect1_dropShadow_4002_83"/>
<feBlend mode="normal" in="SourceGraphic" in2="effect1_dropShadow_4002_83" result="shape"/>
</filter>
<linearGradient id="paint0_linear_4002_83" x1="300.158" y1="16" x2="300.158" y2="102.404" gradientUnits="userSpaceOnUse">
<stop stop-color="#5E00FF"/>
<stop offset="1" stop-color="#5E00FF" stop-opacity="0.58"/>
</linearGradient>
<linearGradient id="paint1_linear_4002_83" x1="119.359" y1="16" x2="119.359" y2="142.672" gradientUnits="userSpaceOnUse">
<stop stop-color="white"/>
<stop offset="1" stop-color="white" stop-opacity="0.52"/>
</linearGradient>
</defs>
</svg>
