<svg width="177" height="19" viewBox="0 0 177 19" fill="none" xmlns="http://www.w3.org/2000/svg">
<rect width="1440" height="2836" transform="translate(-78 -109)" fill="#101010"/>
<g clip-path="url(#clip0_2109_2)">
<path d="M3.0798 18.2572H0.16815C0.0708 18.2572 0 18.1795 0 18.0931V13.4295C0 10.0613 2.80545 7.32359 6.25695 7.32359C7.26585 7.32359 8.2659 7.5654 9.15975 8.01449L19.2488 13.3431C20.417 13.9649 21.7976 13.9563 22.948 13.3259C24.1959 12.6436 24.9305 11.3136 24.9305 9.91449V7.6604C24.9305 5.58768 23.2047 3.90358 21.0807 3.90358H0.177C0.07965 3.90358 0.00885 3.82586 0.00885 3.73949V0.906767C0.00885 0.811767 0.0885 0.742676 0.177 0.742676H21.0718C24.9924 0.742676 28.1695 3.84313 28.1695 7.66904V9.87995C28.1695 12.4018 26.8597 14.7854 24.6295 16.0463C22.4701 17.264 19.886 17.2986 17.6911 16.1413L7.6287 10.8213C7.2216 10.614 6.7437 10.5018 6.25695 10.5018C4.602 10.5018 3.24795 11.8145 3.24795 13.4381V18.1018C3.24795 18.1968 3.1683 18.2659 3.0798 18.2659V18.2572Z" fill="white"/>
<path d="M175.584 3.86904H177V0.742676H175.584C174.283 0.742676 173.035 1.28677 172.15 2.23677L169.947 4.6204C169.672 4.91404 169.292 5.07813 168.893 5.07813C168.495 5.07813 168.115 4.91404 167.84 4.6204L165.637 2.23677C164.76 1.28677 163.513 0.742676 162.203 0.742676H160.805V3.86904H162.203C162.601 3.86904 162.982 4.03313 163.256 4.32677L165.185 6.40813C165.3 6.53768 165.3 6.72768 165.185 6.85722L163.256 8.93859C162.982 9.23222 162.601 9.39631 162.203 9.39631H160.805V12.5227H162.203C163.504 12.5227 164.752 11.9786 165.637 11.0286L167.84 8.64495C168.115 8.35131 168.495 8.18722 168.893 8.18722C169.292 8.18722 169.672 8.35131 169.947 8.64495L172.15 11.0286C173.026 11.9786 174.283 12.5227 175.584 12.5227H177V9.39631H175.584C175.186 9.39631 174.805 9.23222 174.531 8.93859L172.602 6.85722C172.487 6.72768 172.487 6.53768 172.602 6.40813L174.531 4.32677C174.805 4.03313 175.186 3.86904 175.584 3.86904Z" fill="#5E00FF"/>
<path d="M35.6832 18.119C35.6832 18.119 35.6655 18.1881 35.6389 18.214C35.6124 18.2399 35.5681 18.2572 35.5239 18.2572H32.2405C32.2405 18.2572 32.1697 18.2399 32.1432 18.214C32.1166 18.1881 32.0989 18.1536 32.0989 18.119V0.89813C32.0989 0.854948 32.1166 0.811767 32.1432 0.785858C32.1697 0.759949 32.2051 0.742676 32.2405 0.742676H35.5239C35.5681 0.742676 35.6124 0.759949 35.6389 0.785858C35.6655 0.811767 35.6832 0.854948 35.6832 0.89813V18.119Z" fill="white"/>
<path d="M65.6847 18.119C65.6847 18.119 65.667 18.1881 65.6405 18.214C65.6139 18.2399 65.5785 18.2572 65.5431 18.2572H45.1793C43.7544 18.2572 42.542 17.7736 41.5419 16.7977C40.5419 15.8218 40.0463 14.6386 40.0463 13.2481V0.89813C40.0463 0.854948 40.064 0.811767 40.0905 0.785858C40.1171 0.759949 40.1525 0.742676 40.1879 0.742676H43.4712C43.5155 0.742676 43.5597 0.759949 43.5863 0.785858C43.6128 0.811767 43.6305 0.854948 43.6305 0.89813V13.7577C43.6305 14.1636 43.781 14.5177 44.0819 14.8199C44.3828 15.1222 44.7456 15.269 45.1793 15.269H65.5431C65.5431 15.269 65.6139 15.2863 65.6405 15.3122C65.667 15.3381 65.6847 15.3727 65.6847 15.4072V18.119Z" fill="white"/>
<path d="M96.0313 18.119C96.0313 18.119 96.0136 18.1881 95.9871 18.214C95.9605 18.2399 95.9251 18.2572 95.8897 18.2572H75.5259C74.101 18.2572 72.8886 17.7736 71.8885 16.7977C70.8885 15.8218 70.3929 14.6386 70.3929 13.2481V0.89813C70.3929 0.854948 70.4106 0.811767 70.4371 0.785858C70.4637 0.759949 70.4991 0.742676 70.5345 0.742676H73.8178C73.8621 0.742676 73.9063 0.759949 73.9329 0.785858C73.9594 0.811767 73.9771 0.854948 73.9771 0.89813V13.7577C73.9771 14.1636 74.1276 14.5177 74.4285 14.8199C74.7294 15.1222 75.0922 15.269 75.5259 15.269H95.8897C95.8897 15.269 95.9605 15.2863 95.9871 15.3122C96.0136 15.3381 96.0313 15.3727 96.0313 15.4072V18.119Z" fill="white"/>
<path d="M100.731 5.73449C100.731 4.35268 101.226 3.17813 102.226 2.20222C103.226 1.22631 104.439 0.742676 105.864 0.742676H121.254C122.67 0.742676 123.873 1.22631 124.882 2.20222C125.891 3.17813 126.387 4.35268 126.387 5.73449V18.1018C126.387 18.1449 126.369 18.1881 126.343 18.214C126.316 18.2399 126.272 18.2572 126.228 18.2572H122.944C122.944 18.2572 122.873 18.2399 122.847 18.214C122.82 18.1881 122.803 18.1449 122.803 18.1018V12.4968H104.324V18.1018C104.324 18.1449 104.306 18.1881 104.28 18.214C104.253 18.2399 104.218 18.2572 104.182 18.2572H100.899C100.855 18.2572 100.81 18.2399 100.784 18.214C100.757 18.1881 100.74 18.1449 100.74 18.1018V5.73449H100.731ZM122.803 9.49995V5.24222C122.803 4.81904 122.652 4.46495 122.342 4.17131C122.042 3.87768 121.679 3.73086 121.254 3.73086H105.864C105.43 3.73086 105.067 3.87768 104.766 4.17131C104.465 4.46495 104.315 4.81904 104.315 5.24222V9.49995H122.794H122.803Z" fill="white"/>
<path d="M156.733 7.50495C156.733 8.52404 156.459 9.4395 155.91 10.2513C155.362 11.0631 154.627 11.6677 153.716 12.0649L153.786 12.2031L156.645 18.0586C156.654 18.1018 156.645 18.1536 156.627 18.1968C156.601 18.2399 156.565 18.2659 156.503 18.2659H152.857C152.795 18.2659 152.751 18.2399 152.716 18.1795L149.954 12.5227H134.688V18.1277C134.688 18.1277 134.67 18.1968 134.644 18.2227C134.617 18.2486 134.573 18.2659 134.529 18.2659H131.245C131.245 18.2659 131.175 18.2486 131.148 18.2227C131.122 18.1968 131.104 18.1622 131.104 18.1277V0.89813C131.104 0.854948 131.122 0.811767 131.148 0.785858C131.175 0.759949 131.21 0.742676 131.245 0.742676H151.627C153.043 0.742676 154.247 1.22631 155.247 2.20222C156.247 3.17813 156.742 4.36131 156.742 5.75177V7.50495H156.733ZM134.688 9.49995H151.618C152.034 9.49995 152.397 9.35313 152.698 9.05949C152.999 8.76586 153.149 8.41177 153.149 7.98859V5.23358C153.149 4.82768 152.999 4.47359 152.698 4.17995C152.397 3.88631 152.043 3.73949 151.618 3.73949H134.688V9.48268V9.49995Z" fill="white"/>
</g>
<defs>
<clipPath id="clip0_2109_2">
<rect width="177" height="19" fill="white"/>
</clipPath>
</defs>
</svg>
