<svg width="32" height="24" viewBox="0 0 32 24" fill="none" xmlns="http://www.w3.org/2000/svg">
<path d="M26.5134 1.9789C24.5172 1.06295 22.3766 0.388124 20.1384 0.00162133C20.0977 -0.00583805 20.0569 0.0128033 20.0359 0.050087C19.7606 0.539737 19.4557 1.17853 19.2421 1.68061C16.8349 1.32021 14.4399 1.32021 12.082 1.68061C11.8684 1.16737 11.5524 0.539737 11.2758 0.050087C11.2548 0.0140473 11.2141 -0.00459408 11.1734 0.00162133C8.93643 0.386889 6.79579 1.06172 4.79835 1.9789C4.78106 1.98635 4.76624 1.99879 4.7564 2.01494C0.696069 8.08098 -0.416226 13.9979 0.129429 19.8415C0.131898 19.8701 0.147946 19.8975 0.170168 19.9148C2.84906 21.8821 5.44402 23.0765 7.9908 23.8681C8.03155 23.8806 8.07474 23.8657 8.10068 23.8321C8.70312 23.0094 9.24014 22.1419 9.70058 21.2297C9.72776 21.1763 9.70182 21.1129 9.64628 21.0917C8.79447 20.7686 7.98338 20.3747 7.20317 19.9273C7.14146 19.8912 7.13652 19.803 7.19329 19.7607C7.35748 19.6377 7.52171 19.5097 7.67848 19.3804C7.70684 19.3568 7.74637 19.3518 7.77972 19.3667C12.9054 21.7069 18.4545 21.7069 23.5197 19.3667C23.5531 19.3506 23.5926 19.3556 23.6222 19.3792C23.779 19.5084 23.9432 19.6377 24.1086 19.7607C24.1654 19.803 24.1617 19.8912 24.1 19.9273C23.3197 20.3833 22.5087 20.7686 21.6556 21.0905C21.6001 21.1116 21.5754 21.1763 21.6025 21.2297C22.0729 22.1406 22.6099 23.0081 23.2012 23.8309C23.2259 23.8657 23.2703 23.8806 23.3111 23.8681C25.8702 23.0765 28.4652 21.8821 31.1441 19.9148C31.1675 19.8975 31.1823 19.8713 31.1848 19.8428C31.8379 13.0869 30.091 7.2185 26.5541 2.01617C26.5455 1.99879 26.5307 1.98635 26.5134 1.9789ZM10.466 16.2834C8.92284 16.2834 7.65131 14.8666 7.65131 13.1267C7.65131 11.3868 8.89818 9.97004 10.466 9.97004C12.0462 9.97004 13.3054 11.3992 13.2807 13.1267C13.2807 14.8666 12.0338 16.2834 10.466 16.2834ZM20.8729 16.2834C19.3298 16.2834 18.0583 14.8666 18.0583 13.1267C18.0583 11.3868 19.3051 9.97004 20.8729 9.97004C22.4531 9.97004 23.7123 11.3992 23.6876 13.1267C23.6876 14.8666 22.4531 16.2834 20.8729 16.2834Z" fill="white"/>
</svg>
