<svg width="45" height="44" viewBox="0 0 45 44" fill="none" xmlns="http://www.w3.org/2000/svg">
<rect x="1" y="0.5" width="43" height="43" rx="4.5" fill="black" stroke="#A6A6A6"/>
<path d="M21.8672 12.0986C21.8672 11.7031 22.1748 11.4658 22.5 11.4658C22.8252 11.4658 23.124 11.7031 23.124 12.0986V19.0859L23.0361 20.9404L24.7588 19.0156L25.2598 18.5234C25.3828 18.4004 25.5498 18.3301 25.7344 18.3301C26.0859 18.3301 26.3408 18.585 26.3408 18.9277C26.3408 19.1123 26.2705 19.2705 26.1475 19.3936L22.9658 22.584C22.8252 22.7334 22.6494 22.8213 22.5 22.8213C22.3418 22.8213 22.1748 22.7334 22.0254 22.584L18.8525 19.3936C18.7207 19.2705 18.6592 19.1123 18.6592 18.9277C18.6592 18.585 18.9053 18.3301 19.2568 18.3301C19.4502 18.3301 19.6084 18.4004 19.7314 18.5234L20.2412 19.0156L21.9551 20.9404L21.8672 19.0859V12.0986ZM14.0449 28.7012C12.7881 28.7012 12.0234 27.9365 12.0234 26.6709V16.1328C12.0234 14.8672 12.7881 14.1113 14.0449 14.1113H20.6719V15.5264H14.0713C13.6846 15.5264 13.4385 15.7637 13.4385 16.1592V24.4473C13.4385 24.7285 13.5527 24.8252 13.8164 24.8252H31.1748C31.4385 24.8252 31.5615 24.7285 31.5615 24.4473V16.1592C31.5615 15.7637 31.3154 15.5264 30.9287 15.5264H24.3281V14.1113H30.9463C32.2119 14.1113 32.9766 14.8672 32.9766 16.1328V26.6709C32.9766 27.9365 32.2119 28.7012 30.9463 28.7012H25.2773V30.3975H25.3301C25.7168 30.3975 26.0332 30.7139 26.0332 31.1094C26.0332 31.5049 25.7168 31.8213 25.3301 31.8213H19.6699C19.2832 31.8213 18.958 31.5049 18.958 31.1094C18.958 30.7139 19.2832 30.3975 19.6699 30.3975H19.7227V28.7012H14.0449Z" fill="white"/>
</svg>
