<svg width="12" height="12" viewBox="0 0 6 8" fill="none" xmlns="http://www.w3.org/2000/svg">
<g opacity="0.5">
<path d="M5.08335 2.75002C5.08335 2.19749 4.86386 1.66758 4.47316 1.27688C4.08246 0.88618 3.55255 0.666687 3.00002 0.666687C2.44749 0.666687 1.91758 0.88618 1.52688 1.27688C1.13618 1.66758 0.916687 2.19749 0.916687 2.75002C0.916687 2.86053 0.960586 2.96651 1.03873 3.04465C1.11687 3.12279 1.22285 3.16669 1.33335 3.16669C1.44386 3.16669 1.54984 3.12279 1.62798 3.04465C1.70612 2.96651 1.75002 2.86053 1.75002 2.75002C1.75002 2.50279 1.82333 2.26112 1.96068 2.05556C2.09804 1.85 2.29326 1.68978 2.52167 1.59517C2.75007 1.50056 3.00141 1.47581 3.24388 1.52404C3.48636 1.57227 3.70909 1.69132 3.8839 1.86614C4.05872 2.04095 4.17777 2.26368 4.226 2.50616C4.27423 2.74863 4.24948 2.99997 4.15487 3.22837C4.06026 3.45678 3.90004 3.65201 3.69448 3.78936C3.48892 3.92671 3.24725 4.00002 3.00002 4.00002C2.88951 4.00002 2.78353 4.04392 2.70539 4.12206C2.62725 4.2002 2.58335 4.30618 2.58335 4.41669V5.25002C2.58335 5.36053 2.62725 5.46651 2.70539 5.54465C2.78353 5.62279 2.88951 5.66669 3.00002 5.66669C3.11053 5.66669 3.21651 5.62279 3.29465 5.54465C3.37279 5.46651 3.41669 5.36053 3.41669 5.25002V4.79169C3.88726 4.69563 4.31019 4.43994 4.6139 4.0679C4.91761 3.69585 5.08345 3.23029 5.08335 2.75002Z" fill="white"/>
<path d="M3.00016 7.33327C3.23028 7.33327 3.41683 7.14672 3.41683 6.91661C3.41683 6.68649 3.23028 6.49994 3.00016 6.49994C2.77004 6.49994 2.5835 6.68649 2.5835 6.91661C2.5835 7.14672 2.77004 7.33327 3.00016 7.33327Z" fill="white"/>
</g>
</svg>

