<svg width="68" height="56" viewBox="0 0 68 56" fill="none" xmlns="http://www.w3.org/2000/svg">
<path fill-rule="evenodd" clip-rule="evenodd" d="M47.0774 53.3539C57.4773 53.3539 65.9081 44.923 65.9081 34.5231C65.9081 24.1231 57.4773 15.6923 47.0774 15.6923C36.6774 15.6923 28.2466 24.1231 28.2466 34.5231C28.2466 44.923 36.6774 53.3539 47.0774 53.3539ZM47.0774 55.4462C58.6329 55.4462 68.0005 46.0786 68.0005 34.5231C68.0005 22.9676 58.6329 13.6 47.0774 13.6C35.5219 13.6 26.1543 22.9676 26.1543 34.5231C26.1543 46.0786 35.5219 55.4462 47.0774 55.4462Z" fill="#737373"/>
<path d="M62.7694 34.5231C62.7694 43.1897 55.7437 50.2154 47.0771 50.2154C38.4105 50.2154 31.3848 43.1897 31.3848 34.5231C31.3848 25.8564 38.4105 18.8308 47.0771 18.8308C55.7437 18.8308 62.7694 25.8564 62.7694 34.5231Z" fill="#FDE937"/>
<path fill-rule="evenodd" clip-rule="evenodd" d="M6.27692 0C5.12137 0 4.18462 0.936757 4.18462 2.09231V8.36923H2.09231C0.936758 8.36923 0 9.30599 0 10.4615V16.7385C0 17.894 0.936758 18.8308 2.09231 18.8308H4.18462V25.1077C4.18462 26.2632 5.12137 27.2 6.27692 27.2H8.36923V33.4769H2.09231C0.936758 33.4769 0 34.4137 0 35.5692V41.8462C0 43.0017 0.936758 43.9385 2.09231 43.9385H4.18462V50.2154C4.18462 51.3709 5.12137 52.3077 6.27692 52.3077H33.1303C32.2543 51.6712 31.4271 50.9715 30.6555 50.2154H6.27692V43.9385H26.1757C25.8532 43.2595 25.5644 42.5613 25.3116 41.8462H5.23077H2.09231V35.5692H9.41539H24.086C24.0698 35.2226 24.0615 34.8738 24.0615 34.5231C24.0615 34.1724 24.0698 33.8236 24.086 33.4769H10.4615V27.2H25.3116C25.5644 26.4848 25.8532 25.7867 26.1757 25.1077H9.41539H8.89231H6.27692V18.8308H30.6555C31.4271 18.0746 32.2543 17.375 33.1303 16.7385H5.23077H2.09231V10.4615H5.23077H44.9846V12.5783C45.3313 12.5621 45.6801 12.5538 46.0308 12.5538C46.3815 12.5538 46.7302 12.5621 47.0769 12.5783V10.4615H49.1692C50.3248 10.4615 51.2615 9.52478 51.2615 8.36923V2.09231C51.2615 0.936758 50.3248 0 49.1692 0H6.27692ZM46.0308 8.36923H6.27692V2.09231H49.1692V8.36923H46.0308Z" fill="#737373"/>
</svg>
