<svg width="70" height="70" viewBox="0 0 70 70" fill="none" xmlns="http://www.w3.org/2000/svg">
<rect x="11" y="5" width="43" height="15" rx="3" fill="#FDE937"/>
<path d="M42.8548 33.1573C41.4544 32.8537 40.0053 32.8537 38.6049 33.1573L36.0833 33.5823L34.1 13.5796C33.9724 12.4433 33.4161 11.3986 32.5447 10.6584C31.6732 9.91813 30.5523 9.53819 29.4103 9.59601C28.2684 9.65382 27.1915 10.1451 26.3993 10.9695C25.6071 11.794 25.1592 12.8896 25.147 14.0329V44.632C22.0633 42.8931 18.8122 41.4693 15.4431 40.3821C14.7823 40.1471 14.0737 40.0794 13.3803 40.1848C12.687 40.2903 12.0305 40.5657 11.4695 40.9865C10.9084 41.4073 10.4602 41.9604 10.1649 42.5964C9.86948 43.2325 9.73611 43.9318 9.77663 44.632C9.80638 45.327 10.0003 46.0052 10.3426 46.6109C10.6848 47.2166 11.1657 47.7327 11.7457 48.1168C15.4546 50.6714 18.7917 53.7273 21.6621 57.1974C22.8772 58.64 24.3405 59.8538 25.9828 60.7814C28.6265 62.3469 31.428 63.629 34.3409 64.6063C37.0748 65.4441 39.6642 66.6958 42.019 68.3179L42.6139 68.7429C42.922 68.9589 43.3033 69.0437 43.6739 68.9786C44.0445 68.9135 44.3741 68.7039 44.5901 68.3958C44.8062 68.0877 44.891 67.7064 44.8259 67.3358C44.7608 66.9652 44.5511 66.6356 44.2431 66.4196L43.6481 66.0088C41.0988 64.232 38.2952 62.8517 35.3325 61.9147C32.6079 61.0025 29.9868 59.8059 27.5127 58.3449C26.1653 57.5768 24.962 56.5797 23.957 55.3983C20.9044 51.7129 17.3577 48.4666 13.4174 45.7511C13.1953 45.6329 13.0087 45.4578 12.8768 45.2437C12.7448 45.0296 12.6723 44.7842 12.6665 44.5328C12.6544 44.2974 12.7011 44.0628 12.8025 43.85C12.904 43.6373 13.0568 43.4532 13.2474 43.3145C13.4298 43.1735 13.6438 43.0792 13.8709 43.0397C14.098 43.0002 14.3314 43.0167 14.5506 43.0878C18.5003 44.3203 22.2542 46.1091 25.6995 48.4002C25.9096 48.56 26.1602 48.658 26.423 48.6831C26.6858 48.7081 26.9504 48.6592 27.1869 48.5418C27.4253 48.425 27.6261 48.2435 27.7664 48.0181C27.9067 47.7927 27.9808 47.5324 27.9802 47.2669V14.0329C27.9908 13.6155 28.1586 13.2175 28.45 12.9184C28.7414 12.6193 29.1349 12.4413 29.5519 12.4198C29.9689 12.3983 30.3786 12.535 30.6992 12.8026C31.0198 13.0701 31.2275 13.4488 31.281 13.8629L33.4201 35.4664C33.44 35.6628 33.5007 35.8529 33.5983 36.0245C33.696 36.196 33.8284 36.3453 33.9872 36.4626C34.1459 36.58 34.3274 36.6629 34.52 36.706C34.7127 36.7492 34.9122 36.7515 35.1058 36.713L39.214 35.8772C40.2086 35.6648 41.2369 35.6648 42.2314 35.8772L47.0055 36.9397C48.073 37.1809 49.0727 37.6587 49.9308 38.3379C50.789 39.017 51.4837 39.8802 51.9636 40.8637L54.3294 45.6378C55.3474 47.7045 55.8758 49.9779 55.8735 52.2817C55.871 53.8413 56.0758 55.3943 56.4827 56.8999C56.477 56.947 56.477 56.9945 56.4827 57.0416L60.8742 68.1054C60.9826 68.3782 61.173 68.6106 61.4191 68.7704C61.6653 68.9303 61.955 69.0098 62.2483 68.9979C62.4277 68.9983 62.6056 68.9646 62.7725 68.8987C62.9456 68.83 63.1035 68.7278 63.2371 68.5981C63.3706 68.4683 63.4773 68.3134 63.551 68.1424C63.6247 67.9713 63.6639 67.7874 63.6665 67.6012C63.669 67.415 63.6348 67.2301 63.5658 67.0571L59.2026 56.0783C58.8691 54.8404 58.7024 53.5637 58.7068 52.2817C58.7049 49.5588 58.0747 46.8731 56.8652 44.4336L54.4994 39.6454C53.8337 38.2842 52.8707 37.0899 51.6815 36.1508C50.4923 35.2116 49.1073 34.5517 47.6288 34.2198L42.8548 33.1573Z" fill="#737373"/>
<path d="M11.2499 17.9995H19.7496C20.1253 17.9995 20.4856 17.8502 20.7513 17.5845C21.017 17.3189 21.1662 16.9586 21.1662 16.5828C21.1662 16.2071 21.017 15.8468 20.7513 15.5811C20.4856 15.3155 20.1253 15.1662 19.7496 15.1662H11.2499C10.8742 15.1662 10.5138 15.017 10.2482 14.7513C9.9825 14.4856 9.83324 14.1253 9.83324 13.7496V5.24987C9.83324 4.87416 9.9825 4.51383 10.2482 4.24816C10.5138 3.9825 10.8742 3.83324 11.2499 3.83324H48.0821C48.4578 3.83324 48.8181 3.9825 49.0838 4.24816C49.3494 4.51383 49.4987 4.87416 49.4987 5.24987V13.7496C49.4987 14.1253 49.3494 14.4856 49.0838 14.7513C48.8181 15.017 48.4578 15.1662 48.0821 15.1662H39.5823C39.2066 15.1662 38.8463 15.3155 38.5806 15.5811C38.3149 15.8468 38.1657 16.2071 38.1657 16.5828C38.1657 16.9586 38.3149 17.3189 38.5806 17.5845C38.8463 17.8502 39.2066 17.9995 39.5823 17.9995H48.0821C49.2092 17.9995 50.2902 17.5517 51.0872 16.7547C51.8842 15.9577 52.3319 14.8767 52.3319 13.7496V5.24987C52.3319 4.12273 51.8842 3.04176 51.0872 2.24476C50.2902 1.44775 49.2092 1 48.0821 1L11.2499 1C10.1227 1 9.04176 1.44775 8.24476 2.24476C7.44775 3.04176 7 4.12273 7 5.24987V13.7496C7 14.8767 7.44775 15.9577 8.24476 16.7547C9.04176 17.5517 10.1227 17.9995 11.2499 17.9995Z" fill="#737373"/>
</svg>
