<svg width="80" height="80" viewBox="0 0 80 80" fill="none" xmlns="http://www.w3.org/2000/svg">
<path d="M41.1131 44.2632C39.8164 45.8615 38.5822 47.4598 37.1761 48.8691C35.5045 50.5534 33.6766 51.9455 31.4737 52.6329C26.9275 54.025 21.8969 51.3439 19.8815 46.5146C17.8818 41.7024 19.3816 35.9106 23.3967 32.9373C27.4274 29.9641 32.083 30.4281 35.9107 34.2263C37.5198 35.8246 39.0665 37.4745 40.4413 39.3135C40.9256 39.9494 41.16 40.0353 41.6599 39.3307C42.9879 37.4573 44.5033 35.7559 46.1437 34.1919C49.6589 30.8234 56.158 29.2251 60.7355 34.0029C63.6727 37.0792 64.7194 40.8774 63.5008 45.1912C62.2822 49.505 59.5013 52.083 55.455 52.822C51.8617 53.4751 48.6746 52.1517 45.8937 49.6941C44.3783 48.3707 43.1441 46.7208 41.8474 45.174C41.613 44.8647 41.3787 44.5897 41.1131 44.2632Z" fill="#FDE937"/>
<path d="M12.6124 24.4855C11.3958 24.8247 10.3547 25.1164 9.30848 25.3887C8.43064 25.6258 7.83398 25.3475 7.64001 24.6568C7.44604 23.9662 7.84426 23.419 8.70976 23.1747C10.6091 22.651 12.5209 22.1345 14.4255 21.6304C15.4204 21.3616 15.8824 21.6449 16.1523 22.6604C16.6628 24.5424 17.1538 26.4296 17.6571 28.3239C17.8906 29.2028 17.6231 29.8088 16.9455 30.0128C16.2289 30.2274 15.6843 29.8303 15.4476 28.9C15.1849 27.8721 14.9417 26.8389 14.603 25.8001C13.535 27.5643 12.7056 29.4001 12.1642 31.3361C9.18588 41.8844 11.148 51.4327 18.2379 59.7421C26.2101 69.09 39.8807 72.3037 51.3039 67.6893C55.7234 65.9091 59.5323 63.2473 62.6812 59.6754C62.9843 59.3214 63.1443 59.2154 63.4496 59.6562C63.6724 59.9832 63.9876 60.2643 64.3743 60.4215C64.8547 60.6161 64.7401 60.8146 64.4584 61.1314C55.9369 70.8436 42.372 74.5191 30.1765 70.4045C13.5024 64.7788 4.52021 46.515 10.2244 29.8194C10.8392 28.0415 11.6094 26.3368 12.6124 24.4855Z" fill="#3C3C3C"/>
<path d="M66.3131 54.2989C70.3009 47.078 71.2015 39.5296 68.9808 31.6837C67.3577 25.9684 64.2451 21.1789 59.7244 17.3454C49.5173 8.67464 34.9031 8.00786 23.8994 15.4603C21.8174 16.8706 19.9446 18.5173 18.3058 20.4149C17.9473 20.8362 17.7828 20.8073 17.4951 20.3932C17.2774 20.0857 16.9798 19.8312 16.6178 19.6883C16.1498 19.5008 16.213 19.3058 16.5142 18.9837C21.8452 13.0012 28.4749 9.38886 36.3917 8.33825C45.198 7.17291 53.1778 9.34965 60.1954 14.7901C70.906 23.0736 75.1705 37.5886 70.7196 50.3453C70.1047 52.1232 69.3222 53.8207 68.3797 55.6243C69.6158 55.2799 70.7083 54.9847 71.8007 54.6895C72.3859 54.5314 72.8917 54.625 73.2281 55.183C73.6171 55.8209 73.3306 56.631 72.5626 56.8489C70.4857 57.452 68.386 58.0088 66.2935 58.5532C65.6179 58.7253 65.0993 58.4259 64.9105 57.7547C64.341 55.6899 63.7909 53.6198 63.2604 51.5444C63.0859 50.8485 63.4543 50.2675 64.0908 50.106C64.7008 49.9621 65.2636 50.2705 65.4524 50.9417C65.7625 52.03 66.0316 53.1609 66.3131 54.2989Z" fill="#3C3C3C"/>
<path d="M40.143 41.9475C38.9595 43.2792 37.8331 44.6108 36.5498 45.7849C35.0241 47.1881 33.3558 48.3479 31.3454 48.9206C27.1961 50.0804 22.6048 47.8467 20.7655 43.8233C18.9403 39.8141 20.3092 34.9888 23.9737 32.5117C27.6524 30.0346 31.9015 30.4212 35.3948 33.5856C36.8635 34.9172 38.2751 36.2918 39.5298 37.8239C39.9719 38.3536 40.1857 38.4252 40.642 37.8382C41.854 36.2775 43.2371 34.8599 44.7343 33.557C47.9425 30.7506 53.8741 29.419 58.0518 33.3995C60.7325 35.9625 61.6878 39.1268 60.5756 42.7207C59.4634 46.3147 56.9254 48.4624 53.2324 49.0781C49.9529 49.6222 47.0442 48.5197 44.5061 46.4722C43.123 45.3696 41.9966 43.9951 40.8131 42.7064C40.5992 42.4487 40.3854 42.2196 40.143 41.9475ZM22.2626 40.0575C22.2626 40.1005 22.2626 40.1577 22.2769 40.2007C22.2769 40.3439 22.2911 40.4728 22.2911 40.6159C22.3909 43.8233 25.4708 46.8015 28.7218 46.9303C30.661 47.0019 32.2722 46.2431 33.7693 45.1405C35.4519 43.9092 36.7494 42.2769 38.161 40.7734C38.603 40.3009 38.6886 39.9859 38.104 39.6137C36.4357 37.6807 34.7389 35.7906 32.6429 34.3158C30.4613 32.7838 28.1372 32.7838 25.8558 34.0438C23.5316 35.3468 22.3054 37.3657 22.2626 40.0575ZM42.182 39.5277C41.9681 39.8427 41.4405 40.0432 41.9253 40.5587C43.1943 41.876 44.335 43.3221 45.7324 44.5105C47.8854 46.3433 50.3664 47.3169 53.2182 46.7585C56.2552 46.1715 58.5794 43.4653 58.665 40.6159C58.665 40.4298 58.665 40.2293 58.665 40.0432C58.7363 38.2534 58.0661 36.7357 56.8969 35.447C53.8455 32.0965 49.1117 32.8267 46.2457 35.2465C44.7628 36.5352 43.4225 37.9957 42.182 39.5277Z" fill="#3C3C3C"/>
</svg>
