<svg width="80" height="80" viewBox="0 0 80 80" fill="none" xmlns="http://www.w3.org/2000/svg">
<path d="M12.049 29.9117L12.0395 29.8152C11.6423 25.7774 14.2855 21.997 18.5018 21.2182L12.049 29.9117ZM12.049 29.9117L12.0631 30.0076M12.049 29.9117L12.0631 30.0076M12.0631 30.0076C12.5656 33.4123 13.5926 39.802 14.7497 44.3848L14.7567 44.4126M12.0631 30.0076L14.7567 44.4126M14.7567 44.4126L14.7642 44.4403M14.7567 44.4126L14.7642 44.4403M14.7642 44.4403C16.9587 52.6346 19.2961 56.3493 20.9276 58.0866L20.9349 58.0944M14.7642 44.4403L20.9349 58.0944M20.9349 58.0944L20.9423 58.1022M20.9349 58.0944L20.9423 58.1022M20.9423 58.1022C24.6572 62.0159 31.3962 66.9886 34.8476 69.4707L34.8776 69.4922M20.9423 58.1022L34.8776 69.4922M34.8776 69.4922L34.908 69.5133M34.8776 69.4922L34.908 69.5133M34.908 69.5133C36.1423 70.3668 37.7233 71 39.4899 71C41.0602 71 42.8259 70.4855 44.2024 69.4201C47.7144 66.8917 54.2383 61.9908 57.9972 58.1439L58.025 58.1155M34.908 69.5133L58.025 58.1155M58.025 58.1155L58.0521 58.0866M58.025 58.1155L58.0521 58.0866M58.0521 58.0866C59.6827 56.3502 62.0185 52.6387 64.212 44.4537M58.0521 58.0866L64.212 44.4537M64.212 44.4537C65.4519 39.9465 66.3677 33.7323 66.8685 30.3337C66.885 30.2219 66.901 30.1131 66.9166 30.0076C67.5587 25.6566 64.5142 21.9638 60.4779 21.2182L64.212 44.4537ZM34.7486 13.7067C30.057 17.5498 24.662 20.0776 18.5044 21.2177L60.4769 21.218C54.3615 20.086 48.9982 17.5852 44.3292 13.7867C41.5551 11.2565 37.3424 11.5819 34.7486 13.7067Z" stroke="#FDE937" stroke-width="8"/>
<path d="M37.7888 16.2247C32.7888 20.4971 27.0196 23.3131 20.4811 24.5754C18.4619 24.9638 17.2119 26.8087 17.4042 28.8479C17.885 32.2464 18.8465 38.4609 19.9042 42.8305C21.9234 50.6957 23.9427 53.7058 24.9042 54.7739C28.1734 58.3667 34.3273 63.1247 37.6927 65.6493C38.3657 66.1348 39.135 66.4261 39.9042 66.4261C40.6734 66.4261 41.5388 66.1348 42.1157 65.6493C45.4811 63.1247 51.5388 58.3667 54.9042 54.7739C55.8657 53.7058 57.885 50.6957 59.9042 42.8305C61.058 38.4609 61.9234 32.2464 62.4042 28.8479C62.6927 26.8087 61.3465 24.9638 59.3273 24.5754C52.7888 23.3131 47.0196 20.4971 42.0196 16.2247C40.9619 15.1566 39.0388 15.1566 37.7888 16.2247ZM60.5773 28.5566C60.0965 31.858 59.2311 38.0725 58.0773 42.345C55.9619 50.3073 54.0388 52.929 53.4619 53.5116C50.1927 57.1044 43.6542 62.1537 40.9619 64.1928C40.2888 64.6783 39.4234 64.6783 38.8465 64.1928C36.1542 62.1537 29.7119 57.1044 26.3465 53.5116C25.7696 52.929 23.8465 50.3073 21.7311 42.345C20.6734 38.0725 19.7119 31.9551 19.2311 28.5566C19.135 27.5855 19.7119 26.7116 20.6734 26.5174C27.5004 25.158 33.6542 22.245 38.9427 17.6812C39.2311 17.487 39.5196 17.2928 39.9042 17.2928C40.1927 17.2928 40.5773 17.3899 40.8657 17.6812C46.1542 22.245 52.2119 25.158 59.135 26.5174C60.0965 26.7116 60.7696 27.5855 60.5773 28.5566Z" fill="#3C3C3C"/>
<path d="M62.9814 18.1667C60.9621 17.8754 58.9429 17.487 57.0198 16.8072L52.8852 15.0594C49.8083 13.6029 47.0198 11.4667 44.616 8.94203C43.366 7.67971 41.8275 7 40.0006 7C38.2698 7 36.6352 7.67971 35.3852 8.94203C31.9237 12.5348 26.0583 17.0014 17.0198 18.1667C12.5968 18.7493 9.51983 22.7304 10.0006 27.1C10.9621 34.6739 13.7506 52.7348 19.9044 59.4348C24.8083 64.7754 30.9621 69.4362 35.1929 72.4464C36.6352 73.4174 38.366 74 40.0006 74C41.7314 74 43.366 73.5145 44.8083 72.4464C49.0391 69.4362 55.1929 64.7754 60.0968 59.4348C66.2506 52.8319 69.0391 34.6739 69.9044 27.1C70.4814 22.7304 67.3083 18.7493 62.9814 18.1667ZM67.9814 26.9058C67.4044 31.2754 66.4429 37.7812 64.8083 43.9957C63.0775 50.7928 60.9621 55.5507 58.6544 58.0754C53.8468 63.3188 47.8852 67.8826 43.6544 70.8928C41.4429 72.4464 38.4621 72.4464 36.2506 70.8928C32.0198 67.9797 26.0583 63.3188 21.2506 58.0754C19.0391 55.5507 16.9237 50.7928 15.1929 43.9957C13.5583 37.7812 12.5968 31.2754 12.0198 26.9058C11.6352 23.6043 13.9429 20.4971 17.3083 20.1087C26.8275 18.9435 33.1737 14.0884 36.8275 10.3014C37.6929 9.42754 38.7506 8.94203 40.0006 8.94203C41.2506 8.94203 42.3083 9.42754 43.1737 10.3014C45.6737 12.9232 48.6544 15.1565 51.9237 16.8072H52.0198C52.116 16.8072 52.116 16.9043 52.2121 16.9043C52.3083 16.9043 52.3083 16.9043 52.4044 16.9043L56.2506 18.5551L56.3468 18.6522C58.366 19.3319 60.5775 19.8174 62.7891 20.1087C65.9621 20.4971 68.366 23.6043 67.9814 26.9058Z" fill="#3C3C3C"/>
<path d="M52.884 33.9942C51.5378 32.6348 49.2301 32.6348 47.7878 33.9942L39.7109 41.9565L34.5186 37.684C33.7493 37.1014 31.2493 35.8391 29.5186 38.1695C27.6917 40.5 29.3263 42.5391 29.9993 43.2188L32.7878 45.4521L36.057 48.0739L37.6917 49.4333C38.3647 49.9188 39.134 50.2101 39.9032 50.2101C40.8647 50.2101 41.7301 49.8217 42.4032 49.142L52.7878 39.0435C54.2301 37.5869 54.2301 35.3536 52.884 33.9942ZM51.4417 37.5869L41.1532 47.7826C40.384 48.5594 39.4224 48.2681 39.0378 47.8797L37.7878 46.9087L34.134 43.8985L33.7493 43.6072L33.6532 43.5101L31.2493 41.5681C30.9609 41.2768 30.1917 40.4029 31.057 39.3348C31.9224 38.2666 32.9801 38.8492 33.3647 39.1406L39.3263 43.8985C39.7109 44.1898 40.2878 44.1898 40.6724 43.8014L49.3263 35.2565C49.9994 34.6739 50.9609 34.6739 51.634 35.2565C52.1147 35.9362 52.1147 37.0043 51.4417 37.5869Z" fill="#3C3C3C"/>
</svg>
