<svg width="80" height="80" viewBox="0 0 80 80" fill="none" xmlns="http://www.w3.org/2000/svg">
<path d="M9 60.1562V71.0014C9 73.2105 10.7909 75 13 75H58.993C61.0492 75 62.7742 73.4423 62.8807 71.3889C63.1095 66.9756 63.099 61.0236 62.0265 57.7812C60.259 52.4375 52.0104 37 34.9241 37C17.8378 37 9 52.4375 9 60.1562Z" fill="#FDE937"/>
<path d="M29.9973 36.4691C23.353 32.679 21.2389 25.2346 23.0631 19.2469C24.8993 13.2592 30.3356 9.08641 36.4242 8.99999C42.6336 8.91357 48.106 12.8518 50.1597 18.8148C52.153 24.6296 50.3409 32.4197 43.5638 36.3704C43.6121 36.5802 43.8175 36.5555 43.9503 36.6049C45.7624 37.1852 47.4779 37.9876 49.0846 39.0123C49.4107 39.2222 49.6282 39.1852 49.9423 39.0123C55.8738 35.6667 63.1101 39.4568 63.9315 46.321C64.0161 47.0123 63.9799 47.716 63.9799 48.4197C63.9799 48.716 64.0403 48.8889 64.3544 49C66.094 49.6049 66.9879 50.8889 66.9879 52.7531C66.9879 57.4568 66.9879 62.1728 66.9879 66.8765C66.9879 69.4321 65.5141 70.9506 63.0134 70.9506C57.3235 70.9506 51.6215 71.0741 45.9315 70.9259C36.2913 70.6667 26.6631 70.8765 17.0228 70.7901C14.5221 70.7654 13.0242 69.2469 13.0242 66.679C13.0242 64.3333 12.9758 61.9876 13.0362 59.642C13.2658 50.7531 17.0591 43.9012 24.3557 39.0617C26.0711 37.9259 27.9678 37.1111 29.9973 36.4691ZM28.5839 14.7901C25.5517 17.7778 24.3678 21.4197 25.0443 25.6543C25.443 28.1605 26.5423 30.321 28.3423 32.0864C30.4805 34.321 33.1141 35.5062 36.1342 35.6296C40.0966 35.7901 43.3826 34.2469 45.9195 31.1111C49.5919 26.5679 49.3141 19.4815 45.2792 15.2592C42.4403 12.3086 38.9973 11.0494 34.9866 11.6049C32.5221 11.9506 30.3718 13.0123 28.5839 14.7901ZM15.5611 57.6173C15.5127 58.1234 15.4403 58.642 15.4403 59.1481C15.4282 61.6913 15.4282 64.2469 15.4282 66.7901C15.4282 67.0123 15.4403 67.2346 15.5248 67.4568C15.8268 68.2839 16.5154 68.3333 17.2161 68.3333C25.2376 68.3333 33.2711 68.3333 41.2926 68.3333C42.1745 68.3333 42.1745 68.3333 42.1262 67.4815C42.1262 67.3827 42.1262 67.2716 42.1262 67.1728C42.1262 62.3457 42.1141 57.5062 42.1262 52.679C42.1262 51 42.8752 49.7284 44.4215 49.1234C45.0497 48.8765 45.1705 48.5432 45.1342 47.9506C45.0013 45.4444 45.6899 43.2099 47.2846 41.2839C47.5383 40.9753 47.4054 40.8271 47.1275 40.679C46.004 40.0741 44.8685 39.5062 43.6604 39.1111C41.5705 38.4321 39.4685 37.9012 37.2336 38.0988C35.9168 38.2099 34.6 37.9753 33.2832 38.2346C30.9638 38.6913 28.7409 39.4074 26.6631 40.5802C22.3745 42.963 19.2456 46.4321 17.2644 50.9753C16.3221 53.0987 15.7423 55.3086 15.5611 57.6173ZM54.6054 51.321C51.706 51.321 48.8067 51.321 45.9074 51.321C45.0013 51.321 44.5302 51.7901 44.5302 52.716C44.5302 57.5062 44.5302 62.2963 44.5302 67.0864C44.5302 67.9629 45.0134 68.4691 45.8711 68.4691C51.6456 68.4691 57.4201 68.4691 63.1946 68.4691C64.0765 68.4691 64.5597 68 64.5597 67.1111C64.5718 62.2963 64.5718 57.4815 64.5597 52.679C64.5597 51.7654 64.0886 51.3086 63.2188 51.3086C60.3678 51.321 57.4805 51.321 54.6054 51.321ZM51.7785 40.8518C51.8027 40.9136 51.8148 40.963 51.8389 40.9876C54.3154 43.1111 56.3208 45.6173 57.8067 48.5555C57.9154 48.7654 58.0483 48.8518 58.2779 48.8395C59.2443 48.8271 60.2107 48.8271 61.1772 48.8395C61.455 48.8395 61.5758 48.7531 61.5638 48.4568C61.5396 47.642 61.5879 46.8148 61.4309 46C60.6456 41.6049 55.7893 38.9876 51.7785 40.8518ZM51.3557 48.8518C52.4188 48.8518 53.494 48.8518 54.557 48.8518C54.7383 48.8518 54.9799 48.9383 55.0644 48.7901C55.1973 48.5926 54.9557 48.4197 54.8591 48.2592C53.6027 46.2099 52.0926 44.3827 50.2322 42.8642C49.5436 42.3086 49.5557 42.321 49 43.0494C47.804 44.6049 47.4658 46.395 47.5383 48.321C47.5503 48.7654 47.6953 48.8765 48.106 48.8642C49.1812 48.8395 50.2685 48.8518 51.3557 48.8518Z" fill="#3C3C3C"/>
<path d="M53.7124 59.6049C53.7124 58.9876 53.7003 58.3704 53.7124 57.7654C53.7366 57 54.2077 56.5062 54.8963 56.5062C55.597 56.4938 56.0923 56.9753 56.1164 57.7407C56.1406 59.0123 56.1406 60.2839 56.1164 61.5555C56.1043 62.2963 55.5728 62.8148 54.8963 62.8148C54.2198 62.8024 53.7245 62.2839 53.7124 61.5308C53.7003 60.8765 53.7124 60.2469 53.7124 59.6049Z" fill="#3C3C3C"/>
</svg>
