<svg width="10" height="12" viewBox="0 0 10 12" fill="none" xmlns="http://www.w3.org/2000/svg">
<g opacity="0.5">
<path opacity="0.5" d="M4 1.50004C4 0.671611 4.67157 3.76701e-05 5.5 3.76701e-05H8.5C9.32843 3.76701e-05 10 0.671611 10 1.50004V6.50004C10 7.32846 9.32843 8.00004 8.5 8.00004H7V5C7 3.89543 6.10457 3 5 3H4L4 1.50004Z" fill="white"/>
<path d="M0 5.5C0 4.67157 0.671573 4 1.5 4H4.5C5.32843 4 6 4.67157 6 5.5V10.5C6 11.3284 5.32843 12 4.5 12H1.5C0.671573 12 0 11.3284 0 10.5V5.5Z" fill="white"/>
</g>
</svg>
