<svg width="20" height="18" viewBox="0 0 20 18" fill="none" xmlns="http://www.w3.org/2000/svg">
<g opacity="0.5">
<path d="M1.93781 9.03579C1.94148 7.2726 2.52824 5.55746 3.6071 4.1564C4.68595 2.75533 6.19659 1.74663 7.90475 1.28674C9.6129 0.826854 11.4231 0.941474 13.0546 1.61283C14.6861 2.28419 16.0477 3.47475 16.9282 4.99989M16.9282 4.99989L13.7631 4.51784M16.9282 4.99989L16.7272 1.65181" stroke="white" stroke-width="2" stroke-linecap="round" stroke-linejoin="round"/>
<path opacity="0.5" d="M18.0619 8.96372C18.0583 10.7269 17.4715 12.442 16.3927 13.8431C15.3138 15.2442 13.8032 16.2529 12.095 16.7128C10.3869 17.1727 8.57666 17.058 6.94518 16.3867C5.31369 15.7153 3.9521 14.5248 3.07156 12.9996M3.07156 12.9996L6.23662 13.4817M3.07156 12.9996L3.27252 16.3477" stroke="white" stroke-width="2" stroke-linecap="round" stroke-linejoin="round"/>
</g>
</svg>
