<svg width="22" height="24" viewBox="0 0 22 24" fill="none" xmlns="http://www.w3.org/2000/svg">
<path d="M2.93785 12.0354C2.94151 10.2722 3.52828 8.55707 4.60713 7.156C5.68598 5.75494 7.19662 4.74624 8.90478 4.28635C10.6129 3.82646 12.4231 3.94108 14.0546 4.61243C15.6861 5.28379 17.0477 6.47436 17.9282 7.99949M17.9282 7.99949L14.7632 7.51744M17.9282 7.99949L17.7273 4.65142" stroke="white" stroke-width="2" stroke-linecap="round" stroke-linejoin="round"/>
<path opacity="0.5" d="M19.0619 11.9636C19.0582 13.7268 18.4714 15.442 17.3926 16.843C16.3137 18.2441 14.8031 19.2528 13.0949 19.7127C11.3868 20.1726 9.5766 20.0579 7.94512 19.3866C6.31363 18.7152 4.95204 17.5247 4.0715 15.9995M4.0715 15.9995L7.23656 16.4816M4.0715 15.9995L4.27246 19.3476" stroke="white" stroke-width="2" stroke-linecap="round" stroke-linejoin="round"/>
</svg>
