<svg width="18" height="16" viewBox="0 0 18 16" fill="none" xmlns="http://www.w3.org/2000/svg">
<path opacity="0.5" fill-rule="evenodd" clip-rule="evenodd" d="M0.519592 7.2541V8.7459C0.519592 9.62742 1.24006 10.3564 2.13006 10.3564C3.66424 10.3564 4.29148 11.4413 3.52015 12.7721C3.07939 13.5349 3.34215 14.5266 4.11348 14.9674L5.57985 15.8065C6.24947 16.2049 7.11404 15.9676 7.51241 15.298L7.60565 15.1369C8.37698 13.8062 9.63145 13.8062 10.3943 15.1369L10.4875 15.298C10.8859 15.9676 11.7505 16.2049 12.4201 15.8065L13.8865 14.9674C14.6578 14.5266 14.9206 13.5434 14.4798 12.7721C13.7085 11.4413 14.3357 10.3564 15.8699 10.3564C16.7599 10.3564 17.4804 9.62742 17.4804 8.7459V7.2541C17.4804 6.36411 16.7514 5.64363 15.8699 5.64363C14.3357 5.64363 13.7085 4.55869 14.4798 3.22793C14.9206 2.46508 14.6578 1.47337 13.8865 1.03261L12.4201 0.193471C11.7505 -0.204908 10.8859 0.0324241 10.4875 0.70204L10.3943 0.863086C9.62297 2.19384 8.3685 2.19384 7.60565 0.863086L7.51241 0.70204C7.11404 0.0324241 6.24947 -0.204908 5.57985 0.193471L4.11348 1.03261C3.34215 1.47337 3.07939 2.46508 3.52015 3.22793C4.29148 4.55869 3.66424 5.64363 2.13006 5.64363C1.24006 5.64363 0.519592 6.37258 0.519592 7.2541ZM8.99574 10.5433C10.4001 10.5433 11.5386 9.40485 11.5386 8.00047C11.5386 6.5961 10.4001 5.45763 8.99574 5.45763C7.59137 5.45763 6.4529 6.5961 6.4529 8.00047C6.4529 9.40485 7.59137 10.5433 8.99574 10.5433Z" fill="white"/>
</svg>
