<svg width="32" height="32" viewBox="0 0 32 32" fill="none" xmlns="http://www.w3.org/2000/svg">
<path opacity="0.5" d="M19.8805 5.28645C18.7761 3.92816 17.5784 3 15.999 3C14.4197 3 13.2219 3.92816 12.1175 5.28645C11.2944 6.29879 10.424 7.67476 9.40787 9.36588L8.34016 11.1615L5.77375 15.4883L5.71027 15.5953C4.17873 18.1773 2.96993 20.2152 2.29719 21.8593C1.61236 23.5332 1.36572 25.0744 2.16437 26.4844L2.32192 26.7396C3.14633 27.9667 4.52351 28.4891 6.19692 28.7383C7.95489 29 10.3283 29 13.335 29H13.4326H18.5654H18.663C21.6697 29 24.0432 29 25.801 28.7383C27.5861 28.4724 29.0342 27.8956 29.8337 26.4844L29.9717 26.2188C30.6001 24.8815 30.3429 23.4285 29.7009 21.8593C29.1893 20.6092 28.3684 19.1311 27.331 17.3593L26.2242 15.4883L23.6578 11.1615L23.5961 11.0574C22.1258 8.57852 20.9629 6.61771 19.8805 5.28645Z" fill="#FF366C"/>
<path d="M14.6655 18.0003V12.0003C14.6655 11.264 15.2625 10.667 15.9989 10.667C16.7353 10.667 17.3322 11.264 17.3322 12.0003V18.0003C17.3322 18.7367 16.7353 19.3337 15.9989 19.3337C15.2625 19.3337 14.6655 18.7367 14.6655 18.0003Z" fill="white"/>
<path d="M14.6655 22.6696V22.6566C14.6655 21.9202 15.2625 21.3232 15.9989 21.3232C16.7353 21.3232 17.3322 21.9202 17.3322 22.6566V22.6696C17.3322 23.4059 16.7353 24.003 15.9989 24.003C15.2625 24.003 14.6655 23.4059 14.6655 22.6696Z" fill="white"/>
</svg>
