<svg width="14" height="13" viewBox="0 0 14 13" fill="none" xmlns="http://www.w3.org/2000/svg">
<path d="M5.70433 2.22114L1.31589 9.74419C0.732563 10.7442 1.45387 12 2.61156 12H11.3884C12.5461 12 13.2674 10.7442 12.6841 9.74419L8.29567 2.22115C7.71685 1.22889 6.28315 1.22889 5.70433 2.22114Z" fill="#FF366C" fill-opacity="0.3" stroke="#FF366C"/>
<path d="M7.64289 9.64285C7.64289 9.99789 7.35508 10.2857 7.00003 10.2857C6.64499 10.2857 6.35718 9.99789 6.35718 9.64285C6.35718 9.28781 6.64499 8.99999 7.00003 8.99999C7.35508 8.99999 7.64289 9.28781 7.64289 9.64285Z" fill="#FF366C"/>
<path d="M6.35718 4.92856C6.35718 4.57352 6.64499 4.28571 7.00003 4.28571C7.35508 4.28571 7.64289 4.57352 7.64289 4.92856L7.42861 8.14285C7.42861 8.37954 7.23673 8.57142 7.00003 8.57142C6.76334 8.57142 6.57146 8.37954 6.57146 8.14285L6.35718 4.92856Z" fill="#FF366C"/>
</svg>
