<svg width="120" height="120" viewBox="0 0 120 120" fill="none" xmlns="http://www.w3.org/2000/svg">
<path d="M0.191406 51.5899C0.191406 33.4855 2.49628 30.4136 10.5577 19.8556C18.6191 9.2975 23.0371 1.23231 38.0132 0.0779949C52.9892 -1.07632 69.4994 10.8316 79.1024 19.2765C88.7054 27.7215 102.911 33.102 111.359 41.3552C119.808 49.6122 123.455 63.6257 113.473 72.6496C103.49 81.6736 92.7361 83.7867 86.4005 92.8107C80.0649 101.835 75.8387 112.397 65.0889 112.009C54.3391 111.622 53.9518 107.399 43.0102 96.6497C32.0649 85.8961 18.0514 79.944 9.41091 71.3073C0.770446 62.6706 0.191406 51.5899 0.191406 51.5899Z" fill="#FDE937"/>
<path d="M89.3729 14.4801C92.3424 14.4801 94.7497 12.0729 94.7497 9.10335C94.7497 6.13383 92.3424 3.72656 89.3729 3.72656C86.4034 3.72656 83.9961 6.13383 83.9961 9.10335C83.9961 12.0729 86.4034 14.4801 89.3729 14.4801Z" fill="#FDE937"/>
<path d="M103.964 27.4391C106.032 27.4391 107.709 25.7625 107.709 23.6942C107.709 21.6259 106.032 19.9492 103.964 19.9492C101.895 19.9492 100.219 21.6259 100.219 23.6942C100.219 25.7625 101.895 27.4391 103.964 27.4391Z" fill="#FDE937"/>
<path d="M106.943 15.1507C108.479 15.1507 109.725 13.905 109.725 12.3683C109.725 10.8317 108.479 9.58594 106.943 9.58594C105.406 9.58594 104.16 10.8317 104.16 12.3683C104.16 13.905 105.406 15.1507 106.943 15.1507Z" fill="#FDE937"/>
<g filter="url(#filter0_d_16588_52248)">
<path d="M83.6329 100.291H31.1547C30.0229 100.291 29.1055 99.3734 29.1055 98.2416V27.9711C29.1055 26.8393 30.0229 25.9219 31.1547 25.9219H83.6329C84.7647 25.9219 85.6821 26.8393 85.6821 27.9711V98.2416C85.6821 99.3734 84.7647 100.291 83.6329 100.291Z" fill="#FEFFFF"/>
<path d="M86.1391 32.56H29.5625V28.018C29.5625 26.8862 30.4799 25.9688 31.6117 25.9688H84.0899C85.2217 25.9688 86.1391 26.8862 86.1391 28.018V32.56Z" fill="#F0E8FB"/>
<path d="M61.9967 54.8438C54.832 54.8438 49.0234 60.6519 49.0234 67.817C49.0234 74.9817 54.8316 80.7903 61.9967 80.7903C69.1618 80.7903 74.97 74.9821 74.97 67.817C74.97 60.6523 69.1618 54.8438 61.9967 54.8438ZM64.7322 60.2878C59.0145 60.2878 54.3798 64.923 54.3798 70.6403C54.3798 71.4895 54.4933 72.3105 54.6864 73.1007C53.5998 71.6184 52.9505 69.7954 52.9505 67.8165C52.9505 62.8689 56.9614 58.8582 61.9088 58.8582C63.8876 58.8582 65.7107 59.5077 67.193 60.5941C66.4025 60.4015 65.5815 60.2878 64.7323 60.2878L64.7322 60.2878Z" fill="#FDE937"/>
<path d="M62.023 52.737C62.9061 52.737 63.7664 52.8285 64.608 52.9741C62.4668 48.756 58.0983 45.8594 53.0436 45.8594C45.8789 45.8594 40.0703 51.6675 40.0703 58.8326C40.0703 63.8871 42.9671 68.2552 47.1851 70.397C47.0394 69.5554 46.9479 68.6952 46.9479 67.8121C46.9479 59.4868 53.6972 52.7378 62.0222 52.7378L62.023 52.737ZM43.9973 58.8323C43.9973 53.8847 48.0082 49.8739 52.9557 49.8739C54.9345 49.8739 56.7575 50.5235 58.2398 51.6099C57.4499 51.417 56.629 51.3035 55.7796 51.3035C50.0619 51.3035 45.4272 55.9387 45.4272 61.656C45.4272 62.5053 45.5406 63.3263 45.7338 64.1164C44.6469 62.6338 43.9973 60.8111 43.9973 58.8322L43.9973 58.8323Z" fill="#F0E8FB"/>
</g>
<path d="M45.0144 60.2398C58.2449 60.2398 68.9703 49.5144 68.9703 36.284C68.9703 23.0535 58.2449 12.3281 45.0144 12.3281C31.784 12.3281 21.0586 23.0535 21.0586 36.284C21.0586 49.5144 31.784 60.2398 45.0144 60.2398Z" stroke="#1E1E1E" stroke-width="2" stroke-miterlimit="10"/>
<path d="M74.9702 89.4205L56.0273 57.5625" stroke="#1E1E1E" stroke-width="2" stroke-miterlimit="10"/>
<ellipse cx="60" cy="117" rx="60" ry="3" fill="#F6F6F6"/>
<defs>
<filter id="filter0_d_16588_52248" x="24.1055" y="20.9219" width="69.0337" height="86.3691" filterUnits="userSpaceOnUse" color-interpolation-filters="sRGB">
<feFlood flood-opacity="0" result="BackgroundImageFix"/>
<feColorMatrix in="SourceAlpha" type="matrix" values="0 0 0 0 0 0 0 0 0 0 0 0 0 0 0 0 0 0 127 0" result="hardAlpha"/>
<feOffset dx="1" dy="1"/>
<feGaussianBlur stdDeviation="3"/>
<feComposite in2="hardAlpha" operator="out"/>
<feColorMatrix type="matrix" values="0 0 0 0 0.3375 0 0 0 0 0.3375 0 0 0 0 0.3375 0 0 0 0.25 0"/>
<feBlend mode="normal" in2="BackgroundImageFix" result="effect1_dropShadow_16588_52248"/>
<feBlend mode="normal" in="SourceGraphic" in2="effect1_dropShadow_16588_52248" result="shape"/>
</filter>
</defs>
</svg>
