<svg width="98" height="20" viewBox="0 0 98 20" fill="none" xmlns="http://www.w3.org/2000/svg">
<g clip-path="url(#clip0)">
<path d="M39.984 20H2.38336C1.06624 20 0 18.9579 0 17.6705V2.3295C0 1.04215 1.06624 0 2.38336 0H39.984V20Z" fill="url(#paint0_linear)"/>
<path d="M95.617 20H39.9844V0H95.617C96.9341 0 98.0004 1.04215 98.0004 2.3295V17.6782C98.0004 18.9579 96.9341 20 95.617 20Z" fill="url(#paint1_linear)"/>
<path d="M12.2147 12.1304C12.2147 12.889 12.105 13.4943 11.8933 13.9464C11.6816 14.3986 11.3994 14.7434 11.0622 14.9733C10.7251 15.2108 10.3488 15.3641 9.93327 15.4407C9.51775 15.5173 9.11007 15.5556 8.71023 15.5556H4.73535V4.52882H9.11007C9.67455 4.52882 10.1293 4.62078 10.4899 4.80469C10.8506 4.98859 11.1328 5.22614 11.3445 5.52499C11.5562 5.82384 11.6973 6.15334 11.7757 6.5135C11.8541 6.87365 11.8854 7.2338 11.8776 7.57863C11.8619 8.58246 11.6032 9.26445 11.1014 9.62461C11.4307 9.77786 11.6973 10.0537 11.909 10.4522C12.1128 10.8583 12.2147 11.4177 12.2147 12.1304ZM9.76863 7.61695C9.76863 7.27212 9.72943 7.01158 9.64319 6.843C9.55695 6.67442 9.39231 6.59013 9.14143 6.59013H6.87567V8.78936H8.93759C9.25903 8.78936 9.47071 8.68208 9.58831 8.47518C9.70591 8.26062 9.76863 7.96944 9.76863 7.61695ZM10.0666 12.1457C10.0666 11.8392 10.043 11.594 9.98815 11.4177C9.94111 11.2415 9.87055 11.0959 9.79215 10.9963C9.71375 10.8966 9.62751 10.8277 9.52559 10.797C9.43151 10.7664 9.33743 10.751 9.24335 10.751H6.87567V13.3947H9.06303C9.43935 13.3947 9.70591 13.2951 9.84703 13.1035C9.99599 12.9043 10.0666 12.5901 10.0666 12.1457ZM20.7917 15.5556H13.6259V4.52882H20.6662V6.66675H15.7584V8.6974H20.2742V10.8353H15.7584V13.4024H20.7917V15.5556ZM29.0864 12.2989C29.0864 14.6208 27.8085 15.7855 25.2526 15.7855C24.0139 15.7855 23.0653 15.4407 22.4146 14.7587C21.7638 14.0691 21.4424 13.0116 21.4424 11.5786H23.52C23.5357 11.8928 23.5749 12.1917 23.6298 12.4522C23.6846 12.7204 23.7866 12.9426 23.9277 13.1342C24.0688 13.3258 24.2491 13.4713 24.4765 13.5786C24.7038 13.6859 24.9939 13.7395 25.3467 13.7395C25.9269 13.7395 26.3424 13.6323 26.6011 13.4254C26.8598 13.2185 26.9931 12.8047 26.9931 12.207C26.9931 11.8928 26.9382 11.6629 26.8363 11.525C26.7344 11.3871 26.5698 11.2798 26.3502 11.1955C26.0994 11.1035 25.7936 11.0346 25.4408 10.9809C25.088 10.9273 24.6803 10.843 24.2256 10.7204C23.8728 10.6208 23.5435 10.5058 23.2456 10.3756C22.9477 10.2453 22.6811 10.0691 22.4538 9.8315C22.2264 9.59396 22.0539 9.28744 21.9285 8.91196C21.803 8.53649 21.7403 8.0384 21.7403 7.42537C21.7403 6.97327 21.7952 6.58246 21.9128 6.25296C22.0226 5.92346 22.1794 5.63993 22.3675 5.41005C22.5557 5.18016 22.7752 4.99626 23.0182 4.85066C23.2691 4.70507 23.52 4.59779 23.7787 4.52116C24.0374 4.44453 24.2962 4.39089 24.5549 4.3679C24.8136 4.34492 25.0566 4.32959 25.2683 4.32959C26.0053 4.32959 26.609 4.44453 27.0637 4.66675C27.5262 4.88898 27.879 5.18783 28.1378 5.54032C28.3965 5.90047 28.569 6.3066 28.6552 6.75104C28.7414 7.20315 28.7885 7.6476 28.7885 8.08438H26.7501C26.7187 7.90047 26.6952 7.69357 26.6717 7.47135C26.656 7.24913 26.6011 7.0499 26.5227 6.88898C26.4522 6.74338 26.3346 6.61311 26.1542 6.49817C25.9739 6.38323 25.6917 6.32193 25.3075 6.32193C25.0096 6.32193 24.7587 6.34491 24.5627 6.39855C24.3667 6.45219 24.2178 6.52882 24.108 6.62844C23.9982 6.72806 23.9198 6.86599 23.8806 7.02691C23.8414 7.18783 23.8179 7.38706 23.8179 7.60928C23.8179 7.87748 23.8806 8.06905 23.9982 8.184C24.1158 8.29894 24.3432 8.39855 24.6725 8.48284C25.0174 8.5748 25.3624 8.65143 25.7152 8.71273C26.068 8.77403 26.4051 8.85066 26.7344 8.93495C27.0637 9.01924 27.3694 9.13419 27.6517 9.27978C27.9339 9.42537 28.1848 9.61694 28.3965 9.86982C28.6082 10.1227 28.7806 10.4445 28.8982 10.8353C29.0315 11.2261 29.0864 11.7166 29.0864 12.2989ZM36.8715 6.65909H34.2922V15.5556H32.1518V6.65909H29.5725V4.52882H36.8637V6.65909H36.8715Z" fill="white"/>
<path d="M50.7016 11.502C50.6546 12.0768 50.5527 12.6208 50.3959 13.1419C50.2391 13.663 50.0117 14.1151 49.7138 14.4982C49.4159 14.889 49.0239 15.1955 48.5456 15.4254C48.0674 15.6553 47.4872 15.7702 46.8051 15.7702C46.0211 15.7702 45.3547 15.64 44.8059 15.3794C44.2571 15.1189 43.8181 14.7358 43.4731 14.2453C43.136 13.7473 42.8851 13.1342 42.7362 12.4063C42.5794 11.6783 42.501 10.8507 42.501 9.91583C42.501 9.0576 42.5872 8.27599 42.7519 7.58633C42.9165 6.89668 43.1752 6.30664 43.528 5.81622C43.8808 5.33346 44.3277 4.95798 44.8608 4.69745C45.4018 4.43691 46.0447 4.30664 46.7895 4.30664C47.5421 4.30664 48.1536 4.42158 48.6319 4.65147C49.1101 4.88135 49.4864 5.1802 49.7765 5.54802C50.0587 5.91584 50.2626 6.33729 50.388 6.80472C50.5135 7.27216 50.5997 7.74725 50.6546 8.21469H48.6319C48.5848 7.96947 48.5299 7.73193 48.4672 7.50971C48.4123 7.28748 48.3183 7.08825 48.2007 6.92733C48.0831 6.76641 47.9184 6.63614 47.7146 6.53653C47.5107 6.43691 47.2363 6.39093 46.8914 6.39093C46.4759 6.39093 46.1231 6.4599 45.8408 6.59016C45.5586 6.72043 45.3234 6.93499 45.1509 7.23384C44.9784 7.53269 44.853 7.9235 44.7746 8.40626C44.6962 8.88901 44.6648 9.48672 44.6648 10.1994C44.6648 10.9197 44.7197 11.4944 44.8216 11.9465C44.9235 12.3909 45.0725 12.7434 45.2607 12.9886C45.4488 13.2415 45.6762 13.4101 45.9506 13.502C46.225 13.594 46.5229 13.64 46.86 13.64C47.205 13.64 47.4715 13.5863 47.6754 13.4867C47.8792 13.3871 48.036 13.2415 48.1536 13.0499C48.2712 12.8584 48.3653 12.6361 48.428 12.3756C48.4986 12.1151 48.5613 11.8239 48.6319 11.4944H50.7016V11.502ZM59.2864 15.5557H57.1539V10.7971H53.9395V15.5557H51.8071V4.52886H53.9395V8.6438H57.1539V4.52886H59.2864V15.5557ZM68.2789 15.5557H66.0445L65.4565 13.2798H62.6184L62.0382 15.5557H59.8823L62.9712 4.52886H65.088L68.2789 15.5557ZM64.9234 11.2262L64.0453 7.67829L63.1437 11.2262H64.9234ZM74.543 15.5557L71.2816 8.84304V15.5557H69.1491V4.52886H71.2424L74.5274 11.1955V4.52886H76.6442V15.5557H74.543ZM86.2638 15.5557H84.5312V14.4369C84.4058 14.7051 84.249 14.9197 84.0608 15.0882C83.8726 15.2568 83.6688 15.3871 83.4493 15.4867C83.2298 15.5863 82.9946 15.6476 82.7594 15.6859C82.5242 15.7243 82.289 15.7396 82.0616 15.7396C81.2776 15.7396 80.619 15.594 80.0938 15.2951C79.5685 14.9963 79.1451 14.5902 78.8237 14.0691C78.5022 13.548 78.2749 12.9273 78.1416 12.2147C78.0083 11.502 77.9378 10.7358 77.9378 9.91583C77.9378 6.17637 79.3725 4.30664 82.2498 4.30664C82.9632 4.30664 83.559 4.42158 84.053 4.64381C84.5469 4.86603 84.9467 5.17254 85.2525 5.54036C85.5582 5.91584 85.7778 6.34495 85.911 6.82005C86.0443 7.30281 86.1149 7.80089 86.1149 8.30664H83.9354C83.9354 8.08442 83.9197 7.85453 83.8883 7.61698C83.857 7.37944 83.7864 7.17254 83.6766 6.98863C83.5669 6.80472 83.3944 6.65147 83.167 6.53653C82.9397 6.42158 82.6339 6.36028 82.2419 6.36028C81.8499 6.36028 81.5128 6.42158 81.2462 6.55185C80.9718 6.68212 80.7523 6.88135 80.5798 7.15721C80.4074 7.43308 80.2819 7.79323 80.2035 8.23001C80.1251 8.66679 80.0859 9.19553 80.0859 9.80856C80.0859 10.4829 80.1173 11.0653 80.1878 11.548C80.2584 12.0308 80.376 12.4216 80.5485 12.7128C80.721 13.0116 80.9483 13.2262 81.2306 13.3641C81.5128 13.502 81.8734 13.571 82.3125 13.571C82.5634 13.571 82.7986 13.5327 83.0259 13.4561C83.2533 13.3794 83.4493 13.2568 83.6139 13.0959C83.7786 12.935 83.9118 12.7204 84.0059 12.4676C84.1 12.2147 84.1392 11.9082 84.1314 11.548H82.1243V9.51737H86.2795V15.5557H86.2638ZM94.7546 15.5557H87.6045V4.52886H94.6291V6.66679H89.737V8.69744H94.2371V10.8354H89.737V13.4024H94.7546V15.5557Z" fill="#363636"/>
</g>
<defs>
<linearGradient id="paint0_linear" x1="19.9922" y1="20" x2="19.9922" y2="0" gradientUnits="userSpaceOnUse">
<stop stop-color="#1C1C1C"/>
<stop offset="1" stop-color="#4B4B4B"/>
</linearGradient>
<linearGradient id="paint1_linear" x1="68.9926" y1="20" x2="68.9926" y2="0" gradientUnits="userSpaceOnUse">
<stop stop-color="#BCBCBC"/>
<stop offset="1" stop-color="#F3F3F3"/>
</linearGradient>
<clipPath id="clip0">
<rect width="98" height="20" fill="white"/>
</clipPath>
</defs>
</svg>
