<svg width="16" height="16" viewBox="0 0 16 16" fill="none" xmlns="http://www.w3.org/2000/svg">
<path d="M0 8C0 3.58172 3.58172 0 8 0C12.4183 0 16 3.58172 16 8C16 12.4183 12.4183 16 8 16C3.58172 16 0 12.4183 0 8Z" fill="#FDE937"/>
<path fill-rule="evenodd" clip-rule="evenodd" d="M11.7179 5.30385C12.1024 5.70034 12.0926 6.33343 11.6961 6.7179L7.57115 10.7179C7.18326 11.094 6.56674 11.094 6.17885 10.7179L4.30385 8.89972C3.90737 8.51525 3.89763 7.88216 4.2821 7.48567C4.66657 7.08919 5.29966 7.07945 5.69615 7.46392L6.875 8.60705L10.3039 5.2821C10.7003 4.89763 11.3334 4.90737 11.7179 5.30385Z" fill="black"/>
</svg>
