<svg width="408" height="130" viewBox="0 0 408 130" fill="none" xmlns="http://www.w3.org/2000/svg">
<path d="M385.634 0C385.634 24.3568 385.634 48.4737 385.634 73.0705C391.857 73.0705 397.363 73.0705 403.108 73.0705C403.108 79.1897 403.108 84.709 403.108 90.9482C397.602 90.9482 392.097 90.9482 385.993 90.9482C385.993 102.707 385.993 113.865 385.993 125.384C373.545 125.384 361.696 125.384 349.368 125.384C349.368 114.345 349.368 103.187 349.368 91.4281C325.311 91.4281 301.732 91.4281 277.795 91.4281C277.795 78.5898 277.795 66.5913 277.795 53.873C283.181 53.873 288.567 53.873 294.312 53.873C294.312 47.7538 294.312 42.2345 294.312 36.1153C300.536 36.1153 306.161 36.1153 312.624 36.1153C312.624 29.8761 312.624 24.1169 312.624 17.9977C318.848 17.9977 324.353 17.9977 330.577 17.9977C330.577 11.8785 330.577 6.1192 330.577 0.119984C349.249 0 367.082 0 385.634 0ZM348.77 72.5906C348.77 60.1122 348.77 48.1137 348.77 36.1153C342.785 36.1153 337.28 36.1153 331.056 36.1153C331.056 42.1145 331.056 47.7538 331.056 53.993C325.072 53.993 319.805 53.993 314.3 53.993C314.3 60.4721 314.3 66.3514 314.3 72.5906C325.909 72.5906 337.16 72.5906 348.77 72.5906Z" fill="#F6F6F6"/>
<path d="M107.719 72.9505C114.182 72.9505 119.568 72.9505 125.313 72.9505C125.313 78.9497 125.313 84.589 125.313 90.8282C119.927 90.8282 114.541 90.8282 108.437 90.8282C108.437 102.587 108.437 113.745 108.437 125.384C95.7502 125.384 83.9012 125.384 71.5733 125.384C71.5733 114.105 71.5733 102.947 71.5733 91.0682C47.5161 91.0682 23.9376 91.0682 0 91.0682C0.119688 78.4698 0.119688 66.5913 0.119688 53.993C5.38595 53.993 10.6522 53.993 16.6366 53.993C16.6366 47.7538 16.6366 42.1145 16.6366 35.7553C23.0997 35.7553 28.7251 35.7553 34.9488 35.7553C34.9488 29.6361 34.9488 24.1169 34.9488 17.7577C41.0529 17.7577 46.7979 17.7577 52.902 17.7577C52.902 11.5185 52.902 5.99922 52.902 0C71.2142 0 89.1674 0 107.719 0C107.719 24.1169 107.719 48.1137 107.719 72.9505ZM36.7442 53.753C36.7442 60.3521 36.7442 66.3514 36.7442 72.5906C48.4736 72.5906 59.7242 72.5906 71.2142 72.5906C71.2142 60.2322 71.2142 48.2337 71.2142 36.2353C65.2299 36.2353 59.4848 36.2353 53.3808 36.2353C53.3808 42.1145 53.3808 47.6338 53.3808 53.753C47.6357 53.753 42.3695 53.753 36.7442 53.753Z" fill="#F6F6F6"/>
<path d="M139.078 35.5154C144.703 35.5154 149.85 35.5154 155.595 35.5154C155.595 29.6361 155.595 24.1169 155.595 17.9977C161.818 17.9977 167.444 17.9977 173.907 17.9977C173.907 11.6385 173.907 5.99922 173.907 0C192.339 0 209.933 0 228.245 0C228.245 5.27931 228.245 10.6786 228.245 16.6778C234.469 16.6778 240.094 16.6778 246.438 16.6778C246.438 22.797 246.438 28.3163 246.438 34.3155C252.661 34.3155 258.167 34.3155 264.032 34.3155C264.032 52.9131 264.032 71.0308 264.032 89.7483C258.646 89.7483 253.38 89.7483 247.634 89.7483C247.634 95.8675 247.634 101.387 247.634 107.626C241.53 107.626 235.785 107.626 229.681 107.626C229.681 113.865 229.681 119.384 229.681 125.264C211.249 125.264 193.416 125.264 174.864 125.264C174.864 119.984 174.864 114.825 174.864 108.946C168.641 108.946 163.135 108.946 157.031 108.946C157.031 102.947 157.031 97.4273 157.031 91.1881C150.807 91.1881 145.182 91.1881 139.078 91.1881C139.078 72.4706 139.078 54.4729 139.078 35.5154ZM175.582 18.1176C175.582 42.4745 175.582 66.4713 175.582 91.1881C181.687 91.1881 187.312 91.1881 193.536 91.1881C193.536 96.9474 193.536 102.107 193.536 107.146C205.265 107.146 216.516 107.146 227.647 107.146C227.647 82.7892 227.647 58.9123 227.647 34.4355C221.782 34.4355 216.276 34.4355 210.172 34.4355C210.172 28.5563 210.172 23.277 210.172 17.9977C198.323 18.1176 187.072 18.1176 175.582 18.1176Z" fill="#F6F6F6"/>
<g style="mix-blend-mode:multiply">
<ellipse cx="204" cy="125" rx="204" ry="5" fill="#F6F6F6" fill-opacity="0.4"/>
</g>
</svg>
