<svg width="938" height="401" viewBox="0 0 938 401" fill="none" xmlns="http://www.w3.org/2000/svg">
<g opacity="0.6">
<path d="M161.158 401V318.474H0V252.563L184.89 14.4005H235.114V252.01H283.683V318.474H235.114V401H161.158ZM73.9562 252.01H169.437V126.836L73.9562 252.01Z" fill="#F5F5F5"/>
<path d="M616.093 168.376C616.093 192.746 612.414 215.27 605.055 235.947C598.064 256.256 588.13 273.98 575.252 289.119C562.742 303.889 547.656 315.52 529.995 324.012C512.702 332.136 493.937 336.198 473.7 336.198C453.095 336.198 434.146 332.136 416.853 324.012C399.56 315.52 384.474 303.889 371.596 289.119C359.086 273.98 349.152 256.256 341.793 235.947C334.802 215.27 331.307 192.746 331.307 168.376C331.307 144.005 334.802 121.666 341.793 101.358C349.152 80.68 359.086 62.9562 371.596 48.1864C384.474 33.0474 399.56 21.2316 416.853 12.7389C434.146 4.24631 453.095 0 473.7 0C493.937 0 512.702 4.24631 529.995 12.7389C547.656 21.2316 562.742 33.0474 575.252 48.1864C588.13 62.9562 598.064 80.68 605.055 101.358C612.414 121.666 616.093 144.005 616.093 168.376ZM541.585 168.376C541.585 153.606 539.929 140.128 536.618 127.943C533.306 115.389 528.523 104.681 522.268 95.819C516.381 86.9572 509.206 80.1261 500.744 75.326C492.649 70.5258 483.634 68.1257 473.7 68.1257C463.397 68.1257 454.015 70.5258 445.552 75.326C437.458 80.1261 430.283 86.9572 424.028 95.819C418.141 104.681 413.541 115.389 410.23 127.943C406.919 140.128 405.263 153.606 405.263 168.376C405.263 183.145 406.919 196.623 410.23 208.808C413.541 220.993 418.141 231.517 424.028 240.378C430.283 249.24 437.458 256.071 445.552 260.871C454.015 265.672 463.397 268.072 473.7 268.072C483.634 268.072 492.649 265.672 500.744 260.871C509.206 256.071 516.381 249.24 522.268 240.378C528.523 231.517 533.306 220.993 536.618 208.808C539.929 196.623 541.585 183.145 541.585 168.376Z" fill="#F5F5F5"/>
<path d="M815.476 401V318.474H654.317V252.563L839.208 14.4005H889.432V252.01H938V318.474H889.432V401H815.476ZM728.273 252.01H823.754V126.836L728.273 252.01Z" fill="#F5F5F5"/>
</g>
</svg>
