<svg width="120" height="132" viewBox="0 0 120 132" fill="none" xmlns="http://www.w3.org/2000/svg">
<path d="M91.1342 103.153L94.5806 105.911C93.4273 106.741 92.329 107.52 91.1639 108.245L88.6723 106.261C88.2682 105.927 88.0094 105.449 87.9504 104.928C87.8913 104.407 88.0366 103.884 88.3557 103.468C88.7158 103.036 89.2317 102.764 89.7912 102.712C90.2739 102.715 90.7435 102.869 91.1342 103.153Z" fill="#FA8E2E"/>
<path d="M91.1345 103.154L90.775 103.606L94.2364 106.362L94.5809 105.912L94.2544 105.447C93.1011 106.278 92.0161 107.04 90.866 107.763L91.1642 108.247L91.5237 107.795L89.0172 105.813C88.7453 105.566 88.5726 105.229 88.5312 104.864C88.4899 104.499 88.5827 104.132 88.7924 103.83C89.0438 103.526 89.404 103.333 89.7961 103.291L89.7314 102.72L89.7961 103.291C90.1676 103.271 90.5345 103.38 90.8351 103.599L91.1946 103.147L91.5408 102.713C91.041 102.325 90.4206 102.126 89.7886 102.151C89.0977 102.236 88.4666 102.585 88.0281 103.126C87.6218 103.659 87.4371 104.329 87.5126 104.995C87.5881 105.661 87.9179 106.272 88.4333 106.701L91.2442 108.953L91.5842 108.732C92.7777 107.988 93.8911 107.208 95.0443 106.377L95.6476 105.928L91.6026 102.721L91.1345 103.154Z" fill="#100310"/>
<path d="M98.1378 98.5126L100.815 100.658C99.9388 101.518 99.1078 102.373 98.213 103.068L97.8664 103.366L95.6608 101.623C95.2501 101.293 94.9862 100.815 94.9269 100.291C94.8676 99.768 95.0176 99.2424 95.3442 98.8293C95.7064 98.4004 96.2212 98.1293 96.7797 98.0733C97.2718 98.0413 97.7576 98.1984 98.1378 98.5126Z" fill="#FA8E2E"/>
<path d="M98.1383 98.5125L97.7788 98.964L100.454 101.095L100.815 100.658L100.419 100.247C99.5429 101.107 98.7268 101.96 97.8436 102.623L97.4855 102.952L97.867 103.366L98.2282 102.929L96.021 101.171C95.8754 101.057 95.7546 100.914 95.6656 100.751C95.5766 100.589 95.5213 100.41 95.5031 100.226C95.4813 100.042 95.496 99.8561 95.5463 99.6781C95.5966 99.5001 95.6815 99.3338 95.7962 99.1887C96.0476 98.8848 96.4077 98.6911 96.7999 98.649C96.9758 98.6339 97.1529 98.654 97.321 98.7081C97.4891 98.7622 97.6447 98.8491 97.7788 98.964L98.1383 98.5125L98.4845 98.0777C98.2368 97.8656 97.948 97.7069 97.6362 97.6113C97.3244 97.5158 96.9962 97.4856 96.6722 97.5226C96.006 97.6134 95.4014 97.9602 94.9868 98.4894C94.7757 98.7495 94.6185 99.0491 94.5244 99.3705C94.4302 99.692 94.401 100.029 94.4384 100.362C94.474 100.695 94.5768 101.018 94.7407 101.311C94.9046 101.603 95.1262 101.86 95.392 102.064L97.9688 104.13L98.6718 103.487L98.2903 103.074L98.6585 103.504C99.5748 102.731 100.411 101.921 101.289 101.076L101.753 100.613L98.4862 98.0928L98.1383 98.5125Z" fill="#100310"/>
<path d="M114.766 67.1148C115.276 67.49 115.695 67.9747 115.992 68.5333C116.29 69.092 116.459 69.7102 116.486 70.3426C116.41 70.9392 116.299 71.5309 116.154 72.1144C114.398 80.7439 110.624 88.8349 105.139 95.7249L104.287 96.7951C104.045 97.119 103.774 97.4197 103.476 97.6933L96.9882 92.5264C97.2146 92.2421 97.5594 91.9292 97.7991 91.6282L98.6514 90.558C103.436 84.5634 106.672 77.4832 108.073 69.9423L108.155 69.7201C108.258 69.1319 108.509 68.5798 108.886 68.116C109.205 67.6625 109.61 67.2766 110.079 66.9806C110.548 66.6846 111.071 66.4842 111.617 66.3912C112.164 66.2981 112.723 66.3141 113.264 66.4383C113.804 66.5625 114.315 66.7924 114.766 67.1148Z" fill="#FA8E2E"/>
<path d="M114.767 67.1141L114.441 67.5922C114.862 67.905 115.212 68.3045 115.466 68.7637C115.72 69.223 115.873 69.7314 115.914 70.2547L115.935 70.4349L116.49 70.3719L115.932 70.283C115.834 70.8875 115.748 71.4753 115.609 71.993C113.866 80.5401 110.118 88.551 104.674 95.3663L103.822 96.4365C103.606 96.7345 103.362 97.0117 103.094 97.2644L103.462 97.6943L103.809 97.2595L97.3107 92.1394L96.9645 92.5741L97.401 92.9354C97.6007 92.6846 97.9473 92.3867 98.2269 92.0355L99.0792 90.9653C103.925 84.904 107.199 77.7398 108.611 70.109L108.051 70.0051L108.576 70.2042L108.671 69.9653L108.66 69.8752C108.744 69.3655 108.957 68.8858 109.278 68.4817C109.583 68.0669 109.969 67.719 110.413 67.4593C110.857 67.1996 111.35 67.0338 111.861 66.972C112.759 66.8739 113.662 67.1194 114.388 67.6591L114.714 67.181L115.058 66.7312C114.111 66.0048 112.916 65.6811 111.731 65.8305C111.068 65.8982 110.426 66.1022 109.845 66.4298C109.264 66.7574 108.758 67.2015 108.357 67.7342L108.807 68.0788L108.372 67.7325C107.925 68.2893 107.628 68.9515 107.51 69.6557L108.083 69.7429L107.543 69.5455L107.462 69.7677C106.089 77.2169 102.894 84.2108 98.1626 90.1261L97.3103 91.1963C97.1256 91.4454 96.7807 91.7583 96.5011 92.1095L96.1398 92.5459L103.447 98.3653L103.809 98.0657C104.135 97.7655 104.434 97.4363 104.701 97.0822L105.554 96.012C111.101 89.0485 114.918 80.8688 116.691 72.1442L116.132 72.0403L116.681 72.191C116.84 71.5797 116.937 70.9602 117.036 70.3557L117.01 70.1304C116.953 69.4577 116.753 68.8049 116.424 68.2154C116.095 67.6259 115.644 67.1131 115.102 66.7111L114.774 67.1742L115.118 66.7244L114.767 67.1141Z" fill="#100310"/>
<path d="M96.3653 17.9221C100.501 21.2004 104.144 25.0547 107.186 29.3674C107.577 29.8706 107.847 30.3724 108.224 30.8774C108.566 31.7296 108.622 32.6701 108.383 33.5569C108.144 34.4437 107.623 35.2288 106.899 35.7935C106.175 36.3582 105.286 36.672 104.368 36.6875C103.45 36.7029 102.551 36.4192 101.808 35.8792C101.583 35.7134 101.378 35.5223 101.196 35.3097C101.003 34.9513 100.741 34.6464 100.483 34.2497C97.8707 30.523 94.7263 27.1996 91.15 24.3852C84.6486 19.1929 76.8877 15.8154 68.6571 14.5965C60.4265 13.3776 52.0199 14.3608 44.2926 17.446C36.5654 20.5312 29.7934 25.6083 24.6656 32.1608C19.5378 38.7132 16.2372 46.5071 15.0998 54.7493C13.9624 62.9916 15.0287 71.3881 18.1902 79.0844C21.3517 86.7808 26.4956 93.5023 33.0985 98.565C39.7013 103.628 47.5275 106.851 55.7806 107.907C64.0337 108.963 72.4192 107.813 80.0839 104.576L87.3411 110.355C78.496 114.944 68.5763 117.061 58.6283 116.483C48.6803 115.905 39.0728 112.652 30.8191 107.069C22.5655 101.486 15.9716 93.7783 11.7329 84.7599C7.49432 75.7415 5.7681 65.7464 6.73635 55.8288C7.7046 45.9112 11.3314 36.4386 17.2343 28.4104C23.1372 20.3821 31.0973 14.0957 40.275 10.2141C49.4527 6.33263 59.5079 4.99989 69.3799 6.35651C79.2519 7.71313 88.5748 11.7088 96.3653 17.9221Z" fill="#FA8E2E"/>
<path d="M96.3656 17.9212L96.0061 18.3727C100.097 21.6179 103.705 25.4297 106.721 29.693C107.061 30.1413 107.346 30.6414 107.757 31.188L108.206 30.8481L107.682 31.0596C107.808 31.3619 107.89 31.6803 107.926 32.0055C108.02 32.9201 107.772 33.8371 107.229 34.5793L107.692 34.9071L107.244 34.5776C106.94 34.9924 106.554 35.3404 106.109 35.6C105.665 35.8597 105.173 36.0255 104.662 36.0873C103.763 36.1901 102.858 35.9441 102.135 35.4002L101.79 35.85L102.15 35.3985C101.954 35.271 101.781 35.1104 101.64 34.9239L101.178 35.2805L101.678 34.9956C101.449 34.5805 101.186 34.2756 100.946 33.9072C95.8022 26.5193 88.6713 20.7389 80.3788 17.2349C72.0863 13.7308 62.9711 12.6463 54.088 14.1068C45.2048 15.5673 36.9167 19.5132 30.1827 25.4879C23.4486 31.4625 18.5438 39.2217 16.0359 47.8678C13.5279 56.5138 13.5192 65.6932 16.0108 74.344C18.5025 82.9948 23.3925 90.7633 30.1153 96.7506C36.838 102.738 45.1186 106.7 53.999 108.177C62.8794 109.654 71.9966 108.587 80.2957 105.099L80.0842 104.575L79.7247 105.026L86.9819 110.806L87.3415 110.354L87.1467 109.844C78.3924 114.406 68.5689 116.519 58.7131 115.961C48.8573 115.403 39.335 112.195 31.1515 106.674C22.968 101.153 16.4269 93.5256 12.2188 84.5959C8.01074 75.6662 6.29178 65.7659 7.24343 55.9403C8.19508 46.1148 11.782 36.7284 17.6256 28.7722C23.4691 20.8161 31.3525 14.5853 40.4433 10.7377C49.5342 6.89012 59.4953 5.56849 69.2749 6.91233C79.0546 8.25618 88.29 12.2156 96.0061 18.3727L96.3656 17.9212L96.7101 17.4715C88.8382 11.2027 79.4208 7.17398 69.4506 5.81006C59.4805 4.44615 49.327 5.79755 40.0607 9.72181C30.7944 13.6461 22.7585 19.9978 16.8003 28.1073C10.8422 36.2168 7.18238 45.7837 6.20686 55.7993C5.23134 65.8149 6.97622 75.9082 11.2575 85.0151C15.5388 94.1219 22.198 101.905 30.5329 107.544C38.8678 113.182 48.5696 116.467 58.6156 117.053C68.6615 117.639 78.6794 115.503 87.613 110.871L88.3883 110.464L80.1762 103.91L79.8577 104.053C75.7811 105.76 71.4833 106.883 67.0923 107.386C59.4855 108.254 51.782 107.233 44.6646 104.411C37.5472 101.59 31.2357 97.0564 26.2897 91.2123C21.3436 85.3682 17.9157 78.3941 16.3098 70.9083C14.7038 63.4224 14.9695 55.656 17.0832 48.2974C19.1969 40.9387 23.0934 34.2152 28.4272 28.7228C33.7611 23.2303 40.3676 19.1386 47.6611 16.8102C54.9546 14.4819 62.71 13.9888 70.2396 15.3748C77.7693 16.7607 84.8408 19.9829 90.8273 24.7556C94.3569 27.553 97.4534 30.8569 100.016 34.5603L100.483 34.2488L100.001 34.562C100.294 35.0003 100.54 35.2919 100.71 35.577L100.718 35.6521C100.92 35.9098 101.156 36.139 101.419 36.3332C102.379 37.0456 103.574 37.3669 104.761 37.2322C105.423 37.1602 106.064 36.9543 106.644 36.627C107.224 36.2998 107.731 35.858 108.135 35.3285C108.842 34.3544 109.161 33.1525 109.031 31.9563C108.981 31.5306 108.878 31.113 108.723 30.7135L108.714 30.6384C108.358 30.1768 108.088 29.6749 107.676 29.1283L107.213 29.4699L107.678 29.1434C104.601 24.7851 100.917 20.8895 96.7371 17.5749L96.3656 17.9212Z" fill="#100310"/>
<path d="M91.1497 24.3842C94.719 27.2257 97.8512 30.5763 100.446 34.3288C100.654 34.6856 100.967 35.0304 101.159 35.3888L101.176 35.539L90.56 42.2645L94.1385 45.1143C94.343 45.275 94.5135 45.4748 94.6402 45.702C94.7669 45.9292 94.8473 46.1793 94.8766 46.4377C94.9059 46.6962 94.8836 46.9579 94.8109 47.2077C94.7383 47.4575 94.6168 47.6904 94.4535 47.8928C94.2768 48.1083 94.0588 48.2863 93.8122 48.4161C93.5657 48.546 93.2956 48.6251 93.0179 48.6488C92.7421 48.7004 92.4582 48.6899 92.1869 48.618C91.9156 48.5461 91.6638 48.4147 91.4496 48.2333L90.1303 47.1963C89.9117 47.0227 89.6595 46.8962 89.3896 46.8247C89.1197 46.7532 88.8379 46.7383 88.562 46.7808C88.2823 46.7954 88.009 46.8706 87.7612 47.0011C87.5133 47.1316 87.2968 47.3144 87.1265 47.5368C86.9631 47.7393 86.8417 47.9722 86.769 48.222C86.6964 48.4717 86.6741 48.7335 86.7034 48.9919C86.7327 49.2504 86.813 49.5005 86.9397 49.7277C87.0664 49.9549 87.2369 50.1546 87.4414 50.3154L89.6487 52.0732C89.8532 52.234 90.0238 52.4337 90.1504 52.6609C90.2771 52.8881 90.3575 53.1382 90.3868 53.3967C90.4161 53.6551 90.3938 53.9168 90.3211 54.1666C90.2485 54.4164 90.127 54.6493 89.9637 54.8517C89.8046 55.0569 89.6024 55.2246 89.3713 55.3428C89.1402 55.461 88.8859 55.5269 88.6265 55.5358C88.3506 55.5842 88.0674 55.5721 87.7967 55.5003C87.5259 55.4286 87.2739 55.2989 87.0582 55.1203L79.9089 49.0852L63.6817 59.3218C61.5114 60.7087 61.8401 62.1318 64.3748 62.4834L108.253 68.8427C108.24 69.1264 108.179 69.406 108.073 69.6693L107.991 69.8915C106.613 77.4147 103.401 84.4822 98.6408 90.4687L97.7735 91.5406C97.5321 91.8689 97.2612 92.1746 96.9643 92.4538L106.78 100.271C106.986 100.43 107.158 100.629 107.286 100.857C107.414 101.084 107.495 101.334 107.524 101.593C107.554 101.852 107.531 102.115 107.457 102.365C107.383 102.615 107.26 102.848 107.095 103.049C106.938 103.253 106.738 103.421 106.51 103.541C106.283 103.662 106.032 103.732 105.774 103.747C105.499 103.794 105.216 103.781 104.945 103.71C104.674 103.638 104.422 103.509 104.206 103.331L98.0157 98.3738C97.7953 98.2033 97.543 98.0787 97.2736 98.0074C97.0042 97.936 96.7233 97.9193 96.4474 97.9583C96.167 97.9698 95.8926 98.0436 95.6443 98.1744C95.396 98.3052 95.18 98.4896 95.0118 98.7143C94.8466 98.916 94.7234 99.1487 94.6496 99.3987C94.5758 99.6488 94.553 99.9111 94.5823 100.17C94.6117 100.429 94.6927 100.68 94.8206 100.907C94.9485 101.134 95.1206 101.333 95.3268 101.493L98.1862 103.77C98.5826 104.106 98.8359 104.581 98.8945 105.097C98.953 105.613 98.8123 106.132 98.5012 106.549C98.3411 106.753 98.1391 106.922 97.9088 107.042C97.6785 107.163 97.4252 107.233 97.1657 107.248C96.8885 107.296 96.6039 107.283 96.3324 107.209C96.0609 107.134 95.8093 107 95.5957 106.817L91.0139 103.168C90.7935 102.998 90.5412 102.873 90.2718 102.802C90.0025 102.731 89.7215 102.714 89.4456 102.753C89.1661 102.768 88.8932 102.844 88.6455 102.974C88.3978 103.105 88.1811 103.287 88.0101 103.509C87.6917 103.922 87.5466 104.443 87.6053 104.962C87.6641 105.48 87.9222 105.956 88.3251 106.287L99.3965 115.118C99.793 115.454 100.046 115.929 100.105 116.445C100.163 116.961 100.023 117.48 99.7115 117.897C99.5525 118.102 99.3502 118.269 99.1191 118.388C98.888 118.506 98.6337 118.572 98.3743 118.581C98.0984 118.63 97.815 118.618 97.5441 118.547C97.2732 118.475 97.0212 118.345 96.806 118.165L79.9666 104.481C72.2254 107.81 63.7248 108.969 55.375 107.836C47.0252 106.703 39.1409 103.32 32.5665 98.0499C27.5913 94.2514 23.4237 89.4987 20.3076 84.0699C17.1915 78.6411 15.1896 72.6454 14.4189 66.4335C13.6482 60.2216 14.1242 53.9184 15.8192 47.8927C17.5141 41.867 20.3939 36.2399 24.29 31.3408C28.1861 26.4416 33.0203 22.3687 38.5096 19.3605C43.9988 16.3523 50.033 14.4693 56.2589 13.8215C62.4848 13.1737 68.7774 13.7742 74.7684 15.5879C80.7594 17.4016 86.3285 20.392 91.1497 24.3842Z" fill="#FCCF00"/>
<path d="M91.1503 24.3851L90.7907 24.8366C94.3243 27.6359 97.4219 30.9454 99.9815 34.6563L100.447 34.3298L99.9614 34.6129C100.208 35.0414 100.521 35.3862 100.673 35.658L101.16 35.3898L100.655 35.6296L100.672 35.7798L101.192 35.5383L100.879 35.0566L89.5974 42.2225L93.7946 45.565C93.9406 45.6765 94.0629 45.8161 94.1541 45.9755C94.2454 46.135 94.3037 46.3112 94.3257 46.4936C94.3643 46.867 94.2535 47.2405 94.0176 47.5325C93.7726 47.8377 93.4188 48.0359 93.0306 48.0856C92.8352 48.114 92.636 48.1005 92.4462 48.0459C92.2564 47.9914 92.0804 47.8971 91.9299 47.7692L90.6256 46.7305C90.0761 46.306 89.3831 46.1119 88.6931 46.1889C88.3507 46.2164 88.018 46.316 87.7169 46.4812C87.4157 46.6464 87.153 46.8735 86.9459 47.1476C86.5284 47.6764 86.3367 48.3488 86.4126 49.0183C86.4898 49.692 86.8272 50.3088 87.3528 50.7372L89.5584 52.48C89.8465 52.7178 90.0364 53.054 90.0913 53.4236C90.1298 53.797 90.0191 54.1705 89.7831 54.4625C89.5879 54.7168 89.3016 54.8856 88.9846 54.9333L88.8344 54.9504C88.6412 54.9783 88.4443 54.9644 88.2569 54.9095C88.0696 54.8546 87.8963 54.7601 87.7487 54.6323L79.8728 48.3601L63.3841 58.8393C62.8924 59.134 62.4565 59.513 62.0963 59.9589C61.7946 60.3258 61.6462 60.7949 61.6819 61.2685C61.723 61.5239 61.8211 61.7669 61.9689 61.9792C62.1168 62.1916 62.3106 62.3679 62.5359 62.4951C63.0754 62.8002 63.6718 62.9915 64.2881 63.0571L108.164 69.4013L108.253 68.8436L107.684 68.7865C107.68 69.0048 107.637 69.2207 107.558 69.4244L107.464 69.6633L107.474 69.7534C106.095 77.2051 102.902 84.2024 98.1766 90.1268L97.3243 91.197C97.0982 91.4879 96.8493 91.7602 96.58 92.0116L96.0535 92.4668L106.421 100.723C106.565 100.836 106.685 100.976 106.774 101.136C106.862 101.296 106.918 101.472 106.937 101.653C106.959 101.837 106.944 102.023 106.894 102.201C106.844 102.379 106.759 102.546 106.644 102.691C106.44 102.935 106.158 103.102 105.846 103.161L105.695 103.178C105.501 103.21 105.303 103.199 105.113 103.147C104.924 103.095 104.747 103.003 104.596 102.877L98.3574 97.895C97.8072 97.472 97.1148 97.2779 96.4249 97.3534C96.0813 97.3854 95.7479 97.487 95.4449 97.6521C95.1419 97.8172 94.8757 98.0424 94.6627 98.3138C94.4518 98.5754 94.2949 98.8763 94.2011 99.1989C94.1074 99.5216 94.0786 99.8597 94.1164 100.194C94.1543 100.527 94.258 100.851 94.4216 101.144C94.5852 101.438 94.8055 101.696 95.0696 101.903L97.8907 104.246C98.1584 104.492 98.3283 104.826 98.3693 105.188C98.4103 105.549 98.3195 105.913 98.1138 106.213C97.9196 106.469 97.6329 106.638 97.3153 106.684L97.1651 106.701C96.9732 106.728 96.7779 106.715 96.5914 106.663C96.4049 106.611 96.2311 106.52 96.0811 106.398L91.4843 102.751C90.9477 102.304 90.256 102.087 89.56 102.148C89.2158 102.183 88.8823 102.287 88.5796 102.455C88.277 102.622 88.0116 102.85 87.7995 103.123C87.5905 103.384 87.4357 103.683 87.3441 104.005C87.2526 104.326 87.226 104.662 87.2661 104.994C87.3021 105.326 87.4036 105.647 87.5647 105.94C87.7258 106.232 87.9433 106.49 88.2047 106.698L99.2745 115.513C99.5463 115.76 99.7191 116.097 99.7604 116.462C99.8018 116.827 99.7089 117.194 99.4992 117.496C99.3039 117.75 99.0177 117.919 98.7007 117.967L98.5505 117.984C98.3587 118.018 98.1616 118.008 97.974 117.955C97.7864 117.903 97.6129 117.809 97.4665 117.681L80.0442 103.82L79.7407 103.96C75.623 105.742 71.2636 106.903 66.8052 107.404C54.5895 108.733 42.3454 105.163 32.7571 97.4789C23.1688 89.7944 17.0185 78.6217 15.6545 66.4099C14.6207 57.2714 16.3212 48.0317 20.5407 39.86C24.7602 31.6884 31.3091 24.9521 39.3585 20.5039C47.408 16.0556 56.5961 14.0953 65.7601 14.871C74.9241 15.6467 83.652 19.1236 90.8392 24.8616L91.1503 24.3851L91.4948 23.9353C85.3757 19.0543 78.1482 15.7561 70.4513 14.3323C62.7545 12.9085 54.8254 13.403 47.3651 15.7721C39.9048 18.1412 33.1431 22.3118 27.6778 27.9153C22.2125 33.5188 18.212 40.3826 16.03 47.8997C13.8479 55.4168 13.5516 63.3558 15.1672 71.0147C16.7827 78.6736 20.2604 85.8165 25.2927 91.8118C30.325 97.8072 36.757 102.47 44.0199 105.389C51.2828 108.308 59.153 109.392 66.9346 108.546C71.5153 108.028 75.9938 106.834 80.2237 105.001L79.9972 104.479L79.6377 104.931L96.7474 118.584C97.014 118.804 97.3236 118.965 97.6564 119.059C97.9892 119.152 98.3378 119.174 98.6799 119.125L98.6152 118.554L98.6799 119.125L98.8451 119.106C99.4567 119.013 100.012 118.695 100.402 118.215C100.611 117.954 100.766 117.655 100.858 117.333C100.949 117.012 100.976 116.676 100.936 116.344C100.896 116.014 100.791 115.695 100.628 115.406C100.465 115.116 100.246 114.862 99.9837 114.657L88.9139 105.841C88.642 105.595 88.4693 105.257 88.4279 104.892C88.3866 104.528 88.4794 104.16 88.6891 103.859C88.8075 103.702 88.9585 103.572 89.1317 103.479C89.305 103.386 89.4964 103.331 89.6928 103.319C90.0797 103.277 90.468 103.385 90.7768 103.622L95.3586 107.271C95.6251 107.491 95.9348 107.653 96.2676 107.746C96.6004 107.839 96.949 107.862 97.2911 107.812L97.2281 107.257L97.2911 107.812L97.5013 107.789C98.0891 107.692 98.6186 107.377 98.9833 106.906C99.4026 106.372 99.5937 105.694 99.5149 105.02C99.479 104.688 99.3775 104.366 99.2164 104.074C99.0553 103.782 98.8378 103.524 98.5764 103.316L95.732 101.037C95.5877 100.922 95.4677 100.778 95.3789 100.616C95.29 100.454 95.234 100.276 95.2141 100.092C95.1921 99.9105 95.2068 99.7265 95.2575 99.5508C95.3081 99.3752 95.3937 99.2116 95.509 99.0697C95.627 98.9114 95.7774 98.7801 95.9502 98.6844C96.123 98.5888 96.3141 98.531 96.5109 98.515C96.9004 98.4765 97.2896 98.5905 97.5966 98.8331L103.849 103.799C104.117 104.017 104.426 104.18 104.759 104.275C105.091 104.371 105.44 104.398 105.783 104.355L105.718 103.784L105.781 104.34L105.992 104.316C106.608 104.236 107.167 103.915 107.549 103.425C107.76 103.162 107.917 102.86 108.011 102.536C108.105 102.212 108.133 101.872 108.095 101.537C108.011 100.868 107.669 100.257 107.142 99.8352L97.2978 92.0367L96.9383 92.4882L97.3064 92.918C97.637 92.6217 97.9361 92.2922 98.199 91.9345L99.0512 90.8643C103.897 84.803 107.171 77.6388 108.583 70.008L108.024 69.9041L108.563 70.1015L108.644 69.8793L108.068 69.6252L108.596 69.8544C108.725 69.5311 108.799 69.1885 108.816 68.8407L108.861 68.3031L64.4492 61.9284C63.9921 61.8783 63.5484 61.7428 63.1413 61.529C62.8789 61.361 62.8335 61.2292 62.8233 61.1391C62.8233 60.9574 62.89 60.782 63.0108 60.6462C63.2842 60.3072 63.618 60.0217 63.9955 59.8044L79.8676 49.7907L87.0781 55.5602C87.3417 55.7801 87.6487 55.9421 87.979 56.0357C88.3094 56.1293 88.6557 56.1524 88.9955 56.1034L88.9308 55.5327L88.9955 56.1034L89.2058 56.0796C89.8247 55.9847 90.3853 55.6605 90.7762 55.1714C90.984 54.905 91.1366 54.5999 91.2251 54.2738C91.3135 53.9477 91.3359 53.6072 91.2911 53.2723C91.2585 52.9395 91.1585 52.6168 90.9971 52.3239C90.8358 52.0309 90.6165 51.7739 90.3526 51.5685L88.1453 49.8107C87.85 49.5789 87.6584 49.2397 87.6124 48.8671C87.593 48.6844 87.6105 48.4996 87.6637 48.3238C87.7169 48.1479 87.8049 47.9845 87.9223 47.8432C88.0375 47.6856 88.1852 47.5546 88.3555 47.4592C88.5258 47.3638 88.7147 47.3061 88.9092 47.2901C89.3034 47.2471 89.6987 47.3608 90.0099 47.6065L91.3142 48.6452C91.5827 48.862 91.8925 49.0219 92.2247 49.115C92.557 49.2081 92.9047 49.2325 93.2467 49.1868C93.936 49.1059 94.5674 48.7618 95.009 48.2264C95.4253 47.6912 95.6161 47.0145 95.5406 46.3407C95.5055 46.0085 95.4043 45.6867 95.2432 45.3941C95.082 45.1015 94.864 44.844 94.6021 44.6368L91.6641 42.3381L102.01 35.7802L101.729 35.1732C101.482 34.7448 101.169 34.3999 101.015 34.1132C98.3793 30.3156 95.2017 26.9242 91.5835 24.047L91.1503 24.3851Z" fill="#100310"/>
<path d="M104.735 108.931C104.938 109.094 105.107 109.295 105.232 109.523C105.358 109.751 105.437 110.002 105.466 110.26C105.495 110.519 105.472 110.781 105.399 111.031C105.327 111.281 105.206 111.514 105.043 111.718C104.88 111.921 104.679 112.09 104.451 112.216C104.223 112.341 103.972 112.42 103.713 112.449C103.454 112.478 103.193 112.455 102.943 112.382C102.692 112.31 102.459 112.189 102.256 112.026L100.972 111.031C100.753 110.875 100.568 110.676 100.428 110.446C100.289 110.216 100.198 109.96 100.16 109.694C100.123 109.427 100.14 109.156 100.211 108.897C100.282 108.637 100.405 108.395 100.572 108.185C100.74 107.974 100.948 107.8 101.185 107.673C101.422 107.546 101.683 107.469 101.951 107.446C102.218 107.422 102.488 107.454 102.744 107.539C102.999 107.623 103.234 107.759 103.435 107.937L104.735 108.931Z" fill="#FCCF00"/>
<path d="M104.735 108.928L104.376 109.38C104.643 109.626 104.813 109.961 104.854 110.322C104.895 110.683 104.805 111.048 104.599 111.347C104.364 111.638 104.025 111.824 103.654 111.866C103.283 111.908 102.91 111.803 102.616 111.572L101.364 110.588C101.086 110.345 100.907 110.008 100.861 109.641C100.813 109.273 100.913 108.901 101.139 108.606C101.38 108.323 101.716 108.139 102.084 108.088C102.455 108.046 102.828 108.151 103.122 108.381L104.376 109.38L104.735 108.928L105.08 108.479L103.841 107.478C103.303 107.069 102.628 106.884 101.957 106.962C101.289 107.035 100.677 107.366 100.251 107.885C100.045 108.15 99.8931 108.452 99.8044 108.775C99.7157 109.099 99.692 109.437 99.7345 109.769C99.7605 110.111 99.8566 110.445 100.017 110.748C100.177 111.052 100.397 111.32 100.665 111.535L101.919 112.534C102.452 112.94 103.122 113.125 103.788 113.049C104.454 112.974 105.065 112.644 105.494 112.128C105.913 111.595 106.104 110.917 106.025 110.243C105.989 109.911 105.888 109.589 105.727 109.297C105.566 109.004 105.348 108.747 105.087 108.539L104.735 108.928Z" fill="#100310"/>
<path d="M96.8534 51.8787L97.5056 52.398C97.7118 52.5575 97.884 52.7568 98.0118 52.984C98.1397 53.2112 98.2207 53.4617 98.2501 53.7208C98.2795 53.9798 98.2566 54.2421 98.1828 54.4922C98.109 54.7422 97.9858 54.975 97.8206 55.1766C97.6451 55.3934 97.4273 55.5722 97.1805 55.7022C96.9337 55.8322 96.6631 55.9106 96.385 55.9326C96.1091 55.98 95.8262 55.9674 95.5556 55.8957C95.285 55.824 95.033 55.6949 94.8167 55.5171L94.1646 54.9977C93.7617 54.666 93.5036 54.1907 93.4448 53.6722C93.3861 53.1537 93.5312 52.6326 93.8496 52.2192C94.1938 51.801 94.6871 51.533 95.2253 51.472C95.7634 51.411 96.3042 51.5618 96.7333 51.8923L96.8534 51.8787Z" fill="#FCCF00"/>
<path d="M96.8528 51.8801L96.4915 52.3166L97.1453 52.851C97.294 52.9599 97.4181 53.0988 97.5096 53.2588C97.6012 53.4188 97.658 53.5962 97.6765 53.7796C97.6991 53.9646 97.6834 54.1523 97.6304 54.331C97.5774 54.5098 97.4882 54.6757 97.3684 54.8185C97.1204 55.1184 96.7663 55.3111 96.3797 55.3565C96.1879 55.3904 95.9909 55.3808 95.8032 55.3284C95.6156 55.2759 95.4422 55.182 95.2957 55.0534L94.6286 54.5358C94.3424 54.299 94.1616 53.9585 94.1257 53.5888C94.0887 53.2212 94.1877 52.8528 94.4038 52.5533C94.6552 52.2493 95.0153 52.0556 95.4075 52.0135C95.7944 51.9712 96.1827 52.0798 96.4915 52.3166L96.8528 51.8801L97.2123 51.4287C96.6638 51.0021 95.9701 50.8071 95.2796 50.8854C94.5892 50.9636 93.9567 51.309 93.5176 51.8475C93.3029 52.1062 93.1424 52.4054 93.0456 52.7273C92.9489 53.0493 92.9178 53.3874 92.9542 53.7216C92.9872 54.0553 93.0859 54.3791 93.2447 54.6744C93.4035 54.9697 93.6192 55.2307 93.8794 55.4422L94.5316 55.9615C94.8017 56.1753 95.1117 56.3333 95.4435 56.4263C95.7752 56.5193 96.1221 56.5454 96.4641 56.5031C97.1538 56.4237 97.7858 56.0794 98.2263 55.5427C98.647 55.0085 98.843 54.3316 98.773 53.6553C98.6912 52.9846 98.3487 52.3731 97.8194 51.9531L97.2574 51.4235L96.8528 51.8801Z" fill="#100310"/>
<path d="M60.5137 19.8262C70.4244 19.4524 80.1362 22.6736 87.8589 28.8962L60.5137 19.8262Z" fill="#FCCF00"/>
<path d="M60.5323 20.3859C70.3104 20.0277 79.8885 23.2154 87.5018 29.3616C87.5609 29.4092 87.6289 29.4446 87.7018 29.4657C87.7747 29.4868 87.851 29.4933 87.9265 29.4848C88.0019 29.4762 88.0749 29.4528 88.1412 29.4159C88.2075 29.379 88.2658 29.3293 88.3128 29.2697C88.4016 29.1474 88.4414 28.9964 88.4244 28.8463C88.4073 28.6962 88.3347 28.5579 88.2209 28.4586C80.387 22.1546 70.5435 18.885 60.4947 19.2493C60.3432 19.2578 60.2008 19.3245 60.0972 19.4354C59.9936 19.5464 59.9368 19.693 59.9385 19.8447C59.9408 19.9197 59.9581 19.9933 59.9894 20.0614C60.0207 20.1295 60.0654 20.1906 60.1208 20.2411C60.1762 20.2916 60.2412 20.3304 60.3119 20.3553C60.3825 20.3802 60.4575 20.3906 60.5323 20.3859Z" fill="#100310"/>
<path d="M50.1391 21.4251C51.8657 20.9556 53.6074 20.4843 55.4128 20.1732L50.1391 21.4251Z" fill="#FCCF00"/>
<path d="M50.282 22.0334C52.0237 21.5622 53.7369 21.1093 55.5123 20.8016C55.5863 20.7894 55.657 20.7625 55.7203 20.7224C55.7836 20.6823 55.8383 20.6299 55.8809 20.5683C55.9236 20.5067 55.9535 20.4372 55.9688 20.3638C55.984 20.2905 55.9844 20.2148 55.9699 20.1413C55.9575 20.0667 55.9306 19.9953 55.8906 19.9312C55.8507 19.8671 55.7984 19.8115 55.7369 19.7676C55.6754 19.7237 55.6059 19.6923 55.5322 19.6754C55.4586 19.6584 55.3823 19.6561 55.3078 19.6687C53.4741 19.9982 51.7174 20.4712 49.9891 20.9257C49.8446 20.9683 49.7218 21.0645 49.6461 21.1948C49.5703 21.325 49.5473 21.4793 49.5817 21.626C49.6209 21.7727 49.7166 21.8979 49.8478 21.9742C49.979 22.0506 50.1352 22.0718 50.282 22.0334Z" fill="#100310"/>
<path d="M23.7853 78.9664C21.215 73.5953 19.8344 67.7327 19.7378 61.779L23.7853 78.9664Z" fill="#FCCF00"/>
<path d="M24.2918 78.7223C22.3269 74.6211 21.0715 70.2164 20.5789 65.6956C20.4308 64.3889 20.2827 63.0822 20.3165 61.7701C20.3079 61.6186 20.2412 61.4762 20.1303 61.3726C20.0194 61.269 19.8728 61.2122 19.721 61.2139C19.6459 61.2141 19.5715 61.2293 19.5024 61.2589C19.4333 61.2884 19.3708 61.3315 19.3187 61.3857C19.2667 61.4398 19.2261 61.504 19.1993 61.5742C19.1726 61.6444 19.1602 61.7193 19.1631 61.7944C19.195 63.1497 19.2865 64.4933 19.4374 65.825C19.9478 70.479 21.2435 75.0128 23.2697 79.2337C23.3366 79.3684 23.4537 79.4715 23.5958 79.5208C23.7379 79.5701 23.8937 79.5617 24.0297 79.4974C24.0982 79.4641 24.1594 79.4176 24.2097 79.3605C24.2601 79.3033 24.2985 79.2368 24.3229 79.1647C24.3473 79.0925 24.3571 79.0163 24.3518 78.9403C24.3464 78.8644 24.326 78.7903 24.2918 78.7223Z" fill="#100310"/>
<path d="M28.7872 86.9775C27.6708 85.5828 26.6492 84.0861 25.6895 82.5977L28.7872 86.9775Z" fill="#FCCF00"/>
<path d="M29.2346 86.6205C28.1332 85.2241 27.1218 83.8175 26.157 82.284C26.0744 82.1601 25.9469 82.073 25.8014 82.0413C25.6559 82.0095 25.5038 82.0355 25.3771 82.1138C25.3122 82.1535 25.2561 82.206 25.2121 82.2681C25.1682 82.3302 25.1375 82.4006 25.1217 82.475C25.1059 82.5494 25.1055 82.6262 25.1204 82.7008C25.1354 82.7754 25.1654 82.8461 25.2086 82.9087C26.17 84.4122 27.2015 85.8622 28.3415 87.3302C28.3841 87.3992 28.4409 87.4584 28.5081 87.5039C28.5753 87.5494 28.6514 87.5801 28.7313 87.5941C28.8112 87.608 28.8932 87.6049 28.9718 87.5849C29.0504 87.5649 29.1239 87.5284 29.1875 87.478C29.251 87.4275 29.3031 87.3641 29.3403 87.292C29.3776 87.22 29.3992 87.1408 29.4036 87.0598C29.4081 86.9788 29.3953 86.8978 29.3662 86.822C29.3371 86.7463 29.2922 86.6776 29.2346 86.6205Z" fill="#100310"/>
<path d="M91.6219 71.4902L97.022 72.2928C97.1715 72.313 97.3229 72.2736 97.4436 72.1831C97.5643 72.0925 97.6445 71.9582 97.6669 71.809C97.6871 71.6595 97.6477 71.508 97.5571 71.3874C97.4666 71.2667 97.3322 71.1865 97.1831 71.1641L91.798 70.3598C91.7195 70.3385 91.6374 70.3342 91.5571 70.3471C91.4767 70.36 91.4001 70.3898 91.3322 70.4346C91.2642 70.4793 91.2066 70.538 91.163 70.6067C91.1195 70.6754 91.091 70.7526 91.0795 70.8331C91.068 70.9136 91.0737 70.9957 91.0963 71.0738C91.1189 71.152 91.1579 71.2244 91.2106 71.2864C91.2633 71.3483 91.3286 71.3984 91.4021 71.4332C91.4756 71.4681 91.5556 71.4869 91.637 71.4885" fill="#100310"/>
<path d="M66.8985 67.9624L88.5435 71.0308C88.6836 71.0335 88.82 70.9849 88.9267 70.8941C89.0335 70.8032 89.1034 70.6765 89.1232 70.5377C89.143 70.3989 89.1114 70.2576 89.0343 70.1406C88.9572 70.0235 88.8399 69.9387 88.7045 69.9021L67.0596 66.8336C66.9843 66.8215 66.9074 66.8245 66.8332 66.8424C66.7591 66.8603 66.6893 66.8928 66.6279 66.938C66.5664 66.9832 66.5146 67.0402 66.4754 67.1056C66.4363 67.1711 66.4105 67.2437 66.3997 67.3192C66.3795 67.4687 66.4189 67.6201 66.5094 67.7408C66.6 67.8614 66.7343 67.9417 66.8835 67.9641" fill="#100310"/>
<path d="M65.2807 92.2108C65.2088 92.9187 65.1219 93.6283 65.0367 94.3529C65.0222 94.5038 65.0678 94.6543 65.1638 94.7717C65.2597 94.889 65.3981 94.9637 65.5489 94.9794C65.6977 94.9947 65.8466 94.9513 65.964 94.8584C66.0813 94.7656 66.1578 94.6306 66.1771 94.4823C66.2623 93.7576 66.3342 93.0497 66.4211 92.3401C66.4307 92.2651 66.4254 92.1889 66.4055 92.1159C66.3857 92.043 66.3516 91.9746 66.3052 91.9149C66.2589 91.8551 66.2012 91.8051 66.1355 91.7677C66.0697 91.7303 65.9973 91.7062 65.9222 91.6969C65.7694 91.6822 65.6169 91.7276 65.4971 91.8236C65.3773 91.9195 65.2997 92.0585 65.2807 92.2108Z" fill="#100310"/>
<path d="M60.231 75.5799C62.1742 77.3658 63.5864 79.6536 64.3119 82.191C64.7548 83.646 65.0616 85.139 65.2282 86.6508C65.281 87.1164 65.3337 87.582 65.3848 88.0326C65.3807 88.1158 65.3947 88.1989 65.4259 88.2761C65.4571 88.3533 65.5047 88.4228 65.5654 88.4798C65.6262 88.5368 65.6985 88.5799 65.7776 88.6062C65.8566 88.6324 65.9404 88.6411 66.0232 88.6318C66.106 88.6224 66.1857 88.5951 66.2569 88.5518C66.328 88.5086 66.3889 88.4504 66.4354 88.3812C66.4818 88.3121 66.5126 88.2337 66.5257 88.1514C66.5388 88.0692 66.5339 87.985 66.5113 87.9049C66.4568 87.4243 66.4 86.9236 66.341 86.403C66.1668 84.8512 65.8505 83.3187 65.3961 81.8247C64.6001 79.0987 63.075 76.6417 60.9853 74.7186C60.8703 74.6445 60.7326 74.6138 60.597 74.6321C60.4614 74.6505 60.3368 74.7167 60.2456 74.8187C60.1545 74.9208 60.1027 75.052 60.0998 75.1888C60.0968 75.3256 60.1427 75.459 60.2293 75.5649L60.231 75.5799Z" fill="#100310"/>
<path d="M68.3591 12.0159C76.995 13.262 85.1414 16.792 91.9562 22.2409C92.0737 22.3345 92.2236 22.3776 92.3729 22.3607C92.4468 22.3523 92.5184 22.3294 92.5834 22.2934C92.6485 22.2574 92.7059 22.2089 92.7522 22.1507C92.7986 22.0925 92.833 22.0257 92.8535 21.9542C92.8741 21.8828 92.8803 21.8079 92.872 21.734C92.8636 21.6601 92.8407 21.5885 92.8047 21.5234C92.7687 21.4584 92.7202 21.401 92.662 21.3547C85.6944 15.7714 77.3581 12.1569 68.5202 10.8871C68.4417 10.8659 68.3595 10.8616 68.2792 10.8745C68.1989 10.8874 68.1222 10.9172 68.0543 10.9619C67.9864 11.0067 67.9287 11.0653 67.8852 11.134C67.8416 11.2027 67.8132 11.2799 67.8017 11.3604C67.7902 11.441 67.7959 11.523 67.8185 11.6012C67.8411 11.6793 67.8801 11.7518 67.9328 11.8137C67.9855 11.8757 68.0507 11.9257 68.1242 11.9606C68.1977 11.9954 68.2778 12.0143 68.3591 12.0159Z" fill="#100310"/>
<path d="M53.5414 12.1429C54.3224 12.0544 55.1034 11.9659 55.8844 11.8773C57.3864 11.7071 59.0234 11.5215 60.6093 11.5547C60.7585 11.5467 60.8992 11.4823 61.0028 11.3746C61.1063 11.2668 61.1651 11.1237 61.1672 10.9743C61.1624 10.8198 61.0971 10.6733 60.9854 10.5665C60.8737 10.4596 60.7246 10.4009 60.57 10.403C59.0528 10.4381 57.3621 10.5537 55.755 10.7359C54.959 10.8261 54.163 10.9163 53.367 11.0066C53.2838 11.0024 53.2007 11.0165 53.1235 11.0476C53.0463 11.0788 52.9767 11.1264 52.9197 11.1872C52.8627 11.2479 52.8196 11.3203 52.7934 11.3993C52.7672 11.4784 52.7584 11.5622 52.7678 11.6449C52.7772 11.7277 52.8045 11.8074 52.8477 11.8786C52.891 11.9498 52.9492 12.0107 53.0184 12.0571C53.0875 12.1035 53.1659 12.1344 53.2482 12.1475C53.3304 12.1606 53.4145 12.1557 53.4947 12.133L53.5414 12.1429Z" fill="#100310"/>
<path d="M53.2846 109.44C51.2957 109.138 49.3298 108.7 47.401 108.129C47.3298 108.107 47.2549 108.1 47.1807 108.108C47.1066 108.115 47.0347 108.138 46.9693 108.173C46.9039 108.209 46.8463 108.257 46.7999 108.316C46.7536 108.374 46.7193 108.441 46.6992 108.513C46.6772 108.585 46.6698 108.661 46.6773 108.737C46.6849 108.812 46.7072 108.885 46.743 108.951C46.7788 109.018 46.8274 109.077 46.8861 109.125C46.9447 109.172 47.0122 109.208 47.0847 109.23C49.0558 109.809 51.0631 110.258 53.0935 110.572C53.2436 110.597 53.3976 110.562 53.5217 110.474C53.6457 110.385 53.7297 110.251 53.7551 110.101C53.7764 109.952 53.7395 109.8 53.6519 109.677C53.5644 109.554 53.4329 109.469 53.2846 109.44Z" fill="#100310"/>
<path d="M77.732 107.306C74.2521 108.546 70.6406 109.379 66.9694 109.789C63.569 110.181 60.137 110.219 56.7289 109.9C56.6532 109.893 56.5768 109.902 56.5043 109.924C56.4318 109.947 56.3645 109.984 56.3064 110.033C56.2482 110.082 56.2004 110.142 56.1657 110.21C56.131 110.278 56.1101 110.352 56.1041 110.427C56.0972 110.502 56.1055 110.578 56.1284 110.649C56.1513 110.721 56.1884 110.787 56.2374 110.844C56.2864 110.901 56.3465 110.947 56.4138 110.98C56.4812 111.014 56.5546 111.033 56.6296 111.037C63.8625 111.706 71.1544 110.806 78.0082 108.401C78.1516 108.352 78.2698 108.248 78.337 108.112C78.4043 107.976 78.4151 107.819 78.3671 107.676C78.3187 107.551 78.2295 107.447 78.1141 107.38C77.9987 107.313 77.864 107.287 77.732 107.306Z" fill="#100310"/>
<path d="M25.9802 51.349C25.3798 53.227 25.5482 55.2664 26.4485 57.0205C27.3487 58.7746 28.9074 60.1005 30.7832 60.7077C31.7058 61.0221 32.6816 61.1502 33.6541 61.0845C34.6265 61.0188 35.5762 60.7606 36.4481 60.325C37.32 59.8893 38.0967 59.2849 38.7331 58.5467C39.3695 57.8085 39.853 56.9513 40.1555 56.0248C40.7749 54.139 40.6198 52.0845 39.7243 50.3131C38.8289 48.5417 37.2664 47.1986 35.3807 46.5792C33.4949 45.9598 31.4404 46.1149 29.669 47.0104C27.8976 47.9059 26.5545 49.4683 25.9351 51.3541L25.9802 51.349Z" fill="#FA0002"/>
<path fill-rule="evenodd" clip-rule="evenodd" d="M25.4439 51.1819C25.9261 49.6668 26.8474 48.329 28.0911 47.3383C29.3347 46.3476 30.8446 45.7486 32.4291 45.6172C34.0137 45.4859 35.6016 45.8282 36.9914 46.6006C38.3811 47.373 39.5102 48.5409 40.2353 49.9559C40.9603 51.371 41.2488 52.9695 41.064 54.5487C40.8793 56.128 40.2296 57.6167 39.1975 58.8262C38.1654 60.0357 36.7973 60.9114 35.2667 61.3422C33.7362 61.7729 32.1122 61.7394 30.6007 61.2459C28.5871 60.5884 26.915 59.1615 25.949 57.2763C24.983 55.3911 24.8014 53.2004 25.4439 51.1819ZM35.185 47.2026C34.3349 46.915 33.4363 46.7985 32.5409 46.8598C31.6456 46.921 30.7712 47.1589 29.9682 47.5596C29.1652 47.9603 28.4495 48.5159 27.8622 49.1945C27.2749 49.873 26.8276 50.6611 26.5463 51.5133C26 53.2447 26.159 55.1218 26.9886 56.7367C27.8182 58.3517 29.2515 59.574 30.9772 60.1384C31.8281 60.4253 32.7275 60.541 33.6234 60.4786C34.5192 60.4162 35.3939 60.177 36.1969 59.7749C36.9998 59.3727 37.7152 58.8155 38.3017 58.1355C38.8883 57.4554 39.3343 56.666 39.6141 55.8126C40.1559 54.0834 39.9949 52.2103 39.166 50.5989C38.337 48.9875 36.9068 47.7674 35.185 47.2026Z" fill="#100310"/>
<path d="M34.4175 50.7748C34.3429 50.9741 34.3113 51.1868 34.3246 51.3992C34.3379 51.6115 34.3959 51.8187 34.4948 52.007C34.5937 52.1954 34.7313 52.3608 34.8985 52.4924C35.0657 52.6239 35.2588 52.7187 35.4652 52.7705C35.8701 52.9069 36.3126 52.8775 36.696 52.6886C37.0793 52.4998 37.3723 52.167 37.5111 51.7628C37.5861 51.5644 37.6185 51.3525 37.6063 51.1408C37.594 50.929 37.5374 50.7223 37.44 50.5339C37.3426 50.3455 37.2066 50.1797 37.041 50.0473C36.8753 49.9149 36.6836 49.8188 36.4784 49.7653C36.0711 49.6286 35.6264 49.6579 35.2406 49.8468C34.8548 50.0358 34.5591 50.3692 34.4175 50.7748Z" fill="white"/>
<path fill-rule="evenodd" clip-rule="evenodd" d="M33.8878 50.6534C34.0788 50.1061 34.4789 49.6567 35.0005 49.4038C35.5221 49.1508 36.1226 49.1147 36.6707 49.3035C37.1924 49.491 37.6213 49.8731 37.8676 50.3698C38.1139 50.8664 38.1585 51.4392 37.992 51.9679C37.8988 52.2382 37.7533 52.4875 37.5637 52.7016C37.3742 52.9156 37.1443 53.0902 36.8873 53.2154C36.6303 53.3406 36.3511 53.414 36.0657 53.4313C35.7803 53.4485 35.4943 53.4094 35.224 53.3161C34.6976 53.1348 34.2631 52.7546 34.0134 52.257C33.7636 51.7594 33.7186 51.1838 33.8878 50.6534ZM36.2908 50.3809C36.028 50.2896 35.7398 50.3054 35.4886 50.425C35.2373 50.5446 35.0433 50.7583 34.9485 51.0199C34.9084 51.1491 34.8945 51.285 34.9077 51.4196C34.9209 51.5542 34.961 51.6848 35.0255 51.8037C35.09 51.9226 35.1777 52.0273 35.2834 52.1118C35.3891 52.1962 35.5106 52.2586 35.6408 52.2953C35.9014 52.3822 36.1857 52.3643 36.4334 52.2454C36.6811 52.1265 36.8729 51.9158 36.968 51.6581C37.0087 51.5298 37.0235 51.3947 37.0113 51.2606C36.9992 51.1266 36.9605 50.9963 36.8974 50.8774C36.8344 50.7585 36.7483 50.6533 36.6441 50.5681C36.54 50.4829 36.4199 50.4192 36.2908 50.3809Z" fill="#100310"/>
<path d="M29.3024 51.9495C29.1593 52.3985 29.1965 52.8855 29.4062 53.3075C29.6159 53.7296 29.9816 54.0534 30.4258 54.2105C30.6469 54.2848 30.8809 54.3131 31.1134 54.2935C31.3458 54.274 31.5718 54.207 31.7774 54.0968C31.983 53.9865 32.1638 53.8353 32.3087 53.6525C32.4536 53.4697 32.5595 53.2592 32.6199 53.0339C32.7626 52.5871 32.7252 52.1024 32.5157 51.6828C32.3062 51.2633 31.9411 50.9422 31.4982 50.7879C31.0534 50.6767 30.5832 50.7338 30.1779 50.9482C29.7726 51.1626 29.4608 51.5192 29.3024 51.9495Z" fill="white"/>
<path fill-rule="evenodd" clip-rule="evenodd" d="M28.8383 51.74C29.047 51.1786 29.4543 50.7132 29.9831 50.4318C30.5118 50.1504 31.1254 50.0726 31.7076 50.213C32.2897 50.4201 32.7682 50.846 33.0412 51.4002C33.3142 51.9544 33.3604 52.5933 33.1698 53.181C33.0819 53.4697 32.9377 53.7381 32.7455 53.9707C32.5532 54.2033 32.3167 54.3954 32.0497 54.536C31.7827 54.6767 31.4905 54.7629 31.1899 54.7899C30.8894 54.8168 30.5865 54.7839 30.2987 54.693C29.7204 54.4856 29.245 54.0619 28.9726 53.5112C28.7003 52.9605 28.6521 52.3256 28.8383 51.74ZM31.4063 51.312C31.1105 51.2624 30.8067 51.3165 30.5464 51.4653C30.286 51.614 30.085 51.8482 29.9776 52.1281C29.8867 52.4338 29.9172 52.7629 30.0627 53.0467C30.2082 53.3305 30.4575 53.5473 30.7588 53.652C30.9044 53.6953 31.0572 53.7093 31.2083 53.6932C31.3594 53.677 31.5057 53.6311 31.6389 53.558C31.7721 53.4849 31.8895 53.3861 31.9842 53.2673C32.079 53.1485 32.1492 53.0121 32.1909 52.866C32.2375 52.7081 32.2521 52.5425 32.2339 52.3788C32.2158 52.2152 32.1652 52.0568 32.0852 51.913C32.0051 51.7691 31.8972 51.6426 31.7678 51.5409C31.6383 51.4392 31.4899 51.3643 31.3312 51.3205L31.4063 51.312Z" fill="#100310"/>
<path d="M34.8522 56.0767C34.7592 56.2822 34.7134 56.5061 34.7182 56.7317C34.7229 56.9573 34.7782 57.1789 34.8798 57.3804C34.9814 57.5819 35.1268 57.7581 35.3054 57.896C35.484 58.0339 35.6912 58.1301 35.9118 58.1775C36.3294 58.3051 36.78 58.268 37.171 58.0737C37.5621 57.8795 37.8639 57.5428 38.0144 57.1329C38.1074 56.9273 38.1532 56.7035 38.1485 56.4779C38.1437 56.2523 38.0885 56.0307 37.9868 55.8292C37.8852 55.6277 37.7398 55.4515 37.5612 55.3136C37.3826 55.1757 37.1754 55.0795 36.9548 55.0321C36.7485 54.9565 36.529 54.9238 36.3096 54.9358C36.0903 54.9479 35.8757 55.0046 35.6789 55.1023C35.4822 55.2001 35.3074 55.3369 35.1653 55.5044C35.0231 55.6719 34.9166 55.8666 34.8522 56.0767Z" fill="white"/>
<path fill-rule="evenodd" clip-rule="evenodd" d="M37.1368 54.4805C36.8608 54.3843 36.5683 54.3443 36.2767 54.3628C35.985 54.3813 35.6999 54.4579 35.4383 54.5882C35.1767 54.7185 34.9437 54.8998 34.7532 55.1215C34.5627 55.3431 34.4184 55.6007 34.3289 55.8789C34.2142 56.1601 34.1605 56.4624 34.1713 56.7659C34.1821 57.0694 34.2571 57.3671 34.3915 57.6395C34.5259 57.9118 34.7166 58.1525 34.9509 58.3457C35.1852 58.5389 35.4579 58.6801 35.7508 58.7602C36.3206 58.9435 36.9397 58.8941 37.4732 58.6227C38.0067 58.3514 38.4112 57.8801 38.5986 57.3116C38.7043 57.0306 38.7499 56.7304 38.7324 56.4306C38.7148 56.1309 38.6346 55.8381 38.4968 55.5713C38.359 55.3044 38.1668 55.0695 37.9325 54.8816C37.6982 54.6937 37.4272 54.5571 37.1368 54.4805ZM36.7736 55.5713C36.6336 55.5087 36.4814 55.4777 36.328 55.4806C36.1746 55.4835 36.0238 55.5202 35.8862 55.5881C35.7486 55.656 35.6277 55.7534 35.5321 55.8734C35.4364 55.9934 35.3685 56.133 35.333 56.2823C35.2793 56.4138 35.2539 56.555 35.2583 56.697C35.2628 56.8389 35.297 56.9783 35.3589 57.1062C35.4207 57.234 35.5087 57.3474 35.6172 57.439C35.7257 57.5306 35.8523 57.5984 35.9887 57.6379C36.2722 57.7365 36.5834 57.7187 36.8538 57.5882C37.1242 57.4577 37.3318 57.2253 37.431 56.942C37.4847 56.8105 37.5102 56.6692 37.5057 56.5273C37.5012 56.3854 37.467 56.246 37.4052 56.1181C37.3433 55.9903 37.2553 55.8769 37.1468 55.7853C37.0383 55.6937 36.9117 55.6259 36.7753 55.5864L36.7736 55.5713Z" fill="#100310"/>
<path d="M75.8884 80.2993C75.4128 81.7182 75.3691 83.2464 75.7629 84.6902C76.1567 86.1339 76.9703 87.4283 78.1006 88.4092C79.2308 89.3901 80.6268 90.0133 82.1116 90.2C83.5964 90.3866 85.1032 90.1283 86.4411 89.4576C87.7789 88.787 88.8875 87.7343 89.6264 86.4329C90.3653 85.1315 90.7013 83.6401 90.5916 82.1476C90.482 80.6551 89.9317 79.2288 89.0106 78.0493C88.0894 76.8699 86.8389 75.9905 85.4174 75.5226C83.5202 74.898 81.4529 75.0499 79.6674 75.945C77.8818 76.84 76.5232 78.4055 75.8884 80.2993Z" fill="#FA0002"/>
<path fill-rule="evenodd" clip-rule="evenodd" d="M75.349 80.1178C76.0336 78.0824 77.4955 76.4004 79.4157 75.4389C81.3358 74.4774 83.5584 74.3144 85.5983 74.9856C86.6176 75.3164 87.5616 75.8451 88.3762 76.5414C89.1909 77.2376 89.8601 78.0878 90.3457 79.0431C90.8313 79.9984 91.1237 81.0401 91.206 82.1086C91.2884 83.1771 91.1591 84.2513 90.8257 85.2697C90.4953 86.2835 89.9669 87.2215 89.2712 88.0295C88.5756 88.8375 87.7265 89.4994 86.7731 89.9768C85.8197 90.4541 84.7811 90.7375 83.7174 90.8105C82.6537 90.8835 81.586 90.7446 80.5764 90.4019C79.5571 90.0711 78.6131 89.5424 77.7985 88.8461C76.9838 88.1499 76.3145 87.2998 75.8289 86.3444C75.3434 85.3891 75.051 84.3474 74.9686 83.2789C74.8863 82.2105 75.0155 81.1362 75.349 80.1178ZM85.2351 76.0764C83.9302 75.6672 82.5334 75.6528 81.2203 76.0351C79.9072 76.4173 78.7363 77.1791 77.8548 78.2247C76.9733 79.2704 76.4205 80.5532 76.2659 81.9121C76.1113 83.2709 76.3617 84.6451 76.9857 85.8621C77.6097 87.0791 78.5794 88.0845 79.7731 88.752C80.9667 89.4195 82.331 89.7193 83.6945 89.6138C85.0581 89.5084 86.36 89.0022 87.4368 88.1591C88.5136 87.3159 89.3171 86.1733 89.7465 84.8749C90.0291 84.001 90.1366 83.0799 90.0628 82.1644C89.9889 81.2489 89.7352 80.357 89.3161 79.5397C88.8971 78.7224 88.3209 77.9958 87.6206 77.4015C86.9203 76.8072 86.1097 76.3569 85.2351 76.0764Z" fill="#100310"/>
<path d="M78.5623 79.6165C78.4714 79.8882 78.4369 80.1757 78.4612 80.4612C78.4854 80.7468 78.5678 81.0243 78.7033 81.2769C78.8388 81.5294 79.0245 81.7515 79.249 81.9296C79.4736 82.1077 79.7321 82.2379 80.0089 82.3124C80.571 82.5094 81.1879 82.4788 81.7279 82.2272C82.2678 81.9755 82.688 81.5228 82.8986 80.9656C82.992 80.6928 83.0282 80.4038 83.0051 80.1164C82.9819 79.829 82.8998 79.5495 82.764 79.2952C82.6281 79.0409 82.4414 78.8173 82.2154 78.6383C81.9895 78.4593 81.729 78.3287 81.4504 78.2547C80.8866 78.059 80.2685 78.0919 79.7286 78.3465C79.1888 78.601 78.7701 79.0569 78.5623 79.6165Z" fill="white"/>
<path fill-rule="evenodd" clip-rule="evenodd" d="M78.0384 79.4185C78.2918 78.7354 78.7992 78.1765 79.4547 77.8584C80.1102 77.5403 80.8633 77.4877 81.5567 77.7115C81.9092 77.81 82.2379 77.9795 82.5226 78.2094C82.8074 78.4394 83.0422 78.725 83.2128 79.0488C83.3834 79.3727 83.4861 79.7279 83.5146 80.0928C83.5431 80.4577 83.4969 80.8246 83.3788 81.1711C83.1167 81.8509 82.6047 82.405 81.9476 82.7198C81.2905 83.0347 80.5379 83.0865 79.8438 82.8648C79.4931 82.7662 79.1663 82.597 78.8834 82.3676C78.6004 82.1382 78.3673 81.8535 78.1982 81.5308C78.0292 81.2082 77.9278 80.8544 77.9004 80.4912C77.8729 80.128 77.9199 79.763 78.0384 79.4185ZM81.2185 78.7538C80.8038 78.614 80.3512 78.6402 79.9555 78.8269C79.5597 79.0135 79.2516 79.3462 79.0958 79.755C79.0271 79.9542 79.0008 80.1654 79.0185 80.3753C79.0363 80.5852 79.0977 80.7891 79.1988 80.9738C79.3 81.1586 79.4386 81.3202 79.6059 81.4482C79.7732 81.5763 79.9653 81.6679 80.1701 81.7173C80.5848 81.8532 81.0359 81.8252 81.4306 81.639C81.8254 81.4528 82.1339 81.1226 82.2928 80.7161C82.3615 80.517 82.3878 80.3057 82.37 80.0958C82.3523 79.8859 82.2909 79.6821 82.1897 79.4973C82.0886 79.3125 81.9499 79.1509 81.7827 79.0229C81.6154 78.8949 81.4232 78.8032 81.2185 78.7538Z" fill="#100310"/>
<path d="M79.5856 85.2817C79.5094 85.5148 79.5031 85.7652 79.5677 86.0018C79.6322 86.2384 79.7647 86.451 79.9487 86.6131C80.1328 86.7752 80.3603 86.8798 80.6032 86.914C80.846 86.9482 81.0936 86.9105 81.3153 86.8054C81.5369 86.7004 81.7229 86.5327 81.8502 86.3231C81.9776 86.1135 82.0407 85.8712 82.0318 85.626C82.0229 85.3809 81.9423 85.1438 81.8 84.944C81.6578 84.7442 81.4601 84.5905 81.2314 84.5019C81.0725 84.4403 80.9027 84.4117 80.7324 84.4179C80.5621 84.4241 80.3948 84.465 80.2408 84.5379C80.0868 84.6109 79.9493 84.7145 79.8367 84.8424C79.724 84.9703 79.6386 85.1197 79.5856 85.2817Z" fill="white"/>
<path fill-rule="evenodd" clip-rule="evenodd" d="M81.3696 83.9683C81.7121 84.0858 82.012 84.3022 82.2313 84.5902C82.4507 84.8782 82.5796 85.2248 82.6019 85.5862C82.6241 85.9475 82.5385 86.3073 82.3561 86.62C82.1737 86.9328 81.9025 87.1843 81.5771 87.3428C81.2516 87.5013 80.8863 87.5596 80.5277 87.5104C80.169 87.4612 79.833 87.3066 79.5622 87.0663C79.2915 86.8259 79.0981 86.5107 79.0067 86.1604C78.9152 85.8101 78.9298 85.4405 79.0486 85.0985C79.1254 84.871 79.2467 84.661 79.4054 84.4807C79.5641 84.3005 79.757 84.1535 79.9729 84.0483C80.1888 83.9432 80.4234 83.882 80.6632 83.8683C80.903 83.8545 81.1431 83.8885 81.3696 83.9683ZM80.9897 85.0458C80.9066 85.0167 80.8186 85.0044 80.7307 85.0096C80.6428 85.0147 80.5567 85.0373 80.4776 85.076C80.3985 85.1147 80.3279 85.1687 80.2698 85.2349C80.2118 85.3011 80.1674 85.3782 80.1394 85.4617C80.1102 85.5448 80.0979 85.6328 80.1031 85.7208C80.1083 85.8087 80.1309 85.8947 80.1696 85.9738C80.2082 86.0529 80.2623 86.1235 80.3285 86.1816C80.3947 86.2397 80.4717 86.284 80.5552 86.312C80.7255 86.3672 80.9105 86.3546 81.0716 86.2768C81.2328 86.199 81.3578 86.0621 81.4206 85.8945C81.4497 85.8114 81.4621 85.7233 81.4569 85.6354C81.4517 85.5475 81.4291 85.4615 81.3904 85.3824C81.3517 85.3033 81.2977 85.2326 81.2315 85.1746C81.1653 85.1165 81.0882 85.0722 81.0048 85.0441L80.9897 85.0458Z" fill="#100310"/>
<path d="M62.0166 25.4483C64.3541 26.227 66.4081 27.6816 67.9188 29.6279C69.4296 31.5742 70.3291 33.9248 70.5037 36.3824C70.6783 38.8401 70.12 41.2943 68.8996 43.4346C67.6791 45.5749 65.8513 47.3051 63.6473 48.4064C61.4433 49.5077 58.9622 49.9307 56.5179 49.6217C54.0735 49.3127 51.7757 48.2856 49.9151 46.6705C48.0545 45.0554 46.7148 42.9247 46.0653 40.548C45.4159 38.1713 45.4859 35.6554 46.2666 33.3186C47.316 30.1896 49.5631 27.6042 52.5153 26.129C55.4675 24.6538 58.8842 24.409 62.0166 25.4483Z" fill="#100310"/>
<path d="M61.6784 26.4921C63.8089 27.2078 65.6794 28.5391 67.0535 30.3176C68.4276 32.0961 69.2437 34.242 69.3985 36.4842C69.5533 38.7263 69.04 40.9641 67.9233 42.9145C66.8067 44.865 65.1369 46.4407 63.125 47.4424C61.1131 48.4442 58.8494 48.827 56.6199 48.5425C54.3905 48.258 52.2955 47.319 50.5996 45.8442C48.9037 44.3693 47.6831 42.4248 47.092 40.2564C46.501 38.088 46.566 35.7931 47.2789 33.6616C47.7511 32.2437 48.4986 30.9329 49.4786 29.8045C50.4586 28.6761 51.6518 27.7524 52.9896 27.0862C54.3275 26.4201 55.7837 26.0247 57.2748 25.9228C58.7658 25.8208 60.2623 26.0143 61.6784 26.4921Z" fill="#FE7E00"/>
<path d="M63.5695 37.397C63.3854 36.8622 63.0261 36.4052 62.5497 36.1002C62.0733 35.7952 61.5079 35.6602 60.9451 35.7169C61.1834 35.3279 61.3104 34.881 61.3123 34.4248C61.3142 33.9686 61.191 33.5206 60.956 33.1296C60.8714 32.819 60.7212 32.5302 60.5155 32.2826C60.3098 32.035 60.0534 31.8344 59.7636 31.6943C59.4738 31.5541 59.1574 31.4777 58.8356 31.4702C58.5138 31.4627 58.1941 31.5243 57.8981 31.6508L57.2602 30.0498L55.8094 30.6706L56.4302 32.1214L55.7133 32.5069L55.0925 31.0561L53.6416 31.6769L54.2625 33.1278L52.9618 33.7316L52.0947 34.1341L52.7155 35.5849C52.8293 35.5316 52.9526 35.5013 53.0781 35.4958C53.2037 35.4902 53.3291 35.5096 53.4471 35.5528C53.5651 35.596 53.6734 35.6621 53.7658 35.7474C53.8581 35.8326 53.9327 35.9353 53.9852 36.0495L56.3663 40.9517C56.4231 41.0851 56.4527 41.2285 56.4532 41.3735C56.4538 41.5185 56.4255 41.6621 56.3698 41.7959C56.3141 41.9298 56.2322 42.0512 56.129 42.1529C56.0258 42.2547 55.9032 42.3348 55.7686 42.3886L56.3894 43.8394L57.4067 43.4199L58.7074 42.8161L59.4954 44.4001L60.9463 43.7793L60.1582 42.1953L61.0253 41.7927L61.8134 43.3767L63.2642 42.7559L62.309 41.0387C62.6399 40.8928 62.9371 40.6801 63.1821 40.4141C63.4271 40.1481 63.6147 39.8344 63.733 39.4926C63.8513 39.1508 63.8978 38.7883 63.8697 38.4278C63.8415 38.0672 63.7394 37.7163 63.5695 37.397ZM55.467 34.3603L57.3344 33.388C58.3517 32.9685 59.1197 33.0335 59.5392 34.0508C59.6307 34.2505 59.6775 34.4677 59.6765 34.6873C59.6755 34.9069 59.6266 35.1236 59.5333 35.3224C59.4401 35.5212 59.3046 35.6973 59.1363 35.8384C58.968 35.9795 58.771 36.0823 58.559 36.1395L56.3913 37.1459L55.1837 34.5446L55.467 34.3603ZM60.8381 40.1406L58.5201 41.164L58.3699 41.181L56.9951 38.4465L59.4632 37.4061C60.6137 36.8194 61.5319 36.8674 61.9514 37.8847C62.371 38.902 61.9885 39.5538 60.8381 40.1406Z" fill="#100310"/>
<path d="M58.7014 78.7197C60.3365 80.5623 61.3884 82.8483 61.7243 85.2887C62.0601 87.7291 61.6647 90.2143 60.5881 92.43C59.5115 94.6457 57.8021 96.4923 55.6759 97.7365C53.5498 98.9806 51.1025 99.5664 48.6435 99.4196C46.1844 99.2728 43.8241 98.4002 41.8611 96.912C39.898 95.4238 38.4203 93.3869 37.6149 91.0589C36.8095 88.7309 36.7125 86.2163 37.3362 83.8332C37.9599 81.45 39.2763 79.3054 41.1189 77.6704C43.5914 75.4818 46.831 74.3632 50.1271 74.5599C53.4232 74.7566 56.5068 76.2526 58.7014 78.7197Z" fill="#100310"/>
<path d="M57.8413 79.4559C59.3338 81.1378 60.294 83.2247 60.6003 85.4524C60.9065 87.6801 60.5451 89.9487 59.5618 91.971C58.5785 93.9933 57.0175 95.6785 55.0762 96.8134C53.1349 97.9483 50.9006 98.4819 48.656 98.3467C46.4113 98.2115 44.2572 97.4136 42.4662 96.0539C40.6752 94.6941 39.3277 92.8337 38.5943 90.708C37.8608 88.5823 37.7743 86.2868 38.3458 84.1119C38.9172 81.937 40.1209 79.9805 41.8046 78.4899C44.0601 76.4931 47.0159 75.4732 50.0228 75.6543C53.0298 75.8354 55.8418 77.2027 57.8413 79.4559Z" fill="#FE7E00"/>
<path d="M54.0469 89.8645C54.1629 89.3087 54.0848 88.73 53.8254 88.2251C53.566 87.7201 53.1412 87.3194 52.6219 87.09C53.0113 86.8712 53.3348 86.5518 53.5586 86.1651C53.7824 85.7785 53.8982 85.3389 53.894 84.8922C53.9799 84.5842 53.9992 84.2615 53.9508 83.9454C53.9023 83.6294 53.7871 83.3273 53.6128 83.0592C53.4385 82.7912 53.2091 82.5633 52.9399 82.3908C52.6707 82.2182 52.3679 82.105 52.0515 82.0586L52.2998 80.3571L50.7553 80.1519L50.5651 81.6947L49.7555 81.6647L49.9457 80.122L48.4012 79.9167L48.196 81.4612L46.7668 81.3342L45.7685 81.2496L45.5632 82.7941C45.6886 82.8014 45.8112 82.8343 45.9235 82.8907C46.0357 82.9471 46.1352 83.0259 46.216 83.1221C46.2967 83.2184 46.3569 83.3302 46.3928 83.4505C46.4288 83.5709 46.4398 83.6973 46.4252 83.8221L46.0383 89.2663C46.0193 89.4102 45.9716 89.5489 45.8982 89.6741C45.8248 89.7994 45.727 89.9087 45.6107 89.9956C45.4944 90.0825 45.3619 90.1452 45.221 90.1801C45.08 90.215 44.9335 90.2214 44.7901 90.1988L44.5999 91.7416L45.6969 91.891L47.126 92.0181L47.0064 93.781L48.5492 93.9712L48.649 92.3018L49.6023 92.3915L49.4827 94.1545L51.0255 94.3447L51.0612 92.3782C51.426 92.4306 51.7977 92.4053 52.152 92.304C52.5064 92.2027 52.8353 92.0276 53.1172 91.7902C53.3991 91.5529 53.6276 91.2586 53.7879 90.9267C53.9481 90.5948 54.0363 90.2328 54.0469 89.8645ZM48.572 83.168L50.6671 83.2652C51.7641 83.4146 52.3927 83.8606 52.2415 84.9426C52.2196 85.1601 52.1507 85.3702 52.0397 85.5584C51.9287 85.7467 51.7782 85.9087 51.5985 86.0332C51.4188 86.1576 51.2143 86.2417 50.9991 86.2795C50.7838 86.3173 50.5629 86.3079 50.3515 86.2521L47.939 86.0388L48.1948 83.1955L48.572 83.168ZM50.3117 90.8659L47.8006 90.5877L47.6654 90.603L47.8506 87.5396L50.5054 87.8776C51.7908 87.9448 52.5631 88.4506 52.4137 89.5476C52.2642 90.6446 51.5371 90.94 50.3117 90.8659Z" fill="white"/>
<path fill-rule="evenodd" clip-rule="evenodd" d="M48.8696 89.5597L50.408 89.7301C50.9397 89.7595 51.1452 89.6888 51.2026 89.6561C51.2126 89.6503 51.2126 89.6503 51.2178 89.6416L51.2184 89.6407C51.2293 89.6225 51.2641 89.5543 51.2861 89.393C51.2951 89.3263 51.295 89.2803 51.2928 89.2517C51.2913 89.2328 51.2888 89.2212 51.2874 89.2154C51.2857 89.2139 51.2835 89.212 51.2806 89.2096C51.2196 89.1601 50.9919 89.0423 50.4464 89.0137C50.4182 89.0123 50.3901 89.0097 50.3621 89.0062L48.9142 88.8219L48.8696 89.5597ZM47.8511 87.5388L50.5059 87.8767C51.7914 87.944 52.5637 88.4497 52.4142 89.5467C52.2647 90.6437 51.5376 90.9391 50.3122 90.8651L47.8011 90.5869L47.6659 90.6022L47.8511 87.5388ZM52.0521 82.0577C52.3684 82.1042 52.6713 82.2174 52.9404 82.3899C53.2096 82.5625 53.439 82.7903 53.6133 83.0584C53.7876 83.3264 53.9028 83.6285 53.9513 83.9446C53.9998 84.2606 53.9804 84.5834 53.8945 84.8913C53.8987 85.338 53.7829 85.7777 53.5591 86.1643C53.5395 86.1982 53.5191 86.2316 53.498 86.2644C53.2781 86.6061 52.9777 86.8895 52.6224 87.0892C52.9968 87.2545 53.3221 87.509 53.5717 87.8273C53.6683 87.9505 53.7535 88.0833 53.8259 88.2242C54.0853 88.7292 54.1635 89.3079 54.0474 89.8636C54.0369 90.232 53.9486 90.594 53.7884 90.9259C53.6282 91.2577 53.3996 91.552 53.1177 91.7894C52.8358 92.0267 52.5069 92.2018 52.1526 92.3031C52.0078 92.3446 51.86 92.3733 51.7111 92.3892C51.4956 92.4122 51.2774 92.4084 51.0617 92.3774L51.026 94.3438L49.4832 94.1536L49.6029 92.3906L48.6495 92.3009L48.5497 93.9704L47.007 93.7802L47.1266 92.0172L45.6974 91.8902L44.6004 91.7407L44.7906 90.1979C44.8147 90.2017 44.8388 90.2047 44.8629 90.2069C44.983 90.2176 45.1042 90.2083 45.2215 90.1793C45.3624 90.1444 45.4949 90.0816 45.6113 89.9947C45.7276 89.9078 45.8253 89.7985 45.8988 89.6733C45.9722 89.548 46.0198 89.4094 46.0388 89.2654L46.4257 83.8212C46.4403 83.6965 46.4293 83.57 46.3934 83.4497C46.3574 83.3293 46.2972 83.2176 46.2165 83.1213C46.1358 83.025 46.0362 82.9463 45.924 82.8899C45.8524 82.8539 45.7765 82.8274 45.6984 82.8111C45.6541 82.8019 45.6091 82.7959 45.5638 82.7932L45.769 81.2487L46.7674 81.3333L48.1965 81.4604L48.4017 79.9159L49.9462 80.1211L49.756 81.6639L50.5656 81.6938L50.7559 80.151L52.3003 80.3563L52.0521 82.0577ZM53.3146 81.2909C53.3964 81.3344 53.4766 81.3812 53.5548 81.4313C53.9601 81.6911 54.3054 82.0342 54.5678 82.4377C54.8302 82.8413 55.0037 83.2961 55.0767 83.7719C55.1415 84.1942 55.1258 84.6245 55.031 85.0401C55.0105 85.6355 54.8438 86.2176 54.5445 86.7346C54.4905 86.828 54.4325 86.9186 54.3707 87.0063C54.5521 87.2186 54.7095 87.4524 54.8387 87.704C55.2017 88.4108 55.3215 89.2165 55.1813 89.9967C55.1539 90.4907 55.0291 90.9747 54.8137 91.4209C54.5838 91.8972 54.2557 92.3196 53.851 92.6603C53.4464 93.001 52.9743 93.2524 52.4657 93.3978C52.3715 93.4248 52.2764 93.448 52.1807 93.4674L52.1644 94.3645C52.1586 94.6871 52.0161 94.992 51.7725 95.2035C51.5289 95.4151 51.2069 95.5133 50.8867 95.4738L49.3439 95.2836C49.1471 95.2593 48.9678 95.186 48.8171 95.0771C48.6854 95.1089 48.5477 95.1173 48.4104 95.1004L46.8676 94.9102C46.2677 94.8362 45.8301 94.3063 45.871 93.7031L45.9151 93.0526L45.5966 93.0243C45.579 93.0227 45.5613 93.0207 45.5437 93.0183L44.4467 92.8689C43.8293 92.7847 43.3942 92.2199 43.4704 91.6014L43.6606 90.0586C43.6984 89.7524 43.8588 89.4746 44.1052 89.2888C44.3365 89.1144 44.625 89.0352 44.9116 89.0658L45.279 83.8956C45.0482 83.836 44.8399 83.7048 44.6858 83.5181C44.4842 83.274 44.3934 82.957 44.4351 82.6433L44.6403 81.0988C44.7204 80.4963 45.2595 80.0629 45.8651 80.1142L46.8682 80.1992L47.2115 80.2298L47.2731 79.7659C47.3129 79.4666 47.4699 79.1953 47.7097 79.0118C47.9495 78.8282 48.2524 78.7475 48.5517 78.7872L50.0962 78.9925C50.2 79.0063 50.2987 79.0336 50.3907 79.0726C50.5548 79.0171 50.7309 78.9991 50.9058 79.0224L52.4503 79.2276C52.7522 79.2677 53.0253 79.4271 53.2089 79.67C53.3924 79.913 53.4709 80.2194 53.427 80.5207L53.3146 81.2909ZM52.2421 84.9417C52.3932 83.8597 51.7646 83.4138 50.6676 83.2643L48.5725 83.1671L48.1953 83.1947L47.9396 86.0379L50.3521 86.2513C50.5634 86.3071 50.7843 86.3164 50.9996 86.2786C51.2149 86.2408 51.4194 86.1568 51.599 86.0323C51.7787 85.9078 51.9292 85.7459 52.0402 85.5576C52.1512 85.3693 52.2201 85.1592 52.2421 84.9417ZM49.1757 85.0042L50.4524 85.1171C50.5167 85.1228 50.5805 85.134 50.6429 85.1505C50.6951 85.1642 50.7496 85.1665 50.8027 85.1572C50.8558 85.1479 50.9063 85.1272 50.9506 85.0964C50.9949 85.0657 51.0321 85.0258 51.0595 84.9793C51.0869 84.9328 51.1038 84.881 51.1093 84.8273C51.1107 84.8129 51.1125 84.7985 51.1145 84.7842C51.1319 84.659 51.1252 84.5909 51.1203 84.5635C51.1161 84.5605 51.1105 84.5569 51.1035 84.5527C51.0816 84.5396 51.0468 84.5219 50.9949 84.5023C50.8959 84.4648 50.7548 84.428 50.5609 84.3992L49.2357 84.3377L49.1757 85.0042Z" fill="#100310"/>
<path d="M62.0185 25.4522C64.356 26.231 66.4101 27.6855 67.9208 29.6318C69.4315 31.5781 70.3311 33.9287 70.5057 36.3863C70.6802 38.844 70.122 41.2982 68.9015 43.4385C67.6811 45.5788 65.8532 47.309 63.6493 48.4103C61.4453 49.5117 58.9642 49.9346 56.5198 49.6256C54.0755 49.3166 51.7776 48.2895 49.9171 46.6744C48.0565 45.0593 46.7167 42.9286 46.0673 40.5519C45.4178 38.1753 45.4879 35.6593 46.2685 33.3225C47.318 30.1935 49.565 27.6081 52.5173 26.1329C55.4695 24.6577 58.8861 24.4129 62.0185 25.4522Z" fill="#100310"/>
<path d="M61.6804 26.4941C63.8109 27.2098 65.6814 28.541 67.0555 30.3195C68.4296 32.098 69.2456 34.244 69.4004 36.4861C69.5553 38.7283 69.0419 40.966 67.9253 42.9165C66.8086 44.867 65.1389 46.4427 63.1269 47.4444C61.115 48.4461 58.8513 48.829 56.6219 48.5445C54.3925 48.26 52.2974 47.321 50.6015 45.8461C48.9056 44.3713 47.685 42.4268 47.094 40.2584C46.5029 38.09 46.568 35.795 47.2809 33.6636C47.753 32.2456 48.5006 30.9348 49.4806 29.8065C50.4606 28.6781 51.6537 27.7543 52.9916 27.0882C54.3294 26.4221 55.7857 26.0267 57.2767 25.9247C58.7678 25.8228 60.2643 26.0163 61.6804 26.4941Z" fill="#FE7E00"/>
<path d="M63.5714 37.399C63.3874 36.8641 63.028 36.4071 62.5517 36.1022C62.0753 35.7972 61.5098 35.6621 60.947 35.7189C61.1853 35.3299 61.3123 34.8829 61.3143 34.4268C61.3162 33.9706 61.193 33.5226 60.958 33.1316C60.8734 32.821 60.7231 32.5322 60.5174 32.2846C60.3117 32.037 60.0554 31.8364 59.7656 31.6962C59.4758 31.5561 59.1593 31.4797 58.8375 31.4722C58.5157 31.4647 58.196 31.5263 57.9 31.6527L57.2622 30.0517L55.8113 30.6725L56.4322 32.1234L55.7153 32.5089L55.0944 31.058L53.6436 31.6789L54.2644 33.1297L52.9638 33.7335L52.0967 34.1361L52.7175 35.5869C52.8313 35.5335 52.9545 35.5032 53.0801 35.4977C53.2056 35.4922 53.331 35.5116 53.4491 35.5548C53.5671 35.598 53.6754 35.6641 53.7677 35.7493C53.8601 35.8346 53.9347 35.9373 53.9871 36.0515L56.3683 40.9537C56.4251 41.0871 56.4546 41.2305 56.4552 41.3754C56.4558 41.5204 56.4274 41.664 56.3717 41.7979C56.316 41.9317 56.2342 42.0531 56.131 42.1549C56.0277 42.2567 55.9052 42.3368 55.7706 42.3906L56.3914 43.8414L57.4087 43.4218L58.7093 42.818L59.4974 44.402L60.9482 43.7812L60.1602 42.1972L61.0273 41.7947L61.8153 43.3787L63.2662 42.7579L62.3109 41.0407C62.6418 40.8947 62.9391 40.6821 63.1841 40.4161C63.4291 40.15 63.6166 39.8363 63.7349 39.4946C63.8532 39.1528 63.8998 38.7903 63.8716 38.4297C63.8435 38.0692 63.7413 37.7183 63.5714 37.399ZM55.469 34.3623L57.3364 33.39C58.3537 32.9704 59.1216 33.0355 59.5412 34.0528C59.6326 34.2524 59.6795 34.4696 59.6785 34.6892C59.6774 34.9088 59.6286 35.1256 59.5353 35.3244C59.442 35.5232 59.3065 35.6992 59.1383 35.8404C58.97 35.9815 58.773 36.0842 58.561 36.1415L56.3932 37.1478L55.1856 34.5465L55.469 34.3623ZM60.84 40.1426L58.5221 41.1659L58.3719 41.1829L56.997 38.4485L59.4652 37.4081C60.6156 36.8213 61.5338 36.8693 61.9534 37.8866C62.3729 38.9039 61.9905 39.5558 60.84 40.1426Z" fill="white"/>
<path fill-rule="evenodd" clip-rule="evenodd" d="M58.5606 36.1426C58.7726 36.0853 58.9696 35.9826 59.1378 35.8415C59.3061 35.7003 59.4416 35.5243 59.5349 35.3255C59.6282 35.1267 59.677 34.9099 59.678 34.6903C59.6791 34.4707 59.6322 34.2535 59.5408 34.0539C59.1212 33.0366 58.3532 32.9715 57.3359 33.3911L55.4686 34.3634L55.1852 34.5476L56.3928 37.1489L58.5606 36.1426ZM58.003 31.6126C57.9683 31.6255 57.9338 31.6392 57.8996 31.6538L57.2618 30.0528L55.8109 30.6736L56.4317 32.1245L55.7148 32.51L55.094 31.0591L53.6432 31.68L54.264 33.1308L52.0962 34.1372L52.7171 35.588C52.7368 35.5788 52.7567 35.5702 52.7769 35.5624C52.8736 35.5249 52.9758 35.5034 53.0796 35.4988C53.2052 35.4933 53.3306 35.5127 53.4486 35.5559C53.5667 35.5991 53.675 35.6652 53.7673 35.7504C53.8597 35.8357 53.9342 35.9384 53.9867 36.0526L56.3679 40.9548C56.4246 41.0882 56.4542 41.2316 56.4548 41.3765C56.4554 41.5215 56.427 41.6651 56.3713 41.799C56.3156 41.9328 56.2338 42.0542 56.1305 42.156C56.0399 42.2453 55.9344 42.318 55.8189 42.3708C55.8028 42.3781 55.7866 42.3851 55.7701 42.3916L56.391 43.8425L57.4083 43.4229L58.7089 42.8191L59.497 44.4031L60.9478 43.7823L60.1598 42.1983L61.0269 41.7958L61.8149 43.3798L63.2657 42.7589L62.3105 41.0418C62.459 40.9763 62.6007 40.8973 62.734 40.8062C62.8977 40.6942 63.0486 40.5638 63.1837 40.4172C63.4287 40.1511 63.6162 39.8374 63.7345 39.4957C63.8528 39.1539 63.8993 38.7914 63.8712 38.4308C63.8431 38.0703 63.7409 37.7194 63.571 37.4001C63.387 36.8652 63.0276 36.4082 62.5512 36.1033C62.4203 36.0194 62.2827 35.9485 62.1402 35.8908C61.7642 35.7385 61.3547 35.6788 60.9466 35.72C61.16 35.3716 61.2842 34.9768 61.3092 34.5704C61.3121 34.523 61.3136 34.4755 61.3138 34.4279C61.3158 33.9717 61.1925 33.5237 60.9576 33.1327C60.8729 32.8221 60.7227 32.5333 60.517 32.2857C60.3113 32.0381 60.0549 31.8375 59.7652 31.6973C59.4754 31.5572 59.1589 31.4808 58.8371 31.4733C58.5524 31.4666 58.2694 31.5141 58.003 31.6126ZM58.6014 30.3391C58.6886 30.3343 58.7761 30.333 58.8636 30.335C59.3481 30.3463 59.8246 30.4613 60.2608 30.6723C60.6971 30.8833 61.0831 31.1854 61.3928 31.5581C61.6687 31.8902 61.8783 32.2716 62.0109 32.6815C62.3027 33.218 62.455 33.8202 62.4524 34.4327C62.4519 34.5505 62.4457 34.6678 62.4338 34.7843C62.6887 34.8761 62.9341 34.9965 63.1651 35.1444C63.8323 35.5715 64.3417 36.2038 64.6173 36.9448C64.8361 37.3808 64.9683 37.8554 65.0063 38.3423C65.0466 38.8589 64.9799 39.3784 64.8104 39.8681C64.6409 40.3578 64.3722 40.8073 64.0211 41.1885C63.954 41.2613 63.8842 41.3314 63.8118 41.3985L64.2607 42.2054C64.4175 42.4872 64.4474 42.8222 64.3431 43.1272C64.2388 43.4323 64.0101 43.6789 63.7137 43.8057L62.2628 44.4265C62.1173 44.4888 61.9657 44.5185 61.8163 44.5186C61.7032 44.6519 61.5598 44.7589 61.3957 44.8291L59.9449 45.4499C59.3901 45.6873 58.7464 45.4506 58.4776 44.9103L58.1832 44.3185L57.8877 44.4556C57.8727 44.4626 57.8576 44.4692 57.8424 44.4755L56.8251 44.8951C56.2492 45.1326 55.5893 44.8631 55.3442 44.2904L54.7234 42.8396C54.6027 42.5575 54.6009 42.2387 54.7185 41.9554C54.8289 41.6891 55.036 41.4753 55.297 41.356L53.0274 36.6835C52.7932 36.7498 52.5422 36.7398 52.3118 36.652C52.0233 36.5421 51.7918 36.3197 51.6703 36.0359L51.0495 34.5851C50.8074 34.0193 51.0586 33.3636 51.6168 33.1044L52.7827 32.5632L52.5964 32.1279C52.349 31.5498 52.6171 30.8806 53.1952 30.6332L54.6461 30.0124C54.7452 29.97 54.8469 29.9427 54.9488 29.9296C55.0584 29.8023 55.1981 29.6974 55.363 29.6269L56.8138 29.006C57.096 28.8853 57.415 28.8836 57.6985 29.0013C57.982 29.1191 58.2059 29.3463 58.3195 29.6314L58.6014 30.3391ZM59.4648 37.4092L56.9966 38.4496L58.3714 41.184L58.5216 41.167L60.8396 40.1437C61.99 39.5569 62.3725 38.905 61.953 37.8877C61.5334 36.8704 60.6152 36.8224 59.4648 37.4092ZM60.3491 39.1156C60.8312 38.8659 60.9506 38.699 60.9726 38.6563C60.9728 38.6559 60.9729 38.6556 60.9731 38.6552C60.9767 38.6483 60.9802 38.6416 60.9795 38.6145C60.9786 38.5754 60.9671 38.4836 60.9004 38.3218C60.8751 38.2606 60.8523 38.2218 60.8366 38.199C60.8274 38.1858 60.8205 38.1778 60.8164 38.1735C60.8145 38.1731 60.812 38.1726 60.809 38.1721C60.7303 38.16 60.4725 38.1733 59.9821 38.4234C59.9575 38.436 59.9324 38.4476 59.907 38.4583L58.5607 39.0258L58.9225 39.7454L60.3491 39.1156ZM56.9461 35.6368L58.0812 35.1099C58.14 35.0825 58.2011 35.0603 58.2638 35.0434C58.3161 35.0293 58.3647 35.0039 58.4062 34.9691C58.4477 34.9343 58.4811 34.8908 58.5042 34.8418C58.5272 34.7927 58.5392 34.7392 58.5395 34.685C58.5397 34.6308 58.5282 34.5772 58.5056 34.528C58.4996 34.5148 58.4938 34.5014 58.4882 34.488C58.4375 34.3651 58.3953 34.3084 58.3772 34.2876C58.3719 34.2872 58.3651 34.2868 58.3565 34.2867C58.3311 34.2864 58.2924 34.2885 58.2381 34.2976C58.1343 34.3149 57.9949 34.3538 57.814 34.4258L56.6623 35.0255L56.9461 35.6368Z" fill="#100310"/>
<ellipse cx="60" cy="129" rx="60" ry="3" fill="#F6F6F6"/>
</svg>
