<svg width="22" height="20" viewBox="0 0 22 20" fill="none" xmlns="http://www.w3.org/2000/svg">
<path fill-rule="evenodd" clip-rule="evenodd" d="M21.9909 8.74756C22.1278 7.19823 20.6834 6.74614 20.1103 6.74614C17.8887 6.74565 15.6666 6.7463 13.4448 6.74437C13.7647 6.04836 14.1546 4.20293 13.6634 1.66058C13.4694 0.655451 12.8764 -0.0131161 12.1208 0.000195217C11.5121 0.0107872 10.9306 0.480062 10.8696 1.06551C10.8029 1.70906 10.6448 2.62545 10.4954 3.25215C10.0168 5.25568 7.45723 7.90086 5.83888 8.82361V18.6108C6.93678 19.2312 8.1274 19.4485 9.39909 19.4243C11.408 19.3859 17.1468 19.4194 18.1866 19.4125C18.9226 19.4077 19.6565 19.0566 20.0094 18.1681C20.4917 16.9553 19.2485 16.3487 19.2485 16.3487C19.2485 16.3487 20.6095 16.416 20.9205 15.1951C21.2395 13.9422 19.9876 13.4463 19.9876 13.4463C20.8343 13.3539 21.3763 13.1334 21.5814 12.3703C21.8223 11.4714 21.244 10.7964 20.3288 10.4056C20.4673 10.392 21.8654 10.166 21.9911 8.74781L21.9909 8.74756ZM4.42894 7.26803H0.69026C0.309107 7.26803 0 7.57697 0 7.95829V19.0306C0 19.4117 0.308934 19.7208 0.69026 19.7208H4.42894C4.8101 19.7208 5.1192 19.4119 5.1192 19.0306V7.95829C5.1192 7.5773 4.81043 7.2682 4.42894 7.2682V7.26803Z" fill="#1E1E1E"/>
</svg>
