<svg width="515" height="106" viewBox="0 0 515 106" fill="none" xmlns="http://www.w3.org/2000/svg">
<path d="M58.8564 32.3441C58.5199 28.6496 57.0224 25.7779 54.3639 23.7291C51.7391 21.6467 47.987 20.6055 43.1075 20.6055C39.877 20.6055 37.1849 21.0253 35.0312 21.865C32.8775 22.7047 31.2622 23.8634 30.1854 25.3413C29.1085 26.7855 28.5533 28.448 28.5196 30.3289C28.4523 31.8739 28.7552 33.2342 29.4282 34.4097C30.1349 35.5852 31.1444 36.6264 32.4568 37.5333C33.8029 38.4065 35.4182 39.179 37.3026 39.8508C39.1871 40.5225 41.3072 41.1103 43.6628 41.6141L52.5467 43.6293C57.6618 44.7376 62.1711 46.2155 66.0746 48.0627C70.0118 49.91 73.3097 52.11 75.9681 54.6625C78.6603 57.2151 80.6962 60.154 82.0759 63.4791C83.4556 66.8042 84.1623 70.5323 84.1959 74.6635C84.1623 81.1793 82.5134 86.7715 79.2492 91.4401C75.985 96.1087 71.2906 99.6857 65.166 102.171C59.0751 104.657 51.7223 105.899 43.1075 105.899C34.4591 105.899 26.9212 104.606 20.4937 102.02C14.0663 99.4338 9.06907 95.5041 5.50201 90.231C1.93496 84.9579 0.100954 78.2909 0 70.23H23.9262C24.1281 73.5551 25.0199 76.326 26.6015 78.5428C28.1831 80.7595 30.3536 82.4388 33.113 83.5808C35.9061 84.7227 39.1366 85.2937 42.8046 85.2937C46.1698 85.2937 49.0302 84.8403 51.3858 83.9335C53.775 83.0266 55.609 81.7671 56.8878 80.1549C58.1665 78.5428 58.8227 76.6955 58.8564 74.6131C58.8227 72.6651 58.217 71.0025 57.0392 69.6255C55.8614 68.2148 54.0442 67.0057 51.5877 65.9981C49.1648 64.9569 46.0688 63.9997 42.2999 63.1264L31.4978 60.6074C22.5465 58.5586 15.4965 55.2503 10.3478 50.6825C5.19915 46.0811 2.64164 39.8676 2.67529 32.0418C2.64164 25.6603 4.35786 20.0681 7.82396 15.2652C11.2901 10.4623 16.0854 6.71736 22.21 4.03042C28.3345 1.34347 35.3172 0 43.158 0C51.167 0 58.1161 1.36026 64.0051 4.08079C69.9277 6.76774 74.5211 10.5463 77.7853 15.4164C81.0495 20.2864 82.7153 25.929 82.7826 32.3441H58.8564Z" fill="#F6F6F6"/>
<path d="M201.156 53C201.156 64.3523 198.969 73.975 194.594 81.8679C190.22 89.7608 184.297 95.756 176.826 99.8536C169.389 103.951 161.044 106 151.79 106C142.502 106 134.139 103.934 126.703 99.8032C119.266 95.6721 113.36 89.6768 108.985 81.8175C104.644 73.9246 102.473 64.3188 102.473 53C102.473 41.6477 104.644 32.025 108.985 24.1321C113.36 16.2392 119.266 10.244 126.703 6.14639C134.139 2.0488 142.502 0 151.79 0C161.044 0 169.389 2.0488 176.826 6.14639C184.297 10.244 190.22 16.2392 194.594 24.1321C198.969 32.025 201.156 41.6477 201.156 53ZM175.615 53C175.615 46.2826 174.656 40.6065 172.738 35.9715C170.853 31.3365 168.127 27.8267 164.56 25.442C161.027 23.0573 156.77 21.865 151.79 21.865C146.843 21.865 142.586 23.0573 139.019 25.442C135.452 27.8267 132.709 31.3365 130.791 35.9715C128.907 40.6065 127.964 46.2826 127.964 53C127.964 59.7174 128.907 65.3935 130.791 70.0285C132.709 74.6635 135.452 78.1733 139.019 80.558C142.586 82.9426 146.843 84.135 151.79 84.135C156.77 84.135 161.027 82.9426 164.56 80.558C168.127 78.1733 170.853 74.6635 172.738 70.0285C174.656 65.3935 175.615 59.7174 175.615 53Z" fill="#F6F6F6"/>
<path d="M222.513 104.589V1.41064H265.217C272.957 1.41064 279.636 2.8045 285.256 5.59221C290.91 8.34632 295.267 12.3096 298.33 17.4819C301.392 22.6207 302.923 28.7167 302.923 35.77C302.923 42.924 301.358 49.0032 298.229 54.0076C295.099 58.9785 290.657 62.7738 284.903 65.3935C279.148 67.9797 272.334 69.2728 264.46 69.2728H237.454V49.6245H259.816C263.585 49.6245 266.731 49.1375 269.255 48.1635C271.812 47.1559 273.747 45.6445 275.06 43.6293C276.372 41.5805 277.028 38.9607 277.028 35.77C277.028 32.5792 276.372 29.9426 275.06 27.8603C273.747 25.7443 271.812 24.1657 269.255 23.1245C266.697 22.0497 263.551 21.5124 259.816 21.5124H247.499V104.589H222.513ZM280.713 57.4335L306.457 104.589H279.199L253.96 57.4335H280.713Z" fill="#F6F6F6"/>
<path d="M323.396 104.589V1.41064H366.1C373.84 1.41064 380.52 2.8045 386.14 5.59221C391.793 8.34632 396.151 12.3096 399.213 17.4819C402.275 22.6207 403.807 28.7167 403.807 35.77C403.807 42.924 402.242 49.0032 399.112 54.0076C395.983 58.9785 391.541 62.7738 385.786 65.3935C380.032 67.9797 373.217 69.2728 365.343 69.2728H338.338V49.6245H360.699C364.468 49.6245 367.614 49.1375 370.138 48.1635C372.696 47.1559 374.631 45.6445 375.943 43.6293C377.256 41.5805 377.912 38.9607 377.912 35.77C377.912 32.5792 377.256 29.9426 375.943 27.8603C374.631 25.7443 372.696 24.1657 370.138 23.1245C367.581 22.0497 364.434 21.5124 360.699 21.5124H348.383V104.589H323.396ZM381.597 57.4335L407.34 104.589H380.082L354.844 57.4335H381.597Z" fill="#F6F6F6"/>
<path d="M414.55 1.41064H442.464L464.321 44.5865H465.229L487.086 1.41064H515L477.193 70.1293V104.589H452.358V70.1293L414.55 1.41064Z" fill="#F6F6F6"/>
</svg>
