<svg width="102" height="12" viewBox="0 0 102 12" fill="none" xmlns="http://www.w3.org/2000/svg">
<path d="M21.6366 8.67538C21.6366 8.24808 21.4942 7.93156 21.1935 7.70999C20.8928 7.48843 20.3547 7.25103 19.5792 6.99782C18.8037 6.7446 18.1865 6.49138 17.7276 6.25399C16.4931 5.5893 15.8759 4.68721 15.8759 3.56356C15.8759 2.97799 16.0342 2.45573 16.3665 1.99677C16.6989 1.53782 17.1737 1.17381 17.7909 0.920597C18.4081 0.667379 19.1044 0.540771 19.8799 0.540771C20.6554 0.540771 21.3517 0.683208 21.9531 0.968078C22.5545 1.25295 23.0293 1.63277 23.3617 2.15504C23.694 2.66147 23.8681 3.24704 23.8681 3.89591H21.6208C21.6208 3.4053 21.4625 3.00964 21.146 2.7406C20.8295 2.45573 20.3864 2.32912 19.8166 2.32912C19.2627 2.32912 18.8354 2.4399 18.5347 2.67729C18.234 2.89886 18.0757 3.21538 18.0757 3.57938C18.0757 3.92756 18.2498 4.22825 18.6138 4.46564C18.9778 4.70303 19.5001 4.9246 20.1964 5.13034C21.4784 5.51017 22.3963 5.98495 22.9818 6.55469C23.5674 7.12443 23.8523 7.82077 23.8523 8.67538C23.8523 9.60912 23.4883 10.353 22.7761 10.891C22.0639 11.4291 21.0985 11.6823 19.8957 11.6823C19.057 11.6823 18.2973 11.5241 17.6168 11.2234C16.9363 10.9227 16.3982 10.4954 16.0342 9.97313C15.6702 9.43504 15.4961 8.83364 15.4961 8.12147H17.7434C17.7434 9.32425 18.4556 9.90982 19.8957 9.90982C20.4338 9.90982 20.8453 9.79904 21.146 9.5933C21.4942 9.35591 21.6366 9.05521 21.6366 8.67538Z" fill="#1D1D1B"/>
<path d="M33.8881 8.39172L35.3599 0.668579H37.5914L35.1859 11.5095H32.9227L31.1502 4.2611L29.3777 11.5095H27.1146L24.709 0.668579H26.9405L28.4123 8.37589L30.2165 0.668579H32.0998L33.8881 8.39172Z" fill="#1D1D1B"/>
<path d="M44.6151 9.27798H40.6902L39.9464 11.5095H37.5566L41.6081 0.668579H43.6813L47.7486 11.5095H45.3589L44.6151 9.27798ZM41.2916 7.4738H44.0137L42.6526 3.42232L41.2916 7.4738Z" fill="#1D1D1B"/>
<path d="M51.0227 7.69537V11.5095H48.7754V0.668579H53.0168C53.8397 0.668579 54.5519 0.811017 55.1691 1.11171C55.7863 1.41241 56.277 1.83971 56.6093 2.3778C56.9417 2.91589 57.1157 3.54893 57.1157 4.24528C57.1157 5.30562 56.7517 6.14441 56.0237 6.76162C55.2957 7.37884 54.2829 7.67954 53.001 7.67954H51.0227V7.69537ZM51.0227 5.89119H53.0326C53.6182 5.89119 54.0771 5.74876 54.3778 5.47972C54.6943 5.19485 54.8526 4.79919 54.8526 4.29276C54.8526 3.75467 54.6943 3.32737 54.3778 3.01084C54.0613 2.6785 53.634 2.52023 53.0801 2.50441H51.0227V5.89119Z" fill="#1D1D1B"/>
<path d="M65.6982 8.9144C65.6982 8.45544 65.5874 8.05979 65.3658 7.74327C65.1443 7.42675 64.8119 7.14188 64.3371 6.88866C63.8782 6.63544 63.166 6.38222 62.2323 6.12901C61.2827 5.87579 60.5863 5.60675 60.1116 5.35353C59.6368 5.08448 59.3044 4.78379 59.0829 4.43562C58.8613 4.08744 58.7505 3.66014 58.7505 3.16953C58.7505 2.37822 59.0829 1.74518 59.7476 1.25457C60.4123 0.763962 61.2827 0.510742 62.3589 0.510742C63.0552 0.510742 63.6883 0.653178 64.2422 0.922222C64.7961 1.19127 65.2234 1.57109 65.5399 2.0617C65.8406 2.55231 65.9989 3.10622 65.9989 3.70762H65.5874C65.5874 2.90048 65.2867 2.23579 64.6853 1.6977C64.0839 1.15961 63.3084 0.906395 62.3589 0.906395C61.4093 0.906395 60.6338 1.11213 60.0324 1.53944C59.4469 1.96674 59.1462 2.489 59.1462 3.13787C59.1462 3.78674 59.3994 4.309 59.9216 4.70466C60.4281 5.10031 61.2827 5.44849 62.4697 5.76501C63.6566 6.0657 64.5112 6.41388 65.0651 6.82536C65.7615 7.33179 66.1097 8.02814 66.1097 8.88275C66.1097 9.42084 65.9514 9.91144 65.6507 10.3387C65.3342 10.7502 64.9069 11.0826 64.3371 11.3041C63.7674 11.5257 63.1343 11.6523 62.4222 11.6523C61.6309 11.6523 60.9345 11.5257 60.3015 11.2725C59.6684 11.0034 59.1936 10.6394 58.8771 10.1488C58.5606 9.67405 58.4023 9.10431 58.4023 8.43962H58.8138C58.8138 9.32588 59.1462 10.0222 59.8109 10.5128C60.4756 11.0034 61.346 11.2567 62.4222 11.2567C63.3717 11.2567 64.163 11.0351 64.7803 10.6078C65.3975 10.1805 65.6982 9.61075 65.6982 8.9144Z" fill="#1D1D1B"/>
<path d="M68.64 6.93571V11.5095H68.2285V0.668579H71.6311C72.7389 0.668579 73.6094 0.953452 74.2108 1.50736C74.828 2.06128 75.1445 2.83675 75.1445 3.8338C75.1445 4.81502 74.8438 5.57467 74.2424 6.11276C73.641 6.65085 72.7864 6.91989 71.6944 6.93571H68.64ZM68.64 6.54006H71.6311C72.6123 6.54006 73.372 6.30267 73.9101 5.82789C74.464 5.3531 74.733 4.70423 74.733 3.84962C74.733 2.97919 74.464 2.29867 73.9101 1.80806C73.372 1.31745 72.6123 1.06423 71.6311 1.06423H68.64V6.54006Z" fill="#1D1D1B"/>
<path d="M82.1238 8.28012H76.7904L75.5877 11.5245H75.1445L79.2118 0.683594H79.7024L83.7698 11.5245H83.3266L82.1238 8.28012ZM76.9487 7.86864H81.9814L79.4651 1.15838L76.9487 7.86864Z" fill="#1D1D1B"/>
<path d="M92.8513 8.17964C92.7405 9.30329 92.3607 10.1579 91.696 10.7593C91.0313 11.3607 90.1292 11.6456 88.9739 11.6456C88.1984 11.6456 87.5179 11.4556 86.9165 11.06C86.3309 10.6643 85.8562 10.1104 85.5396 9.39825C85.2073 8.68607 85.049 7.86312 85.0332 6.92938V5.25181C85.0332 4.3339 85.1915 3.51094 85.5238 2.78294C85.8403 2.05494 86.3151 1.4852 86.9007 1.08955C87.5021 0.693896 88.1984 0.488159 88.9739 0.488159C90.1134 0.488159 91.0155 0.788851 91.6802 1.37442C92.3449 1.97581 92.7405 2.83042 92.8513 3.93825H92.4556C92.3449 2.9412 91.9967 2.18155 91.4111 1.67512C90.8256 1.15286 90.0184 0.899634 88.9897 0.899634C87.9294 0.899634 87.0748 1.29529 86.4259 2.08659C85.777 2.8779 85.4605 3.93825 85.4605 5.28346V6.8819C85.4605 7.73651 85.6029 8.49616 85.8878 9.14503C86.1727 9.7939 86.5842 10.3162 87.1222 10.6802C87.6603 11.0442 88.2934 11.2341 88.9897 11.2341C90.0342 11.2341 90.8414 10.9809 91.4269 10.4744C92.0125 9.96799 92.3607 9.19251 92.4715 8.17964H92.8513Z" fill="#1D1D1B"/>
<path d="M101.24 6.14441H95.7804V11.1138H102V11.5095H95.3848V0.668579H102V1.08006H95.7804V5.73293H101.24V6.14441Z" fill="#1D1D1B"/>
<path fill-rule="evenodd" clip-rule="evenodd" d="M11.46 6C11.46 9.16522 8.89622 11.7449 5.731 11.7449C2.56578 11.7449 0.00195312 9.16522 0.00195312 6C0.00195312 2.83478 2.56578 0.255127 5.731 0.255127C8.89622 0.255127 11.46 2.81895 11.46 6ZM9.16526 3.65774C9.16526 4.06922 8.83291 4.40156 8.42143 4.40156C8.00996 4.40156 7.67761 4.06922 7.67761 3.65774C7.67761 3.24626 8.00996 2.91391 8.42143 2.91391C8.83291 2.91391 9.16526 3.26208 9.16526 3.65774ZM5.69935 3.65774C6.42735 3.65774 7.02874 3.26208 7.02874 2.77147C7.02874 2.28087 6.42735 1.88521 5.69935 1.88521C4.97135 1.88521 4.36996 2.28087 4.36996 2.77147C4.36996 3.26208 4.95552 3.65774 5.69935 3.65774Z" fill="#1D1D1B"/>
</svg>
