<svg width="82" height="22" viewBox="0 0 82 22" fill="none" xmlns="http://www.w3.org/2000/svg">
<path d="M26.587 14.7955C28.8593 14.7955 30.0024 13.9313 30.0024 12.2027C30.0024 10.5996 29.0684 9.80496 27.1865 9.80496H26.0573C24.97 9.80496 24.4263 9.331 24.4263 8.38306C24.4263 7.30967 25.2209 6.77994 26.824 6.77994C27.8556 6.77994 28.8035 6.94722 29.6957 7.26785V6.22233C28.8175 5.97141 27.8556 5.84595 26.824 5.84595C24.4542 5.84595 23.2832 6.68236 23.2832 8.36912C23.2832 9.97224 24.2033 10.7668 26.0573 10.7668H27.1865C28.3017 10.7668 28.8593 11.2408 28.8593 12.1887C28.8593 13.3039 28.1065 13.8476 26.587 13.8476C25.5136 13.8476 24.5099 13.6803 23.5899 13.3597V14.4052C24.5099 14.6701 25.5136 14.7955 26.587 14.7955ZM33.5292 14.7398L35.2857 9.90254L37.1397 14.7398H38.1853L39.872 8.27154H38.6592L37.6277 13.3458L35.8433 8.2576H34.8117L33.125 13.3318L31.9819 8.2576H30.8248L32.4698 14.7258H33.5292V14.7398ZM46.173 14.7398V10.2789C46.173 8.94067 45.2111 8.27154 43.2874 8.27154C42.6182 8.27154 41.9352 8.36912 41.2382 8.57822V9.49828C41.9352 9.28917 42.6182 9.19159 43.2874 9.19159C44.4444 9.19159 45.0299 9.56798 45.0299 10.3068V10.9202C44.4723 10.8365 43.9007 10.7947 43.3431 10.7947C41.5867 10.7947 40.7224 11.4638 40.7224 12.7882C40.7224 14.0846 41.4891 14.7398 43.0364 14.7398C43.8032 14.7398 44.5002 14.5307 45.1414 14.0985L45.5317 14.7398H46.173ZM43.0225 13.8058C42.2419 13.8058 41.8515 13.4573 41.8515 12.7603C41.8515 12.0633 42.3534 11.7148 43.3431 11.7148C43.9007 11.7148 44.4723 11.7566 45.0299 11.8402V13.1785C44.4862 13.5967 43.8171 13.8058 43.0225 13.8058ZM49.1562 17.0817V14.4331C49.6441 14.6422 50.1459 14.7398 50.6617 14.7398C52.7528 14.7398 53.7983 13.6106 53.7983 11.3384C53.7983 9.28917 52.7667 8.2576 50.6896 8.2576C49.7696 8.2576 48.8913 8.34124 48.027 8.52246V17.0678H49.1562V17.0817ZM50.6617 13.75C50.1041 13.75 49.6162 13.6385 49.1701 13.4155V9.35888C49.6023 9.26129 50.1041 9.20553 50.6757 9.20553C52.0139 9.20553 52.6831 9.91648 52.6831 11.3244C52.6691 12.9415 52 13.75 50.6617 13.75ZM60.0853 14.7398V13.8755H56.3493L60.2108 9.19159V8.27154H55.1505V9.19159H58.9422L55.025 13.8755V14.7398H60.0853ZM64.5183 14.7258C66.5675 14.7258 67.599 13.6525 67.599 11.4917C67.599 9.33099 66.5675 8.2576 64.5183 8.2576C62.4691 8.2576 61.4375 9.33099 61.4375 11.4917C61.4514 13.6525 62.483 14.7258 64.5183 14.7258ZM64.5183 13.8058C63.2218 13.8058 62.5806 13.0251 62.5806 11.4638C62.5806 9.94436 63.2218 9.17765 64.5183 9.17765C65.8147 9.17765 66.456 9.94436 66.456 11.4638C66.4699 13.0391 65.8147 13.8058 64.5183 13.8058ZM70.2895 14.7398V10.0419C70.875 9.49828 71.5023 9.21947 72.1575 9.21947C73.1194 9.21947 73.5933 9.69344 73.5933 10.6553V14.7398H74.7364V10.6832C74.7364 9.08007 73.9279 8.27154 72.3108 8.27154C71.5162 8.27154 70.7914 8.55035 70.1222 9.09401L69.9131 8.27154H69.1464V14.7398H70.2895ZM79.6016 14.7398C80.424 14.7398 81.1071 14.6561 81.6786 14.4889V13.5688C81.1071 13.7361 80.4519 13.8197 79.7131 13.8197C78.1657 13.8197 77.399 13.1645 77.399 11.8402H81.9435C81.9853 11.5475 81.9993 11.2687 81.9993 11.0038C81.9993 9.17765 81.0792 8.27154 79.2391 8.27154C77.2596 8.27154 76.2559 9.33099 76.2559 11.436C76.2698 13.6385 77.3711 14.7398 79.6016 14.7398ZM80.9119 10.8784H77.4129C77.4826 9.7492 78.096 9.17765 79.253 9.17765C80.3264 9.17765 80.884 9.7492 80.9119 10.8784Z" fill="#1D1D1B"/>
<path d="M20.0496 5.93002C20.0496 3.20754 17.8087 0.985107 15.0677 0.985107C13.6509 0.985107 12.3545 1.57776 11.4748 2.52229L0.223685 9.56C0.00144197 9.68964 -0.0633794 9.99523 0.0662626 10.2175C0.158864 10.3749 0.316287 10.4397 0.473709 10.4397C0.56631 10.4397 0.631132 10.4119 0.723733 10.3749L10.3358 4.33728C10.1506 4.83733 10.0487 5.36516 10.0487 5.96706C10.0487 7.21718 10.521 8.34692 11.2803 9.21738L3.71476 16.6903C3.52956 16.8755 3.52956 17.1626 3.71476 17.3478C3.80736 17.4404 3.937 17.4774 4.05738 17.4774C4.18703 17.4774 4.30741 17.4496 4.40001 17.3478L11.9655 9.87485C12.8175 10.5323 13.8917 10.9398 15.0214 10.9398C15.6789 10.9398 16.3178 10.8101 16.8827 10.5971L10.8636 20.2925C10.7339 20.5148 10.7988 20.7926 11.021 20.95C11.0858 21.0148 11.1784 21.0148 11.271 21.0148C11.4285 21.0148 11.5859 20.9222 11.6785 20.7926L18.9292 9.05995C19.6422 8.18024 20.0496 7.11532 20.0496 5.93002ZM12.6786 9.18034L14.8825 7.02272C15.0677 6.83752 15.0677 6.55045 14.8825 6.36525C14.6973 6.18005 14.4102 6.18005 14.225 6.36525L11.9841 8.55991C11.3822 7.87465 11.0025 6.96716 11.0025 5.96706C11.0303 3.74463 12.8267 1.92964 15.0677 1.92964C17.3086 1.92964 19.1051 3.74463 19.1051 5.93002C19.1051 8.15246 17.2809 9.9304 15.0677 9.9304C14.188 9.96745 13.336 9.6526 12.6786 9.18034Z" fill="#1D1D1B"/>
<path d="M15.0656 2.68555C13.2414 2.68555 11.7598 4.15791 11.7598 5.9729C11.7598 6.22292 11.982 6.44517 12.232 6.44517C12.4821 6.44517 12.7043 6.22292 12.7043 5.9729C12.7043 4.695 13.7414 3.63008 15.0656 3.63008C15.3157 3.63008 15.5379 3.40784 15.5379 3.15781C15.5379 2.90779 15.3249 2.68555 15.0656 2.68555Z" fill="#1D1D1B"/>
</svg>
