<?xml version="1.0" encoding="UTF-8"?>
<svg width="88px" height="114px" viewBox="0 0 88 114" version="1.1" xmlns="http://www.w3.org/2000/svg" xmlns:xlink="http://www.w3.org/1999/xlink">
    <!-- Generator: Sketch 51.2 (57519) - http://www.bohemiancoding.com/sketch -->
    <title>path0</title>
    <desc>Created with Sketch.</desc>
    <defs></defs>
    <g id="social-network" stroke="none" stroke-width="1" fill="none" fill-rule="evenodd">
        <g id="Artboard" transform="translate(-19.000000, -6.000000)" fill="#4A4A4A">
            <g id="image2vector-(1)" transform="translate(19.000000, 6.000000)">
                <path d="M50.1991204,22.215036 C45.9133844,31.6707326 40.12426,43.7312671 38.6580929,46.2589771 C37.814777,47.713103 37.785925,47.6982537 30.7455921,42.1929212 C20.8235812,34.4340372 15.7350543,30.8458193 15.3461026,31.3334091 C15.3055777,31.3841628 14.6721547,32.1596522 13.9383003,33.0568175 C7.8833409,40.4590961 5.29194513,44.1215606 5.7976263,44.5619429 C5.88484309,44.6377409 7.4578287,45.589206 9.2931254,46.6763097 C16.7334222,51.082792 21.650599,54.2904682 27.8405682,58.7754081 L30.0844183,60.4008553 L30.0029279,61.1293588 C29.8467746,62.5247523 28.5094505,64.9997139 16.8646879,85.4423609 C8.68018519,99.8107467 7.84039324,101.234731 4.52835774,106.358413 C1.39317851,111.208159 -0.149193125,113.806791 0.0113650533,113.968139 C0.166196876,114.124168 1.89577626,113.689105 3.63614762,113.056789 C7.44945941,111.670926 12.2988009,108.134348 16.9336244,103.358849 C19.6454938,100.564738 20.3392637,99.7065798 27.6112938,90.1515921 C33.0678492,82.9818053 40.9259496,72.1925505 41.6754414,71.2785412 L42.1965397,70.6429013 L44.8612768,72.4299181 C46.8551495,73.7670224 64.8006644,87.5401053 77.7501549,95.0707087 C83.1970195,98.2384911 87.6785529,100.461014 87.9888773,100.148735 C88.1007614,100.036146 87.3523709,97.3705812 86.472935,94.749121 C84.7506236,89.6150217 76.6817493,79.4731532 69.3427649,73.2180406 C67.8314477,71.9299169 62.6905026,67.5679826 57.9184669,63.5249763 C48.1948963,55.2867029 48.7415429,55.9265537 49.7304403,53.9413982 C51.5736658,50.2414779 73.2739075,14.4178097 78.3058316,6.7679685 C79.7288308,4.60439943 80.9179303,2.78325141 80.9483241,2.72097289 C80.9784976,2.65869437 80.3356041,2.51108763 79.5195986,2.39273628 C78.7038133,2.27438493 75.1616223,1.73604143 71.6480632,1.19614651 C68.1347243,0.656473219 64.2293504,0.166445438 62.9695523,0.107491395 L60.6790104,0 L57.7874215,5.92643277 C56.1970366,9.18619243 52.7823672,16.5159974 50.1991204,22.215036 Z" id="path0"></path>
            </g>
        </g>
    </g>
</svg>