<svg width="22" height="22" viewBox="0 0 22 22" fill="none" xmlns="http://www.w3.org/2000/svg">
<path d="M15 8C15 11.87 11.87 15 8 15C7.68 15 7.37 14.98 7.07 14.93C3.64 14.48 1 11.55 1 8C1 4.13 4.13 1 8 1C11.55 1 14.48 3.64 14.93 7.07C14.98 7.37 15 7.68 15 8Z" stroke="#FF366C" stroke-width="1.5" stroke-linecap="round" stroke-linejoin="round"/>
<path d="M20.9998 14C20.9998 17.87 17.8698 21 13.9998 21C10.4498 21 7.51982 18.36 7.06982 14.93C7.36982 14.98 7.67982 15 7.99982 15C11.8698 15 14.9998 11.87 14.9998 8.00001C14.9998 7.68001 14.9798 7.37001 14.9298 7.07001C18.3598 7.52001 20.9998 10.45 20.9998 14Z" stroke="#FF366C" stroke-width="1.5" stroke-linecap="round" stroke-linejoin="round"/>
<path d="M13.1499 13.12L14.4599 14.41" stroke="#FF366C" stroke-width="1.5" stroke-linecap="round" stroke-linejoin="round"/>
<path d="M16 11L15 10" stroke="#FF366C" stroke-width="1.5" stroke-linecap="round" stroke-linejoin="round"/>
<path d="M11 16L10 15" stroke="#FF366C" stroke-width="1.5" stroke-linecap="round" stroke-linejoin="round"/>
</svg>
