<svg width="14" height="14" viewBox="0 0 14 14" fill="none" xmlns="http://www.w3.org/2000/svg">
<path d="M5.34349 6.34098C5.28516 6.33514 5.21516 6.33514 5.15099 6.34098C3.76266 6.29431 2.66016 5.15681 2.66016 3.75681C2.66016 2.32764 3.81516 1.16681 5.25016 1.16681C6.67932 1.16681 7.84016 2.32764 7.84016 3.75681C7.83432 5.15681 6.73182 6.29431 5.34349 6.34098Z" stroke="#E2DDFF" stroke-linecap="round" stroke-linejoin="round"/>
<path d="M9.5729 2.33301C10.7046 2.33301 11.6146 3.24884 11.6146 4.37467C11.6146 5.47717 10.7396 6.37551 9.64874 6.41634C9.60207 6.41051 9.54957 6.41051 9.49707 6.41634" stroke="#E2DDFF" stroke-linecap="round" stroke-linejoin="round"/>
<path d="M2.42691 8.49319C1.01525 9.43819 1.01525 10.9782 2.42691 11.9174C4.03108 12.9907 6.66191 12.9907 8.26608 11.9174C9.67775 10.9724 9.67775 9.43236 8.26608 8.49319C6.66775 7.42569 4.03691 7.42569 2.42691 8.49319Z" stroke="#E2DDFF" stroke-linecap="round" stroke-linejoin="round"/>
<path d="M10.6982 11.6668C11.1182 11.5793 11.5149 11.4101 11.8416 11.1593C12.7516 10.4768 12.7516 9.35098 11.8416 8.66848C11.5207 8.42348 11.1299 8.26014 10.7157 8.16681" stroke="#E2DDFF" stroke-linecap="round" stroke-linejoin="round"/>
</svg>
