<svg width="909" height="703" viewBox="0 0 909 703" fill="none" xmlns="http://www.w3.org/2000/svg">
<path d="M884.739 0C901.393 0 912.985 16.5474 907.295 32.1994L794.1 343.59C792.173 348.891 792.175 354.701 794.105 360.001L907.271 670.788C912.971 686.442 901.379 703 884.719 703H559.828C550.906 703 542.72 698.051 538.575 690.15L388.966 404.969C386.322 399.929 380.703 397.2 375.107 398.239V398.239C366.882 399.766 362.229 408.563 365.598 416.221L420.199 540.364C422.777 546.226 422.906 552.876 420.555 558.833L369.677 687.807C366.06 696.975 357.207 703 347.351 703H24.2806C7.62104 703 -3.97096 686.442 1.72911 670.788L114.897 359.996C116.826 354.699 116.828 348.892 114.905 343.593L1.83898 32.1909C-3.84348 16.5404 7.74781 0 24.398 0L349.424 0C358.293 0 366.439 4.89135 370.608 12.7198L509.944 274.39C512.665 279.501 518.387 282.258 524.08 281.201V281.201C532.326 279.67 537.102 270.97 533.968 263.192L484.15 139.57C481.57 133.169 481.871 125.967 484.976 119.803L538.666 13.204C542.744 5.10776 551.036 0 560.101 0L884.739 0Z" fill="#333333"/>
</svg>
