<svg width="60" height="60" viewBox="0 0 60 60" fill="none" xmlns="http://www.w3.org/2000/svg">
<path d="M42.5985 30.5472H32.5907V20.5466C32.5907 19.4411 31.6954 18.5465 30.5891 18.5465C22.8643 18.5465 16.5781 24.8281 16.5781 32.5473C16.5781 40.2665 22.8643 46.548 30.5891 46.548C38.314 46.548 44.6001 40.2665 44.6001 32.5473C44.6001 31.4418 43.7049 30.5472 42.5985 30.5472ZM31.5285 10.5461V6.5459H28.2632V10.5461C28.9235 10.4862 29.9135 10.5461 30.5891 10.5461C31.2647 10.5461 30.8682 10.4862 31.5285 10.5461Z" fill="#797BF6"/>
<g filter="url(#filter0_bi_6637_118394)">
<path d="M31.8763 10.6477C31.8763 10.6477 31.8763 10.3463 31.8763 8.96277V6.54611H33.8185C34.892 6.54611 35.7606 5.65153 35.7606 4.54601C35.7606 3.44048 34.892 2.5459 33.8185 2.5459L26.1724 3.31065C25.0989 3.31065 24.7643 3.55813 24.7643 4.66366C24.7643 5.76918 25.5296 6.19315 26.1724 6.36963L27.992 6.54611V8.96277C27.992 10.3463 27.992 10.6477 27.992 10.6477C17.1213 11.6631 8.57031 21.0913 8.57031 32.5475C8.57031 44.6789 18.1559 54.5487 29.9341 54.5487C41.7123 54.5487 51.4275 44.6789 51.4275 32.5475C51.4275 21.0913 42.747 11.6631 31.8763 10.6477Z" fill="#CFD3FD" fill-opacity="0.33"/>
<path d="M31.6804 10.6477V10.8262L31.8581 10.8428C42.6262 11.8486 51.2315 21.1905 51.2315 32.5475C51.2315 44.5746 41.6003 54.3527 29.9341 54.3527C18.2695 54.3527 8.76626 44.5762 8.76626 32.5475C8.76626 21.1889 17.2437 11.8484 28.0102 10.8428L28.1879 10.8262V10.6477V10.6476V10.6476V10.6476V10.6475V10.6475V10.6474V10.6474V10.6473V10.6472V10.6472V10.6471V10.647V10.6469V10.6468V10.6466V10.6465V10.6464V10.6462V10.6461V10.6459V10.6458V10.6456V10.6454V10.6452V10.645V10.6448V10.6446V10.6444V10.6442V10.6439V10.6437V10.6434V10.6432V10.6429V10.6426V10.6424V10.6421V10.6418V10.6415V10.6411V10.6408V10.6405V10.6402V10.6398V10.6394V10.6391V10.6387V10.6383V10.6379V10.6375V10.6371V10.6367V10.6363V10.6358V10.6354V10.6349V10.6345V10.634V10.6335V10.633V10.6325V10.632V10.6315V10.631V10.6304V10.6299V10.6293V10.6288V10.6282V10.6276V10.627V10.6264V10.6258V10.6252V10.6246V10.6239V10.6233V10.6226V10.6219V10.6213V10.6206V10.6199V10.6192V10.6185V10.6177V10.617V10.6162V10.6155V10.6147V10.6139V10.6132V10.6124V10.6116V10.6107V10.6099V10.6091V10.6082V10.6074V10.6065V10.6056V10.6047V10.6038V10.6029V10.602V10.6011V10.6001V10.5992V10.5982V10.5972V10.5962V10.5952V10.5942V10.5932V10.5922V10.5911V10.5901V10.589V10.5879V10.5869V10.5858V10.5847V10.5835V10.5824V10.5813V10.5801V10.579V10.5778V10.5766V10.5754V10.5742V10.573V10.5717V10.5705V10.5692V10.568V10.5667V10.5654V10.5641V10.5628V10.5615V10.5601V10.5588V10.5574V10.556V10.5547V10.5533V10.5519V10.5504V10.549V10.5476V10.5461V10.5446V10.5431V10.5417V10.5401V10.5386V10.5371V10.5355V10.534V10.5324V10.5308V10.5292V10.5276V10.526V10.5244V10.5227V10.5211V10.5194V10.5177V10.516V10.5143V10.5126V10.5109V10.5091V10.5074V10.5056V10.5038V10.502V10.5002V10.4984V10.4965V10.4947V10.4928V10.4909V10.489V10.4871V10.4852V10.4833V10.4813V10.4794V10.4774V10.4754V10.4734V10.4714V10.4693V10.4673V10.4652V10.4632V10.4611V10.459V10.4569V10.4548V10.4526V10.4505V10.4483V10.4461V10.4439V10.4417V10.4395V10.4372V10.435V10.4327V10.4304V10.4281V10.4258V10.4235V10.4212V10.4188V10.4164V10.414V10.4116V10.4092V10.4068V10.4044V10.4019V10.3994V10.3969V10.3944V10.3919V10.3894V10.3868V10.3843V10.3817V10.3791V10.3765V10.3739V10.3712V10.3686V10.3659V10.3632V10.3605V10.3578V10.3551V10.3524V10.3496V10.3468V10.344V10.3412V10.3384V10.3356V10.3327V10.3298V10.3269V10.324V10.3211V10.3182V10.3152V10.3123V10.3093V10.3063V10.3033V10.3003V10.2972V10.2942V10.2911V10.288V10.2849V10.2817V10.2786V10.2754V10.2723V10.2691V10.2659V10.2626V10.2594V10.2561V10.2529V10.2496V10.2463V10.2429V10.2396V10.2362V10.2329V10.2295V10.2261V10.2226V10.2192V10.2157V10.2123V10.2088V10.2053V10.2017V10.1982V10.1946V10.191V10.1874V10.1838V10.1802V10.1766V10.1729V10.1692V10.1655V10.1618V10.1581V10.1543V10.1505V10.1467V10.1429V10.1391V10.1353V10.1314V10.1275V10.1236V10.1197V10.1158V10.1118V10.1079V10.1039V10.0999V10.0959V10.0918V10.0878V10.0837V10.0796V10.0755V10.0713V10.0672V10.063V10.0588V10.0546V10.0504V10.0462V10.0419V10.0376V10.0333V10.029V10.0247V10.0203V10.016V10.0116V10.0072V10.0027V9.99829V9.99382V9.98934V9.98483V9.98031V9.97577V9.9712V9.96662V9.96202V9.9574V9.95277V9.94811V9.94343V9.93874V9.93402V9.92928V9.92453V9.91975V9.91496V9.91015V9.90531V9.90046V9.89559V9.8907V9.88579V9.88086V9.8759V9.87093V9.86594V9.86093V9.8559V9.85085V9.84578V9.84069V9.83558V9.83045V9.82529V9.82012V9.81493V9.80972V9.80449V9.79923V9.79396V9.78867V9.78335V9.77802V9.77266V9.76729V9.76189V9.75648V9.75104V9.74558V9.7401V9.7346V9.72908V9.72354V9.71798V9.7124V9.70679V9.70117V9.69552V9.68986V9.68417V9.67846V9.67273V9.66698V9.66121V9.65541V9.6496V9.64376V9.6379V9.63202V9.62612V9.6202V9.61426V9.60829V9.60231V9.5963V9.59027V9.58422V9.57815V9.57205V9.56593V9.5598V9.55364V9.54745V9.54125V9.53502V9.52878V9.52251V9.51621V9.5099V9.50356V9.49721V9.49083V9.48442V9.478V9.47155V9.46508V9.45859V9.45208V9.44554V9.43898V9.4324V9.42579V9.41917V9.41252V9.40585V9.39915V9.39243V9.38569V9.37893V9.37215V9.36534V9.3585V9.35165V9.34477V9.33787V9.33095V9.324V9.31703V9.31004V9.30303V9.29599V9.28892V9.28184V9.27473V9.2676V9.26044V9.25326V9.24606V9.23883V9.23159V9.22431V9.21702V9.2097V9.20235V9.19498V9.18759V9.18018V9.17274V9.16528V9.15779V9.15028V9.14275V9.13519V9.12761V9.12V9.11237V9.10471V9.09704V9.08933V9.08161V9.07386V9.06608V9.05828V9.05046V9.04261V9.03473V9.02684V9.01892V9.01097V9.003V8.995V8.98698V8.97894V8.97087V8.96277V6.54611V6.36825L28.0109 6.35108L26.2083 6.17625C25.9084 6.09214 25.5988 5.95477 25.3644 5.72509C25.1316 5.49687 24.9602 5.16547 24.9602 4.66366C24.9602 4.11553 25.047 3.85584 25.1983 3.7169C25.3547 3.57326 25.6336 3.50659 26.1724 3.50659H26.1821L26.1919 3.50562L33.828 2.74187C34.7836 2.74715 35.5647 3.54654 35.5647 4.54601C35.5647 5.54878 34.7784 6.35016 33.8185 6.35016H31.8763H31.6804V6.54611V8.96277V8.97087V8.97894V8.98698V8.995V9.003V9.01097V9.01892V9.02684V9.03473V9.04261V9.05046V9.05828V9.06608V9.07386V9.08161V9.08933V9.09704V9.10471V9.11237V9.12V9.12761V9.13519V9.14275V9.15028V9.15779V9.16528V9.17274V9.18018V9.18759V9.19498V9.20235V9.2097V9.21702V9.22431V9.23159V9.23883V9.24606V9.25326V9.26044V9.2676V9.27473V9.28184V9.28892V9.29599V9.30303V9.31004V9.31703V9.324V9.33095V9.33787V9.34477V9.35165V9.3585V9.36534V9.37215V9.37893V9.38569V9.39243V9.39915V9.40585V9.41252V9.41917V9.42579V9.4324V9.43898V9.44554V9.45208V9.45859V9.46508V9.47155V9.478V9.48442V9.49083V9.49721V9.50356V9.5099V9.51621V9.52251V9.52878V9.53502V9.54125V9.54745V9.55364V9.5598V9.56593V9.57205V9.57815V9.58422V9.59027V9.5963V9.60231V9.60829V9.61426V9.6202V9.62612V9.63202V9.6379V9.64376V9.6496V9.65541V9.66121V9.66698V9.67273V9.67846V9.68417V9.68986V9.69552V9.70117V9.70679V9.7124V9.71798V9.72354V9.72908V9.7346V9.7401V9.74558V9.75104V9.75648V9.76189V9.76729V9.77266V9.77802V9.78335V9.78867V9.79396V9.79923V9.80449V9.80972V9.81493V9.82012V9.82529V9.83045V9.83558V9.84069V9.84578V9.85085V9.8559V9.86093V9.86594V9.87093V9.8759V9.88086V9.88579V9.8907V9.89559V9.90046V9.90531V9.91015V9.91496V9.91975V9.92453V9.92928V9.93402V9.93874V9.94343V9.94811V9.95277V9.9574V9.96202V9.96662V9.9712V9.97577V9.98031V9.98483V9.98934V9.99382V9.99829V10.0027V10.0072V10.0116V10.016V10.0203V10.0247V10.029V10.0333V10.0376V10.0419V10.0462V10.0504V10.0546V10.0588V10.063V10.0672V10.0713V10.0755V10.0796V10.0837V10.0878V10.0918V10.0959V10.0999V10.1039V10.1079V10.1118V10.1158V10.1197V10.1236V10.1275V10.1314V10.1353V10.1391V10.1429V10.1467V10.1505V10.1543V10.1581V10.1618V10.1655V10.1692V10.1729V10.1766V10.1802V10.1838V10.1874V10.191V10.1946V10.1982V10.2017V10.2053V10.2088V10.2123V10.2157V10.2192V10.2226V10.2261V10.2295V10.2329V10.2362V10.2396V10.2429V10.2463V10.2496V10.2529V10.2561V10.2594V10.2626V10.2659V10.2691V10.2723V10.2754V10.2786V10.2817V10.2849V10.288V10.2911V10.2942V10.2972V10.3003V10.3033V10.3063V10.3093V10.3123V10.3152V10.3182V10.3211V10.324V10.3269V10.3298V10.3327V10.3356V10.3384V10.3412V10.344V10.3468V10.3496V10.3524V10.3551V10.3578V10.3605V10.3632V10.3659V10.3686V10.3712V10.3739V10.3765V10.3791V10.3817V10.3843V10.3868V10.3894V10.3919V10.3944V10.3969V10.3994V10.4019V10.4044V10.4068V10.4092V10.4116V10.414V10.4164V10.4188V10.4212V10.4235V10.4258V10.4281V10.4304V10.4327V10.435V10.4372V10.4395V10.4417V10.4439V10.4461V10.4483V10.4505V10.4526V10.4548V10.4569V10.459V10.4611V10.4632V10.4652V10.4673V10.4693V10.4714V10.4734V10.4754V10.4774V10.4794V10.4813V10.4833V10.4852V10.4871V10.489V10.4909V10.4928V10.4947V10.4965V10.4984V10.5002V10.502V10.5038V10.5056V10.5074V10.5091V10.5109V10.5126V10.5143V10.516V10.5177V10.5194V10.5211V10.5227V10.5244V10.526V10.5276V10.5292V10.5308V10.5324V10.534V10.5355V10.5371V10.5386V10.5401V10.5417V10.5431V10.5446V10.5461V10.5476V10.549V10.5504V10.5519V10.5533V10.5547V10.556V10.5574V10.5588V10.5601V10.5615V10.5628V10.5641V10.5654V10.5667V10.568V10.5692V10.5705V10.5717V10.573V10.5742V10.5754V10.5766V10.5778V10.579V10.5801V10.5813V10.5824V10.5835V10.5847V10.5858V10.5869V10.5879V10.589V10.5901V10.5911V10.5922V10.5932V10.5942V10.5952V10.5962V10.5972V10.5982V10.5992V10.6001V10.6011V10.602V10.6029V10.6038V10.6047V10.6056V10.6065V10.6074V10.6082V10.6091V10.6099V10.6107V10.6116V10.6124V10.6132V10.6139V10.6147V10.6155V10.6162V10.617V10.6177V10.6185V10.6192V10.6199V10.6206V10.6213V10.6219V10.6226V10.6233V10.6239V10.6246V10.6252V10.6258V10.6264V10.627V10.6276V10.6282V10.6288V10.6293V10.6299V10.6304V10.631V10.6315V10.632V10.6325V10.633V10.6335V10.634V10.6345V10.6349V10.6354V10.6358V10.6363V10.6367V10.6371V10.6375V10.6379V10.6383V10.6387V10.6391V10.6394V10.6398V10.6402V10.6405V10.6408V10.6411V10.6415V10.6418V10.6421V10.6424V10.6426V10.6429V10.6432V10.6434V10.6437V10.6439V10.6442V10.6444V10.6446V10.6448V10.645V10.6452V10.6454V10.6456V10.6458V10.6459V10.6461V10.6462V10.6464V10.6465V10.6466V10.6468V10.6469V10.647V10.6471V10.6472V10.6472V10.6473V10.6474V10.6474V10.6475V10.6475V10.6476V10.6476V10.6476V10.6477Z" stroke="url(#paint0_linear_6637_118394)" stroke-width="0.391894"/>
</g>
<path d="M32.0383 7.13438H34.0791C35.2071 7.13438 36.1199 6.10824 36.1199 4.84014C36.1199 3.57204 35.2071 2.5459 34.0791 2.5459H25.9158C24.7878 2.5459 23.875 3.57204 23.875 4.84014C23.875 6.10824 24.7878 7.13438 25.9158 7.13438H27.9566H32.0383Z" fill="#797BF6"/>
<g filter="url(#filter1_bi_6637_118394)">
<mask id="path-5-inside-1_6637_118394" fill="white">
<path d="M53.7988 37.6299C49.3395 33.1715 42.0875 33.1715 37.6282 37.6299C33.1708 42.0882 33.1708 49.3422 37.6282 53.8005C39.8578 56.0292 42.7859 57.1431 45.714 57.1431C48.6421 57.1431 51.5692 56.0292 53.7988 53.8005C58.2572 49.3422 58.2572 42.0882 53.7988 37.6299Z"/>
</mask>
<path d="M53.7988 37.6299C49.3395 33.1715 42.0875 33.1715 37.6282 37.6299C33.1708 42.0882 33.1708 49.3422 37.6282 53.8005C39.8578 56.0292 42.7859 57.1431 45.714 57.1431C48.6421 57.1431 51.5692 56.0292 53.7988 53.8005C58.2572 49.3422 58.2572 42.0882 53.7988 37.6299Z" fill="#CFD3FD" fill-opacity="0.53"/>
<path d="M53.7988 37.6299L54.1524 37.2763L54.1523 37.2763L53.7988 37.6299ZM37.6282 37.6299L37.2747 37.2763L37.2746 37.2764L37.6282 37.6299ZM37.6282 53.8005L37.2746 54.154L37.2747 54.1542L37.6282 53.8005ZM53.7988 53.8005L54.1523 54.1542L54.1524 54.1541L53.7988 53.8005ZM54.1523 37.2763C49.4978 32.6227 41.9292 32.6227 37.2747 37.2763L37.9817 37.9835C42.2457 33.7204 49.1813 33.7204 53.4453 37.9835L54.1523 37.2763ZM37.2746 37.2764C32.622 41.93 32.622 49.5004 37.2746 54.154L37.9818 53.447C33.7196 49.1839 33.7196 42.2465 37.9818 37.9834L37.2746 37.2764ZM37.2747 54.1542C39.6022 56.4807 42.6592 57.6431 45.714 57.6431V56.6431C42.9125 56.6431 40.1134 55.5778 37.9817 53.4469L37.2747 54.1542ZM45.714 57.6431C48.7688 57.6431 51.8248 56.4806 54.1523 54.1542L53.4453 53.4469C51.3135 55.5778 48.5154 56.6431 45.714 56.6431V57.6431ZM54.1524 54.1541C58.806 49.5005 58.806 41.9299 54.1524 37.2763L53.4452 37.9834C57.7083 42.2465 57.7083 49.1839 53.4453 53.447L54.1524 54.1541Z" fill="url(#paint1_linear_6637_118394)" mask="url(#path-5-inside-1_6637_118394)"/>
</g>
<path d="M50.6013 49.2578C50.9738 49.6303 50.9738 50.2325 50.6013 50.6051C50.4155 50.7909 50.1715 50.8843 49.9276 50.8843C49.6837 50.8843 49.4397 50.7909 49.2539 50.6051L45.8856 47.2358L42.5183 50.6041C42.3316 50.7899 42.0876 50.8833 41.8446 50.8833C41.6007 50.8833 41.3568 50.7899 41.171 50.6041C40.7984 50.2316 40.7984 49.6284 41.171 49.2568L44.5383 45.8885L41.17 42.5203C40.7975 42.1477 40.7975 41.5446 41.17 41.173C41.5416 40.8004 42.1448 40.8004 42.5173 41.173L45.8856 44.5412L49.2539 41.173C49.6264 40.8004 50.2286 40.8004 50.6012 41.173C50.9737 41.5446 50.9737 42.1477 50.6012 42.5203L47.2329 45.8885L50.6013 49.2578Z" fill="url(#paint2_linear_6637_118394)"/>
<defs>
<filter id="filter0_bi_6637_118394" x="6.12098" y="0.0965617" width="47.7541" height="58.3712" filterUnits="userSpaceOnUse" color-interpolation-filters="sRGB">
<feFlood flood-opacity="0" result="BackgroundImageFix"/>
<feGaussianBlur in="BackgroundImageFix" stdDeviation="1.22467"/>
<feComposite in2="SourceAlpha" operator="in" result="effect1_backgroundBlur_6637_118394"/>
<feBlend mode="normal" in="SourceGraphic" in2="effect1_backgroundBlur_6637_118394" result="shape"/>
<feColorMatrix in="SourceAlpha" type="matrix" values="0 0 0 0 0 0 0 0 0 0 0 0 0 0 0 0 0 0 127 0" result="hardAlpha"/>
<feOffset dy="3.91894"/>
<feGaussianBlur stdDeviation="19.5947"/>
<feComposite in2="hardAlpha" operator="arithmetic" k2="-1" k3="1"/>
<feColorMatrix type="matrix" values="0 0 0 0 0.560784 0 0 0 0 0.607843 0 0 0 0 1 0 0 0 0.3 0"/>
<feBlend mode="normal" in2="shape" result="effect2_innerShadow_6637_118394"/>
</filter>
<filter id="filter1_bi_6637_118394" x="31.7851" y="31.7861" width="27.8555" height="28.3565" filterUnits="userSpaceOnUse" color-interpolation-filters="sRGB">
<feFlood flood-opacity="0" result="BackgroundImageFix"/>
<feGaussianBlur in="BackgroundImageFix" stdDeviation="1.25001"/>
<feComposite in2="SourceAlpha" operator="in" result="effect1_backgroundBlur_6637_118394"/>
<feBlend mode="normal" in="SourceGraphic" in2="effect1_backgroundBlur_6637_118394" result="shape"/>
<feColorMatrix in="SourceAlpha" type="matrix" values="0 0 0 0 0 0 0 0 0 0 0 0 0 0 0 0 0 0 127 0" result="hardAlpha"/>
<feOffset dy="3.00003"/>
<feGaussianBlur stdDeviation="20.0002"/>
<feComposite in2="hardAlpha" operator="arithmetic" k2="-1" k3="1"/>
<feColorMatrix type="matrix" values="0 0 0 0 0.560784 0 0 0 0 0.607843 0 0 0 0 1 0 0 0 0.3 0"/>
<feBlend mode="normal" in2="shape" result="effect2_innerShadow_6637_118394"/>
</filter>
<linearGradient id="paint0_linear_6637_118394" x1="31.6787" y1="58.1113" x2="47.9327" y2="-11.9287" gradientUnits="userSpaceOnUse">
<stop stop-color="white"/>
<stop offset="1" stop-color="white" stop-opacity="0"/>
</linearGradient>
<linearGradient id="paint1_linear_6637_118394" x1="46.6098" y1="58.709" x2="52.5955" y2="27.4109" gradientUnits="userSpaceOnUse">
<stop stop-color="white"/>
<stop offset="1" stop-color="white" stop-opacity="0"/>
</linearGradient>
<linearGradient id="paint2_linear_6637_118394" x1="39.9776" y1="52.0319" x2="54.6763" y2="49.5082" gradientUnits="userSpaceOnUse">
<stop stop-color="#2A2F34"/>
<stop offset="1" stop-color="#1F2328"/>
</linearGradient>
</defs>
</svg>
