<svg width="60" height="61" viewBox="0 0 60 61" fill="none" xmlns="http://www.w3.org/2000/svg">
<g clip-path="url(#clip0_7683_91927)">
<path d="M12.8667 14.25H46.2189C49.8731 14.25 52.8355 17.2123 52.8355 20.8667V40.4856C52.8355 44.1398 49.8732 47.1022 46.2189 47.1022H12.8667C9.21233 47.1022 6.25 44.1398 6.25 40.4856V20.8667C6.25 17.2123 9.21233 14.25 12.8667 14.25Z" fill="#797BF6" stroke="url(#paint0_linear_7683_91927)" stroke-width="0.5"/>
<g filter="url(#filter0_bi_7683_91927)">
<path d="M53.0192 23.8096H45.1717C41.3794 23.8116 38.3067 26.8874 38.3086 30.6798C38.3106 34.4694 41.3821 37.5409 45.1717 37.5429H53.0192C53.561 37.5429 54.0002 37.1037 54.0002 36.5619V24.7905C54.0002 24.2487 53.561 23.8096 53.0192 23.8096Z" fill="#CFD3FD" fill-opacity="0.53"/>
<path d="M45.1717 24.0596C45.1717 24.0596 45.1718 24.0596 45.1718 24.0596L53.0192 24.0596C53.4229 24.0596 53.7502 24.3868 53.7502 24.7905V36.5619C53.7502 36.9656 53.4229 37.2929 53.0192 37.2929H45.1718C41.5202 37.2909 38.5605 34.3313 38.5586 30.6797C38.5567 27.0254 41.5175 24.0616 45.1717 24.0596Z" stroke="url(#paint1_linear_7683_91927)" stroke-width="0.5"/>
</g>
<path d="M47.8622 30.6772C47.8622 32.1644 46.6566 33.3701 45.1694 33.3701C43.6822 33.3701 42.4766 32.1644 42.4766 30.6772C42.4766 29.19 43.6822 27.9844 45.1694 27.9844C46.6566 27.9844 47.8622 29.19 47.8622 30.6772Z" fill="#797BF6" stroke="url(#paint2_linear_7683_91927)" stroke-width="0.5"/>
<g filter="url(#filter1_bi_7683_91927)">
<path d="M17.8347 53L28 43.5L17.8347 34L17.8347 39.6606L-7.41185e-07 39.6606L-1.46043e-06 47.8879L17.8347 47.8879L17.8347 53Z" fill="#CFD3FD" fill-opacity="0.53"/>
<path d="M17.8347 39.9106L18.0847 39.9106L18.0847 39.6606L18.0847 34.5758L27.6339 43.5L18.0847 52.4242L18.0847 47.8879L18.0847 47.6379L17.8347 47.6379L0.249999 47.6379L0.249999 39.9106L17.8347 39.9106Z" stroke="url(#paint3_linear_7683_91927)" stroke-width="0.5"/>
</g>
</g>
<defs>
<filter id="filter0_bi_7683_91927" x="34.5042" y="20.0052" width="23.3002" height="22.103" filterUnits="userSpaceOnUse" color-interpolation-filters="sRGB">
<feFlood flood-opacity="0" result="BackgroundImageFix"/>
<feGaussianBlur in="BackgroundImageFix" stdDeviation="1.90219"/>
<feComposite in2="SourceAlpha" operator="in" result="effect1_backgroundBlur_7683_91927"/>
<feBlend mode="normal" in="SourceGraphic" in2="effect1_backgroundBlur_7683_91927" result="shape"/>
<feColorMatrix in="SourceAlpha" type="matrix" values="0 0 0 0 0 0 0 0 0 0 0 0 0 0 0 0 0 0 127 0" result="hardAlpha"/>
<feOffset dy="4.56525"/>
<feGaussianBlur stdDeviation="30.435"/>
<feComposite in2="hardAlpha" operator="arithmetic" k2="-1" k3="1"/>
<feColorMatrix type="matrix" values="0 0 0 0 0.560784 0 0 0 0 0.607843 0 0 0 0 1 0 0 0 0.3 0"/>
<feBlend mode="normal" in2="shape" result="effect2_innerShadow_7683_91927"/>
</filter>
<filter id="filter1_bi_7683_91927" x="-3.80437" y="30.1956" width="35.6087" height="27.3696" filterUnits="userSpaceOnUse" color-interpolation-filters="sRGB">
<feFlood flood-opacity="0" result="BackgroundImageFix"/>
<feGaussianBlur in="BackgroundImageFix" stdDeviation="1.90219"/>
<feComposite in2="SourceAlpha" operator="in" result="effect1_backgroundBlur_7683_91927"/>
<feBlend mode="normal" in="SourceGraphic" in2="effect1_backgroundBlur_7683_91927" result="shape"/>
<feColorMatrix in="SourceAlpha" type="matrix" values="0 0 0 0 0 0 0 0 0 0 0 0 0 0 0 0 0 0 127 0" result="hardAlpha"/>
<feOffset dy="4.56525"/>
<feGaussianBlur stdDeviation="30.435"/>
<feComposite in2="hardAlpha" operator="arithmetic" k2="-1" k3="1"/>
<feColorMatrix type="matrix" values="0 0 0 0 0.560784 0 0 0 0 0.607843 0 0 0 0 1 0 0 0 0.3 0"/>
<feBlend mode="normal" in2="shape" result="effect2_innerShadow_7683_91927"/>
</filter>
<linearGradient id="paint0_linear_7683_91927" x1="84.4759" y1="-1.66858" x2="75.5054" y2="71.4153" gradientUnits="userSpaceOnUse">
<stop stop-color="white"/>
<stop offset="1" stop-color="white" stop-opacity="0"/>
</linearGradient>
<linearGradient id="paint1_linear_7683_91927" x1="46.7694" y1="38.4837" x2="49.9433" y2="19.5221" gradientUnits="userSpaceOnUse">
<stop stop-color="white"/>
<stop offset="1" stop-color="white" stop-opacity="0"/>
</linearGradient>
<linearGradient id="paint2_linear_7683_91927" x1="45.4001" y1="34.0233" x2="46.9415" y2="25.964" gradientUnits="userSpaceOnUse">
<stop stop-color="white"/>
<stop offset="1" stop-color="white" stop-opacity="0"/>
</linearGradient>
<linearGradient id="paint3_linear_7683_91927" x1="12.9025" y1="32.6983" x2="9.46055" y2="59.22" gradientUnits="userSpaceOnUse">
<stop stop-color="white"/>
<stop offset="1" stop-color="white" stop-opacity="0"/>
</linearGradient>
<clipPath id="clip0_7683_91927">
<rect width="60" height="60" fill="white" transform="translate(0 0.5)"/>
</clipPath>
</defs>
</svg>
