<svg width="16" height="16" viewBox="0 0 16 16" fill="none" xmlns="http://www.w3.org/2000/svg">
<g clip-path="url(#clip0_1577_2405)">
<path opacity="0.4" fill-rule="evenodd" clip-rule="evenodd" d="M2.3999 14.4C2.3999 13.9582 2.71331 13.6 3.0999 13.6H12.8999C13.2865 13.6 13.5999 13.9582 13.5999 14.4C13.5999 14.8418 13.2865 15.2 12.8999 15.2H3.0999C2.71331 15.2 2.3999 14.8418 2.3999 14.4Z" fill="#8A77FF"/>
<path d="M6.96961 1.51463C7.14292 1.0818 7.54939 0.799988 7.99999 0.799988C8.45074 0.799988 8.85699 1.08193 9.03038 1.51455L10.5707 5.36044C10.6669 5.60075 10.5977 5.87835 10.4012 6.03961C10.1842 6.21776 10.0465 6.49196 10.0465 6.79999C10.0465 7.33449 10.4629 7.76773 10.9767 7.76773C11.4904 7.76773 11.9069 7.33449 11.9069 6.79999C11.9069 6.69688 11.8916 6.59859 11.8636 6.50683C11.7957 6.28393 11.8629 6.04036 12.0341 5.88888L13.9344 4.20787C14.4266 3.7724 15.1643 3.79633 15.6284 4.26555C15.9609 4.6017 16.0849 5.10344 15.9405 5.56561L15.939 5.57058L14.0787 11.3473C13.7992 12.2151 13.0179 12.8 12.1382 12.8H3.86179C2.98205 12.8 2.20075 12.2151 1.92129 11.3473L0.0594687 5.5656C-0.0849019 5.10344 0.0391005 4.6017 0.371607 4.26555C0.835751 3.79633 1.57328 3.77241 2.06554 4.20786L3.96588 5.88885C4.13714 6.04033 4.20432 6.28392 4.13633 6.50682C4.10835 6.59856 4.09304 6.69685 4.09304 6.79999C4.09304 7.33449 4.50951 7.76773 5.02327 7.76773C5.53702 7.76773 5.95349 7.33449 5.95349 6.79999C5.95349 6.49198 5.81581 6.21777 5.59875 6.03959C5.4023 5.87833 5.33304 5.60075 5.42928 5.36043L6.96961 1.51463Z" fill="#8A77FF"/>
</g>
<defs>
<clipPath id="clip0_1577_2405">
<rect width="16" height="16" fill="white"/>
</clipPath>
</defs>
</svg>
