<svg width="16" height="16" viewBox="0 0 16 16" fill="none" xmlns="http://www.w3.org/2000/svg">
<path d="M7 1.16669C8.5474 1.16669 9.80427 2.40717 9.832 3.94794H4.16797C4.19576 2.40717 5.4526 1.16669 7 1.16669Z" fill="#8A77FF"/>
<path opacity="0.4" d="M3.63086 3.05467C3.75694 2.60425 3.97053 2.19071 4.25261 1.83331H3.44141C2.3694 1.83331 1.50011 2.65423 1.5 3.66665V10.3763C1.49998 11.2849 1.49999 12.0178 1.57747 12.5944C1.65815 13.1944 1.83121 13.6996 2.23242 14.1009C2.62076 14.4508 3.17638 14.6802 3.73893 14.7558C4.31554 14.8334 5.04833 14.8333 5.95703 14.8333H10.043C10.9517 14.8333 11.6845 14.8334 12.2611 14.7558C12.8611 14.6752 13.4392 14.426 13.8405 14.0247C14.1903 13.6364 14.3469 13.1569 14.4225 12.5944C14.4651 12.2778 14.4829 11.914 14.4915 11.5H12.6667C12.4236 11.5 12.133 11.4848 11.9453 11.4486C11.46 11.3184 11.0739 10.9552 10.9134 10.4837C10.8581 10.2769 10.8333 9.94431 10.8333 9.66665C10.8333 9.38891 10.8581 9.05631 10.9134 8.84958C11.074 8.37811 11.46 8.01478 11.9453 7.88471C12.133 7.84845 12.4236 7.83331 12.6667 7.83331H14.4915C14.4829 7.41931 14.4651 7.05551 14.4225 6.73891C14.3469 6.17642 14.1903 5.69688 13.8405 5.30857C13.4935 4.96163 12.9959 4.70937 12.4993 4.61587C12.4983 4.28285 12.4917 4.01122 12.4427 3.77147L12.4115 3.64516C12.1871 2.85445 11.5601 2.22588 10.7467 1.96417L10.5814 1.91665C10.3413 1.85592 10.0743 1.84037 9.74933 1.83592C10.0536 2.22214 10.2774 2.67389 10.3978 3.16665C10.8171 3.34961 11.1235 3.73991 11.1869 4.21027C11.1986 4.29749 11.1986 4.40137 11.1986 4.60619V4.61521H3.57422C3.14344 4.61504 2.79427 4.26544 2.79427 3.83461C2.79451 3.40399 3.14358 3.05485 3.57422 3.05467H3.63086Z" fill="#8A77FF"/>
<path d="M14.4999 10.5H12.6666C12.4098 10.5 12.248 10.4908 12.248 10.4908C12.1049 10.4999 11.8502 10.2998 11.8502 10.1295C11.8501 10.0803 11.8333 10.0085 11.8333 9.66665C11.8333 9.32458 11.8375 9.25131 11.8502 9.20378C11.8503 9.06751 12.0859 8.84251 12.248 8.84245C12.3046 8.83585 12.4098 8.83331 12.6666 8.83331H14.4999V10.5Z" fill="#8A77FF"/>
</svg>
