<svg width="24" height="24" viewBox="0 0 24 24" fill="none" xmlns="http://www.w3.org/2000/svg">
<path opacity="0.4" d="M10.0681 2.125H9.93195C8.6262 2.12497 7.54945 2.12494 6.69726 2.24079C5.80257 2.36241 5.01241 2.62758 4.37973 3.26729C3.74706 3.90699 3.4848 4.70593 3.36451 5.61057C3.24994 6.47222 3.24997 7.56089 3.25 8.88113V9.87441V9.87559V21.625H16.75V9.87626V9.875V9.87374V8.88119C16.7501 7.56093 16.7501 6.47223 16.6355 5.61057C16.5152 4.70593 16.253 3.90699 15.6203 3.26729C14.9876 2.62758 14.1975 2.36241 13.3028 2.24079C12.4506 2.12494 11.3739 2.12497 10.0681 2.125Z" fill="#FFEA72"/>
<path fill-rule="evenodd" clip-rule="evenodd" d="M14.2222 9.12422C14.5053 9.12422 14.6468 9.12422 14.7347 9.03614C14.8226 8.94807 14.8224 8.80672 14.8218 8.52403C14.8196 7.39501 14.8062 6.48107 14.7249 5.86961C14.6334 5.18121 14.472 4.86237 14.2574 4.64536C14.0428 4.42835 13.7274 4.26517 13.0466 4.17261C12.338 4.07629 11.3918 4.07422 10.0008 4.07422C8.60981 4.07422 7.66359 4.07629 6.95501 4.17261C6.27418 4.26517 5.95884 4.42835 5.74421 4.64536C5.52959 4.86237 5.3682 5.18121 5.27666 5.86962C5.19536 6.48107 5.18195 7.39501 5.17977 8.52403C5.17922 8.80672 5.17895 8.94807 5.26685 9.03614C5.35475 9.12422 5.49629 9.12422 5.77935 9.12422H14.2222Z" fill="#FFEA72"/>
<path fill-rule="evenodd" clip-rule="evenodd" d="M11.0715 12.0824C11.5092 12.4191 11.5912 13.047 11.2544 13.4847L10.5091 14.4537L10.937 14.5446C11.932 14.7558 12.3754 15.9913 11.6274 16.7692L9.89774 18.5681C9.51496 18.9663 8.88192 18.9787 8.4838 18.5959C8.08568 18.2131 8.07325 17.5801 8.45603 17.182L9.34991 16.2523L9.06139 16.191C8.12959 15.9932 7.65746 14.8807 8.27508 14.0778L9.6691 12.2654C10.0059 11.8276 10.6337 11.7457 11.0715 12.0824Z" fill="#FFEA72"/>
<path fill-rule="evenodd" clip-rule="evenodd" d="M1 20.875C1 20.3227 1.44771 19.875 2 19.875H18C18.5523 19.875 19 20.3227 19 20.875C19 21.4273 18.5523 21.875 18 21.875H2C1.44771 21.875 1 21.4273 1 20.875Z" fill="#FFEA72"/>
<path fill-rule="evenodd" clip-rule="evenodd" d="M16.75 14.875V12.875H17.6667L17.7342 12.8749C17.9691 12.8741 18.2569 12.8733 18.5177 12.9431C19.2079 13.1281 19.747 13.6672 19.9319 14.3574C20.0018 14.6182 20.0009 14.906 20.0002 15.1408L20 15.2083V16.375C20 16.6511 20.2239 16.875 20.5 16.875C20.7762 16.875 21 16.6511 21 16.375V10.0861C21 9.42667 20.9902 9.2999 20.9571 9.19077C20.9241 9.08163 20.862 8.97068 20.4962 8.422L19.7227 7.26175C19.5616 7.02013 19.2904 6.875 19 6.875C18.4478 6.875 18 6.42728 18 5.875C18 5.32272 18.4478 4.875 19 4.875C19.9591 4.875 20.8548 5.35433 21.3868 6.15235L22.1603 7.3126L22.2166 7.39697C22.4949 7.81339 22.7414 8.18221 22.8713 8.6112C23.0012 9.04019 23.0007 9.48378 23.0001 9.98465L23 10.0861V16.375C23 17.7557 21.8808 18.875 20.5 18.875C19.1193 18.875 18 17.7557 18 16.375V15.2083C18 15.0443 17.9998 14.9546 17.9968 14.8893L17.9963 14.8787L17.9858 14.8782C17.9205 14.8752 17.8308 14.875 17.6667 14.875H16.75Z" fill="#FFEA72"/>
</svg>
