<svg width="6" height="20" viewBox="0 0 6 20" fill="none" xmlns="http://www.w3.org/2000/svg">
<path fill-rule="evenodd" clip-rule="evenodd" d="M3.46757 7.53322C3.88115 7.58881 4.45347 7.73784 4.93905 8.22325C5.42463 8.70883 5.57349 9.28115 5.62908 9.69473C5.67513 10.0375 5.67479 10.4358 5.67462 10.7705C5.67462 10.7928 5.67462 10.8149 5.67462 10.8365V17.5342C5.67462 18.459 4.92499 19.2086 4.0002 19.2086C3.07542 19.2086 2.32579 18.459 2.32579 17.5342V10.8365C1.401 10.8365 0.651367 10.0869 0.651367 9.1621C0.651367 8.23731 1.401 7.48768 2.32579 7.48768C2.34739 7.48768 2.36949 7.48768 2.39176 7.48768C2.72647 7.48751 3.12482 7.48717 3.46757 7.53322Z" fill="white"/>
<path fill-rule="evenodd" clip-rule="evenodd" d="M2.32568 2.46438C2.32568 1.53963 3.07197 0.789963 3.99257 0.789963H4.00764C4.92823 0.789963 5.67452 1.53963 5.67452 2.46438C5.67452 3.38915 4.92823 4.1388 4.00764 4.1388H3.99257C3.07197 4.1388 2.32568 3.38915 2.32568 2.46438Z" fill="white"/>
</svg>
