<svg width="16" height="16" viewBox="0 0 16 16" fill="none" xmlns="http://www.w3.org/2000/svg">
<g clip-path="url(#clip0_1577_2415)">
<path d="M0.833252 10.6667C0.833252 8.18139 2.84797 6.16666 5.33325 6.16666C7.81852 6.16666 9.83325 8.18139 9.83325 10.6667C9.83325 13.1519 7.81852 15.1667 5.33325 15.1667C2.84797 15.1667 0.833252 13.1519 0.833252 10.6667Z" fill="#FF366C"/>
<path opacity="0.4" d="M10.6667 0.833344C13.152 0.833344 15.1667 2.84806 15.1667 5.33334C15.1667 7.66508 13.3933 9.58254 11.1217 9.81061C10.9647 9.82641 10.8862 9.83428 10.8246 9.78954C10.763 9.74481 10.7441 9.65861 10.7064 9.48628C10.2494 7.39621 8.60383 5.75071 6.51378 5.29365C6.34143 5.25596 6.25525 5.23711 6.21052 5.17546C6.16578 5.11381 6.17366 5.03533 6.18942 4.87836C6.4175 2.60676 8.33503 0.833344 10.6667 0.833344Z" fill="#FF366C"/>
<path opacity="0.5" d="M5.60009 1.59999L4.40005 2.79999M5.60009 1.59999C3.22169 1.59999 1.24732 3.32982 0.866455 5.59999M5.60009 1.59999L4.00005 0.799988" stroke="#FF366C" stroke-width="1.5" stroke-linecap="round" stroke-linejoin="round"/>
<path d="M10.3999 14.4L11.6 13.2M10.3999 14.4C12.7783 14.4 14.7527 12.6702 15.1335 10.4M10.3999 14.4L12 15.2" stroke="#FF366C" stroke-width="1.5" stroke-linecap="round" stroke-linejoin="round"/>
</g>
<defs>
<clipPath id="clip0_1577_2415">
<rect width="16" height="16" fill="white"/>
</clipPath>
</defs>
</svg>
