<svg width="20" height="20" viewBox="0 0 20 20" fill="none" xmlns="http://www.w3.org/2000/svg">
<path opacity="0.4" d="M1.04175 10C1.04175 5.05247 5.05253 1.04169 10.0001 1.04169C14.9477 1.04169 18.9584 5.05247 18.9584 10C18.9584 14.9476 14.9477 18.9584 10.0001 18.9584C5.05253 18.9584 1.04175 14.9476 1.04175 10Z" fill="#3C80FF"/>
<path fill-rule="evenodd" clip-rule="evenodd" d="M10.0001 5.83331C10.4603 5.83331 10.8334 6.20641 10.8334 6.66665V9.65481L12.256 11.0774C12.5814 11.4028 12.5814 11.9305 12.256 12.2559C11.9306 12.5813 11.4029 12.5813 11.0775 12.2559L9.41083 10.5892C9.25458 10.433 9.16675 10.221 9.16675 9.99998V6.66665C9.16675 6.20641 9.53983 5.83331 10.0001 5.83331Z" fill="#3C80FF"/>
</svg>
