<svg width="16" height="6" viewBox="0 0 16 6" fill="none" xmlns="http://www.w3.org/2000/svg">
<g clip-path="url(#clip0_1577_2383)">
<path opacity="0.5" d="M15.5213 1.57674H16.0001V0.600006H15.5213C15.081 0.600006 14.6584 0.770336 14.3599 1.06575L13.6152 1.80829C13.5236 1.89877 13.3935 1.952 13.2605 1.952C13.1275 1.952 12.9975 1.89877 12.9059 1.80829L12.1612 1.06575C11.8627 0.770336 11.4401 0.600006 10.9997 0.600006H10.5269V1.57674H10.9997C11.1357 1.57674 11.2628 1.62997 11.3544 1.72046L12.0784 2.4417L11.3544 3.16294C11.2628 3.25343 11.1327 3.30666 10.9968 3.30666H10.5239V4.2834H10.9968C11.4371 4.2834 11.8597 4.11307 12.1582 3.81765L12.9029 3.07512C12.9946 2.98463 13.1246 2.9314 13.2576 2.9314C13.3906 2.9314 13.5206 2.98463 13.6122 3.07512L14.3599 3.81765C14.6584 4.11307 15.081 4.2834 15.5213 4.2834H16.0001V3.30666H15.5213C15.3854 3.30666 15.2583 3.25343 15.1667 3.16294L14.4427 2.4417L15.1667 1.72046C15.2583 1.62997 15.3884 1.57674 15.5213 1.57674Z" fill="#8A77FF"/>
<path d="M1.03333 5.81735H0.0610335C0.0285252 5.81735 0.00488281 5.7934 0.00488281 5.76679V4.32962C0.00488281 3.29167 0.941713 2.44801 2.09428 2.44801C2.43119 2.44801 2.76513 2.52253 3.06362 2.66092L6.43266 4.30301C6.82276 4.49463 7.28379 4.49197 7.66798 4.29769C8.08468 4.08744 8.32997 3.67758 8.32997 3.24643V2.5518C8.32997 1.91306 7.75368 1.39409 7.04441 1.39409H0.0639888C0.0314805 1.39409 0.00783811 1.37014 0.00783811 1.34352V0.47058C0.00783811 0.441305 0.0344358 0.420013 0.0639888 0.420013H7.04145C8.35065 0.420013 9.41161 1.37546 9.41161 2.55446V3.23578C9.41161 4.01292 8.97422 4.74747 8.22948 5.13603C7.48475 5.5246 6.64544 5.52194 5.91253 5.16531L2.55235 3.52588C2.41641 3.462 2.25682 3.42741 2.09428 3.42741C1.54164 3.42741 1.08948 3.83194 1.08948 4.33229V5.76945C1.08948 5.79872 1.06288 5.82001 1.03333 5.82001V5.81735Z" fill="#8A77FF"/>
</g>
<defs>
<clipPath id="clip0_1577_2383">
<rect width="16" height="6" fill="white"/>
</clipPath>
</defs>
</svg>
