<svg width="16" height="14" viewBox="0 0 16 14" fill="none" xmlns="http://www.w3.org/2000/svg">
<path opacity="0.4" d="M1.63623 4.54549C1.63623 4.24424 1.88044 4.00003 2.18169 4.00003C2.48293 4.00003 2.72714 4.24424 2.72714 4.54549V13.4546C2.72714 13.7558 2.48293 14 2.18169 14C1.88044 14 1.63623 13.7558 1.63623 13.4546V4.54549Z" fill="#5CFF93"/>
<path opacity="0.4" d="M13.2727 3.90913C13.2727 3.60789 13.5169 3.36368 13.8182 3.36368C14.1194 3.36368 14.3636 3.60789 14.3636 3.90913V13C14.3636 13.3013 14.1194 13.5455 13.8182 13.5455C13.5169 13.5455 13.2727 13.3013 13.2727 13V3.90913Z" fill="#5CFF93"/>
<path opacity="0.4" d="M7.45459 0.545485C7.45459 0.244239 7.6988 3.05176e-05 8.00004 3.05176e-05C8.30129 3.05176e-05 8.5455 0.244239 8.5455 0.545485V9.63639C8.5455 9.93764 8.30129 10.1818 8.00004 10.1818C7.6988 10.1818 7.45459 9.93764 7.45459 9.63639V0.545485Z" fill="#5CFF93"/>
<rect y="6.18185" width="4.36364" height="5.81818" rx="0.727273" fill="#5CFF93"/>
<rect x="11.6365" y="6.27277" width="4.36364" height="5.09091" rx="0.727273" fill="#5CFF93"/>
<rect x="5.81812" y="2.90915" width="4.36364" height="3.63636" rx="0.727273" fill="#5CFF93"/>
</svg>
