<svg width="16" height="16" viewBox="0 0 16 16" fill="none" xmlns="http://www.w3.org/2000/svg">
<path fill-rule="evenodd" clip-rule="evenodd" d="M7.11805 1.96958C7.55465 1.12122 8.77852 1.12122 9.21512 1.96958L10.6861 4.8282C10.7105 4.87563 10.7564 4.90864 10.8095 4.91702L14.007 5.42134C14.9554 5.57093 15.3333 6.72184 14.6551 7.39531L12.3661 9.66831C12.3281 9.70598 12.3107 9.75924 12.3191 9.81178L12.8236 12.9841C12.9731 13.9243 11.9832 14.6359 11.1269 14.2039L8.24292 12.7489C8.19498 12.7247 8.13819 12.7247 8.09025 12.7489L5.20627 14.2039C4.34995 14.6359 3.36008 13.9243 3.5096 12.9841L4.01414 9.81178C4.0225 9.75924 4.00502 9.70598 3.96711 9.66831L1.67804 7.39531C0.999871 6.72184 1.37779 5.57093 2.32619 5.42134L5.5237 4.91702C5.57678 4.90864 5.62263 4.87563 5.64704 4.8282L7.11805 1.96958Z" fill="#8A77FF"/>
</svg>
